<?xml version="1.0" encoding="utf-8" standalone="no"?>
<!DOCTYPE svg PUBLIC "-//W3C//DTD SVG 1.1//EN"
  "http://www.w3.org/Graphics/SVG/1.1/DTD/svg11.dtd">
<svg xmlns:xlink="http://www.w3.org/1999/xlink" width="784.306562pt" height="299.308875pt" viewBox="0 0 784.306562 299.308875" xmlns="http://www.w3.org/2000/svg" version="1.1">
 <metadata>
  <rdf:RDF xmlns:dc="http://purl.org/dc/elements/1.1/" xmlns:cc="http://creativecommons.org/ns#" xmlns:rdf="http://www.w3.org/1999/02/22-rdf-syntax-ns#">
   <cc:Work>
    <dc:type rdf:resource="http://purl.org/dc/dcmitype/StillImage"/>
    <dc:date>2026-07-24T14:51:53.134279</dc:date>
    <dc:format>image/svg+xml</dc:format>
    <dc:creator>
     <cc:Agent>
      <dc:title>Matplotlib v3.11.0, https://matplotlib.org/</dc:title>
     </cc:Agent>
    </dc:creator>
   </cc:Work>
  </rdf:RDF>
 </metadata>
 <defs>
  <style type="text/css">*{stroke-linejoin: round; stroke-linecap: butt}</style>
 </defs>
 <g id="figure_1">
  <g id="patch_1">
   <path d="M 0 299.308875 
L 784.306562 299.308875 
L 784.306562 0 
L 0 0 
z
" style="fill: #ffffff"/>
  </g>
  <g id="axes_1">
   <g id="patch_2">
    <path d="M 56.828906 261.103406 
L 387.946563 261.103406 
L 387.946563 66.435047 
L 56.828906 66.435047 
z
" style="fill: #ffffff"/>
   </g>
   <g id="patch_3">
    <path d="M 71.879709 261.103406 
L 77.980686 261.103406 
L 77.980686 260.471007 
L 71.879709 260.471007 
z
" clip-path="url(#pab5c108ea7)" style="fill: #898781; opacity: 0.6"/>
   </g>
   <g id="patch_4">
    <path d="M 77.980686 261.103406 
L 84.081662 261.103406 
L 84.081662 260.049407 
L 77.980686 260.049407 
z
" clip-path="url(#pab5c108ea7)" style="fill: #898781; opacity: 0.6"/>
   </g>
   <g id="patch_5">
    <path d="M 84.081662 261.103406 
L 90.182639 261.103406 
L 90.182639 260.154807 
L 84.081662 260.154807 
z
" clip-path="url(#pab5c108ea7)" style="fill: #898781; opacity: 0.6"/>
   </g>
   <g id="patch_6">
    <path d="M 90.182639 261.103406 
L 96.283616 261.103406 
L 96.283616 258.046809 
L 90.182639 258.046809 
z
" clip-path="url(#pab5c108ea7)" style="fill: #898781; opacity: 0.6"/>
   </g>
   <g id="patch_7">
    <path d="M 96.283616 261.103406 
L 102.384593 261.103406 
L 102.384593 256.78201 
L 96.283616 256.78201 
z
" clip-path="url(#pab5c108ea7)" style="fill: #898781; opacity: 0.6"/>
   </g>
   <g id="patch_8">
    <path d="M 102.384593 261.103406 
L 108.48557 261.103406 
L 108.48557 247.085219 
L 102.384593 247.085219 
z
" clip-path="url(#pab5c108ea7)" style="fill: #898781; opacity: 0.6"/>
   </g>
   <g id="patch_9">
    <path d="M 108.48557 261.103406 
L 114.586547 261.103406 
L 114.586547 223.15944 
L 108.48557 223.15944 
z
" clip-path="url(#pab5c108ea7)" style="fill: #898781; opacity: 0.6"/>
   </g>
   <g id="patch_10">
    <path d="M 114.586547 261.103406 
L 120.687523 261.103406 
L 120.687523 174.464682 
L 114.586547 174.464682 
z
" clip-path="url(#pab5c108ea7)" style="fill: #898781; opacity: 0.6"/>
   </g>
   <g id="patch_11">
    <path d="M 120.687523 261.103406 
L 126.7885 261.103406 
L 126.7885 122.080928 
L 120.687523 122.080928 
z
" clip-path="url(#pab5c108ea7)" style="fill: #898781; opacity: 0.6"/>
   </g>
   <g id="patch_12">
    <path d="M 126.7885 261.103406 
L 132.889477 261.103406 
L 132.889477 91.936555 
L 126.7885 91.936555 
z
" clip-path="url(#pab5c108ea7)" style="fill: #898781; opacity: 0.6"/>
   </g>
   <g id="patch_13">
    <path d="M 132.889477 261.103406 
L 138.990454 261.103406 
L 138.990454 75.704969 
L 132.889477 75.704969 
z
" clip-path="url(#pab5c108ea7)" style="fill: #898781; opacity: 0.6"/>
   </g>
   <g id="patch_14">
    <path d="M 138.990454 261.103406 
L 145.091431 261.103406 
L 145.091431 115.967733 
L 138.990454 115.967733 
z
" clip-path="url(#pab5c108ea7)" style="fill: #898781; opacity: 0.6"/>
   </g>
   <g id="patch_15">
    <path d="M 145.091431 261.103406 
L 151.192407 261.103406 
L 151.192407 186.796471 
L 145.091431 186.796471 
z
" clip-path="url(#pab5c108ea7)" style="fill: #898781; opacity: 0.6"/>
   </g>
   <g id="patch_16">
    <path d="M 151.192407 261.103406 
L 157.293384 261.103406 
L 157.293384 224.635038 
L 151.192407 224.635038 
z
" clip-path="url(#pab5c108ea7)" style="fill: #898781; opacity: 0.6"/>
   </g>
   <g id="patch_17">
    <path d="M 157.293384 261.103406 
L 163.394361 261.103406 
L 163.394361 246.136619 
L 157.293384 246.136619 
z
" clip-path="url(#pab5c108ea7)" style="fill: #898781; opacity: 0.6"/>
   </g>
   <g id="patch_18">
    <path d="M 163.394361 261.103406 
L 169.495338 261.103406 
L 169.495338 254.568612 
L 163.394361 254.568612 
z
" clip-path="url(#pab5c108ea7)" style="fill: #898781; opacity: 0.6"/>
   </g>
   <g id="patch_19">
    <path d="M 169.495338 261.103406 
L 175.596315 261.103406 
L 175.596315 259.627808 
L 169.495338 259.627808 
z
" clip-path="url(#pab5c108ea7)" style="fill: #898781; opacity: 0.6"/>
   </g>
   <g id="patch_20">
    <path d="M 175.596315 261.103406 
L 181.697292 261.103406 
L 181.697292 260.787207 
L 175.596315 260.787207 
z
" clip-path="url(#pab5c108ea7)" style="fill: #898781; opacity: 0.6"/>
   </g>
   <g id="patch_21">
    <path d="M 181.697292 261.103406 
L 187.798268 261.103406 
L 187.798268 260.892606 
L 181.697292 260.892606 
z
" clip-path="url(#pab5c108ea7)" style="fill: #898781; opacity: 0.6"/>
   </g>
   <g id="patch_22">
    <path d="M 187.798268 261.103406 
L 193.899245 261.103406 
L 193.899245 260.892606 
L 187.798268 260.892606 
z
" clip-path="url(#pab5c108ea7)" style="fill: #898781; opacity: 0.6"/>
   </g>
   <g id="patch_23">
    <path d="M 193.899245 261.103406 
L 200.000222 261.103406 
L 200.000222 260.998006 
L 193.899245 260.998006 
z
" clip-path="url(#pab5c108ea7)" style="fill: #898781; opacity: 0.6"/>
   </g>
   <g id="patch_24">
    <path d="M 200.000222 261.103406 
L 206.101199 261.103406 
L 206.101199 260.787207 
L 200.000222 260.787207 
z
" clip-path="url(#pab5c108ea7)" style="fill: #898781; opacity: 0.6"/>
   </g>
   <g id="patch_25">
    <path d="M 206.101199 261.103406 
L 212.202176 261.103406 
L 212.202176 260.998006 
L 206.101199 260.998006 
z
" clip-path="url(#pab5c108ea7)" style="fill: #898781; opacity: 0.6"/>
   </g>
   <g id="patch_26">
    <path d="M 212.202176 261.103406 
L 218.303152 261.103406 
L 218.303152 261.103406 
L 212.202176 261.103406 
z
" clip-path="url(#pab5c108ea7)" style="fill: #898781; opacity: 0.6"/>
   </g>
   <g id="patch_27">
    <path d="M 218.303152 261.103406 
L 224.404129 261.103406 
L 224.404129 261.103406 
L 218.303152 261.103406 
z
" clip-path="url(#pab5c108ea7)" style="fill: #898781; opacity: 0.6"/>
   </g>
   <g id="patch_28">
    <path d="M 224.404129 261.103406 
L 230.505106 261.103406 
L 230.505106 260.892606 
L 224.404129 260.892606 
z
" clip-path="url(#pab5c108ea7)" style="fill: #898781; opacity: 0.6"/>
   </g>
   <g id="patch_29">
    <path d="M 230.505106 261.103406 
L 236.606083 261.103406 
L 236.606083 260.787207 
L 230.505106 260.787207 
z
" clip-path="url(#pab5c108ea7)" style="fill: #898781; opacity: 0.6"/>
   </g>
   <g id="patch_30">
    <path d="M 236.606083 261.103406 
L 242.70706 261.103406 
L 242.70706 260.998006 
L 236.606083 260.998006 
z
" clip-path="url(#pab5c108ea7)" style="fill: #898781; opacity: 0.6"/>
   </g>
   <g id="patch_31">
    <path d="M 242.70706 261.103406 
L 248.808037 261.103406 
L 248.808037 261.103406 
L 242.70706 261.103406 
z
" clip-path="url(#pab5c108ea7)" style="fill: #898781; opacity: 0.6"/>
   </g>
   <g id="patch_32">
    <path d="M 248.808037 261.103406 
L 254.909013 261.103406 
L 254.909013 261.103406 
L 248.808037 261.103406 
z
" clip-path="url(#pab5c108ea7)" style="fill: #898781; opacity: 0.6"/>
   </g>
   <g id="patch_33">
    <path d="M 254.909013 261.103406 
L 261.00999 261.103406 
L 261.00999 261.103406 
L 254.909013 261.103406 
z
" clip-path="url(#pab5c108ea7)" style="fill: #898781; opacity: 0.6"/>
   </g>
   <g id="patch_34">
    <path d="M 261.00999 261.103406 
L 267.110967 261.103406 
L 267.110967 261.103406 
L 261.00999 261.103406 
z
" clip-path="url(#pab5c108ea7)" style="fill: #898781; opacity: 0.6"/>
   </g>
   <g id="patch_35">
    <path d="M 267.110967 261.103406 
L 273.211944 261.103406 
L 273.211944 261.103406 
L 267.110967 261.103406 
z
" clip-path="url(#pab5c108ea7)" style="fill: #898781; opacity: 0.6"/>
   </g>
   <g id="patch_36">
    <path d="M 273.211944 261.103406 
L 279.312921 261.103406 
L 279.312921 261.103406 
L 273.211944 261.103406 
z
" clip-path="url(#pab5c108ea7)" style="fill: #898781; opacity: 0.6"/>
   </g>
   <g id="patch_37">
    <path d="M 279.312921 261.103406 
L 285.413897 261.103406 
L 285.413897 261.103406 
L 279.312921 261.103406 
z
" clip-path="url(#pab5c108ea7)" style="fill: #898781; opacity: 0.6"/>
   </g>
   <g id="patch_38">
    <path d="M 285.413897 261.103406 
L 291.514874 261.103406 
L 291.514874 261.103406 
L 285.413897 261.103406 
z
" clip-path="url(#pab5c108ea7)" style="fill: #898781; opacity: 0.6"/>
   </g>
   <g id="patch_39">
    <path d="M 291.514874 261.103406 
L 297.615851 261.103406 
L 297.615851 261.103406 
L 291.514874 261.103406 
z
" clip-path="url(#pab5c108ea7)" style="fill: #898781; opacity: 0.6"/>
   </g>
   <g id="patch_40">
    <path d="M 297.615851 261.103406 
L 303.716828 261.103406 
L 303.716828 261.103406 
L 297.615851 261.103406 
z
" clip-path="url(#pab5c108ea7)" style="fill: #898781; opacity: 0.6"/>
   </g>
   <g id="patch_41">
    <path d="M 303.716828 261.103406 
L 309.817805 261.103406 
L 309.817805 261.103406 
L 303.716828 261.103406 
z
" clip-path="url(#pab5c108ea7)" style="fill: #898781; opacity: 0.6"/>
   </g>
   <g id="patch_42">
    <path d="M 309.817805 261.103406 
L 315.918781 261.103406 
L 315.918781 260.787207 
L 309.817805 260.787207 
z
" clip-path="url(#pab5c108ea7)" style="fill: #898781; opacity: 0.6"/>
   </g>
   <g id="matplotlib.axis_1">
    <g id="xtick_1">
     <g id="line2d_1">
      <path d="M 84.697486 261.103406 
L 84.697486 66.435047 
" clip-path="url(#pab5c108ea7)" style="fill: none; stroke: #b0b0b0; stroke-opacity: 0.3; stroke-width: 0.8; stroke-linecap: square"/>
     </g>
     <g id="line2d_2">
      <defs>
       <path id="m091fff3e86" d="M 0 0 
L 0 3.5 
" style="stroke: #000000; stroke-width: 0.8"/>
      </defs>
      <g>
       <use xlink:href="#m091fff3e86" x="84.697486" y="261.103406" style="stroke: #000000; stroke-width: 0.8"/>
      </g>
     </g>
     <g id="text_1">
      <!-- −50 -->
      <g transform="translate(74.145142 275.701063) scale(0.1 -0.1)">
       <defs>
        <path id="DejaVuSans-c9c" d="M 678 2272 
L 4684 2272 
L 4684 1741 
L 678 1741 
L 678 2272 
z
" transform="scale(0.015625)"/>
        <path id="DejaVuSans-18" d="M 691 4666 
L 3169 4666 
L 3169 4134 
L 1269 4134 
L 1269 2991 
Q 1406 3038 1543 3061 
Q 1681 3084 1819 3084 
Q 2600 3084 3056 2656 
Q 3513 2228 3513 1497 
Q 3513 744 3044 326 
Q 2575 -91 1722 -91 
Q 1428 -91 1123 -41 
Q 819 9 494 109 
L 494 744 
Q 775 591 1075 516 
Q 1375 441 1709 441 
Q 2250 441 2565 725 
Q 2881 1009 2881 1497 
Q 2881 1984 2565 2268 
Q 2250 2553 1709 2553 
Q 1456 2553 1204 2497 
Q 953 2441 691 2322 
L 691 4666 
z
" transform="scale(0.015625)"/>
        <path id="DejaVuSans-13" d="M 2034 4250 
Q 1547 4250 1301 3770 
Q 1056 3291 1056 2328 
Q 1056 1369 1301 889 
Q 1547 409 2034 409 
Q 2525 409 2770 889 
Q 3016 1369 3016 2328 
Q 3016 3291 2770 3770 
Q 2525 4250 2034 4250 
z
M 2034 4750 
Q 2819 4750 3233 4129 
Q 3647 3509 3647 2328 
Q 3647 1150 3233 529 
Q 2819 -91 2034 -91 
Q 1250 -91 836 529 
Q 422 1150 422 2328 
Q 422 3509 836 4129 
Q 1250 4750 2034 4750 
z
" transform="scale(0.015625)"/>
       </defs>
       <use xlink:href="#DejaVuSans-c9c"/>
       <use xlink:href="#DejaVuSans-18" transform="translate(83.796875 0)"/>
       <use xlink:href="#DejaVuSans-13" transform="translate(147.421875 0)"/>
      </g>
     </g>
    </g>
    <g id="xtick_2">
     <g id="line2d_3">
      <path d="M 132.849285 261.103406 
L 132.849285 66.435047 
" clip-path="url(#pab5c108ea7)" style="fill: none; stroke: #b0b0b0; stroke-opacity: 0.3; stroke-width: 0.8; stroke-linecap: square"/>
     </g>
     <g id="line2d_4">
      <g>
       <use xlink:href="#m091fff3e86" x="132.849285" y="261.103406" style="stroke: #000000; stroke-width: 0.8"/>
      </g>
     </g>
     <g id="text_2">
      <!-- 0 -->
      <g transform="translate(129.668035 275.701063) scale(0.1 -0.1)">
       <use xlink:href="#DejaVuSans-13"/>
      </g>
     </g>
    </g>
    <g id="xtick_3">
     <g id="line2d_5">
      <path d="M 181.001085 261.103406 
L 181.001085 66.435047 
" clip-path="url(#pab5c108ea7)" style="fill: none; stroke: #b0b0b0; stroke-opacity: 0.3; stroke-width: 0.8; stroke-linecap: square"/>
     </g>
     <g id="line2d_6">
      <g>
       <use xlink:href="#m091fff3e86" x="181.001085" y="261.103406" style="stroke: #000000; stroke-width: 0.8"/>
      </g>
     </g>
     <g id="text_3">
      <!-- 50 -->
      <g transform="translate(174.638585 275.701063) scale(0.1 -0.1)">
       <use xlink:href="#DejaVuSans-18"/>
       <use xlink:href="#DejaVuSans-13" transform="translate(63.625 0)"/>
      </g>
     </g>
    </g>
    <g id="xtick_4">
     <g id="line2d_7">
      <path d="M 229.152885 261.103406 
L 229.152885 66.435047 
" clip-path="url(#pab5c108ea7)" style="fill: none; stroke: #b0b0b0; stroke-opacity: 0.3; stroke-width: 0.8; stroke-linecap: square"/>
     </g>
     <g id="line2d_8">
      <g>
       <use xlink:href="#m091fff3e86" x="229.152885" y="261.103406" style="stroke: #000000; stroke-width: 0.8"/>
      </g>
     </g>
     <g id="text_4">
      <!-- 100 -->
      <g transform="translate(219.609135 275.701063) scale(0.1 -0.1)">
       <defs>
        <path id="DejaVuSans-14" d="M 794 531 
L 1825 531 
L 1825 4091 
L 703 3866 
L 703 4441 
L 1819 4666 
L 2450 4666 
L 2450 531 
L 3481 531 
L 3481 0 
L 794 0 
L 794 531 
z
" transform="scale(0.015625)"/>
       </defs>
       <use xlink:href="#DejaVuSans-14"/>
       <use xlink:href="#DejaVuSans-13" transform="translate(63.625 0)"/>
       <use xlink:href="#DejaVuSans-13" transform="translate(127.25 0)"/>
      </g>
     </g>
    </g>
    <g id="xtick_5">
     <g id="line2d_9">
      <path d="M 277.304684 261.103406 
L 277.304684 66.435047 
" clip-path="url(#pab5c108ea7)" style="fill: none; stroke: #b0b0b0; stroke-opacity: 0.3; stroke-width: 0.8; stroke-linecap: square"/>
     </g>
     <g id="line2d_10">
      <g>
       <use xlink:href="#m091fff3e86" x="277.304684" y="261.103406" style="stroke: #000000; stroke-width: 0.8"/>
      </g>
     </g>
     <g id="text_5">
      <!-- 150 -->
      <g transform="translate(267.760934 275.701063) scale(0.1 -0.1)">
       <use xlink:href="#DejaVuSans-14"/>
       <use xlink:href="#DejaVuSans-18" transform="translate(63.625 0)"/>
       <use xlink:href="#DejaVuSans-13" transform="translate(127.25 0)"/>
      </g>
     </g>
    </g>
    <g id="xtick_6">
     <g id="line2d_11">
      <path d="M 325.456484 261.103406 
L 325.456484 66.435047 
" clip-path="url(#pab5c108ea7)" style="fill: none; stroke: #b0b0b0; stroke-opacity: 0.3; stroke-width: 0.8; stroke-linecap: square"/>
     </g>
     <g id="line2d_12">
      <g>
       <use xlink:href="#m091fff3e86" x="325.456484" y="261.103406" style="stroke: #000000; stroke-width: 0.8"/>
      </g>
     </g>
     <g id="text_6">
      <!-- 200 -->
      <g transform="translate(315.912734 275.701063) scale(0.1 -0.1)">
       <defs>
        <path id="DejaVuSans-15" d="M 1228 531 
L 3431 531 
L 3431 0 
L 469 0 
L 469 531 
Q 828 903 1448 1529 
Q 2069 2156 2228 2338 
Q 2531 2678 2651 2914 
Q 2772 3150 2772 3378 
Q 2772 3750 2511 3984 
Q 2250 4219 1831 4219 
Q 1534 4219 1204 4116 
Q 875 4013 500 3803 
L 500 4441 
Q 881 4594 1212 4672 
Q 1544 4750 1819 4750 
Q 2544 4750 2975 4387 
Q 3406 4025 3406 3419 
Q 3406 3131 3298 2873 
Q 3191 2616 2906 2266 
Q 2828 2175 2409 1742 
Q 1991 1309 1228 531 
z
" transform="scale(0.015625)"/>
       </defs>
       <use xlink:href="#DejaVuSans-15"/>
       <use xlink:href="#DejaVuSans-13" transform="translate(63.625 0)"/>
       <use xlink:href="#DejaVuSans-13" transform="translate(127.25 0)"/>
      </g>
     </g>
    </g>
    <g id="xtick_7">
     <g id="line2d_13">
      <path d="M 373.608284 261.103406 
L 373.608284 66.435047 
" clip-path="url(#pab5c108ea7)" style="fill: none; stroke: #b0b0b0; stroke-opacity: 0.3; stroke-width: 0.8; stroke-linecap: square"/>
     </g>
     <g id="line2d_14">
      <g>
       <use xlink:href="#m091fff3e86" x="373.608284" y="261.103406" style="stroke: #000000; stroke-width: 0.8"/>
      </g>
     </g>
     <g id="text_7">
      <!-- 250 -->
      <g transform="translate(364.064534 275.701063) scale(0.1 -0.1)">
       <use xlink:href="#DejaVuSans-15"/>
       <use xlink:href="#DejaVuSans-18" transform="translate(63.625 0)"/>
       <use xlink:href="#DejaVuSans-13" transform="translate(127.25 0)"/>
      </g>
     </g>
    </g>
    <g id="text_8">
     <!-- forecast residual (€/MWh) -->
     <g transform="translate(157.984609 289.701844) scale(0.1 -0.1)">
      <defs>
       <path id="DejaVuSans-49" d="M 2375 4863 
L 2375 4384 
L 1825 4384 
Q 1516 4384 1395 4259 
Q 1275 4134 1275 3809 
L 1275 3500 
L 2222 3500 
L 2222 3053 
L 1275 3053 
L 1275 0 
L 697 0 
L 697 3053 
L 147 3053 
L 147 3500 
L 697 3500 
L 697 3744 
Q 697 4328 969 4595 
Q 1241 4863 1831 4863 
L 2375 4863 
z
" transform="scale(0.015625)"/>
       <path id="DejaVuSans-52" d="M 1959 3097 
Q 1497 3097 1228 2736 
Q 959 2375 959 1747 
Q 959 1119 1226 758 
Q 1494 397 1959 397 
Q 2419 397 2687 759 
Q 2956 1122 2956 1747 
Q 2956 2369 2687 2733 
Q 2419 3097 1959 3097 
z
M 1959 3584 
Q 2709 3584 3137 3096 
Q 3566 2609 3566 1747 
Q 3566 888 3137 398 
Q 2709 -91 1959 -91 
Q 1206 -91 779 398 
Q 353 888 353 1747 
Q 353 2609 779 3096 
Q 1206 3584 1959 3584 
z
" transform="scale(0.015625)"/>
       <path id="DejaVuSans-55" d="M 2631 2963 
Q 2534 3019 2420 3045 
Q 2306 3072 2169 3072 
Q 1681 3072 1420 2755 
Q 1159 2438 1159 1844 
L 1159 0 
L 581 0 
L 581 3500 
L 1159 3500 
L 1159 2956 
Q 1341 3275 1631 3429 
Q 1922 3584 2338 3584 
Q 2397 3584 2469 3576 
Q 2541 3569 2628 3553 
L 2631 2963 
z
" transform="scale(0.015625)"/>
       <path id="DejaVuSans-48" d="M 3597 1894 
L 3597 1613 
L 953 1613 
Q 991 1019 1311 708 
Q 1631 397 2203 397 
Q 2534 397 2845 478 
Q 3156 559 3463 722 
L 3463 178 
Q 3153 47 2828 -22 
Q 2503 -91 2169 -91 
Q 1331 -91 842 396 
Q 353 884 353 1716 
Q 353 2575 817 3079 
Q 1281 3584 2069 3584 
Q 2775 3584 3186 3129 
Q 3597 2675 3597 1894 
z
M 3022 2063 
Q 3016 2534 2758 2815 
Q 2500 3097 2075 3097 
Q 1594 3097 1305 2825 
Q 1016 2553 972 2059 
L 3022 2063 
z
" transform="scale(0.015625)"/>
       <path id="DejaVuSans-46" d="M 3122 3366 
L 3122 2828 
Q 2878 2963 2633 3030 
Q 2388 3097 2138 3097 
Q 1578 3097 1268 2742 
Q 959 2388 959 1747 
Q 959 1106 1268 751 
Q 1578 397 2138 397 
Q 2388 397 2633 464 
Q 2878 531 3122 666 
L 3122 134 
Q 2881 22 2623 -34 
Q 2366 -91 2075 -91 
Q 1284 -91 818 406 
Q 353 903 353 1747 
Q 353 2603 823 3093 
Q 1294 3584 2113 3584 
Q 2378 3584 2631 3529 
Q 2884 3475 3122 3366 
z
" transform="scale(0.015625)"/>
       <path id="DejaVuSans-44" d="M 2194 1759 
Q 1497 1759 1228 1600 
Q 959 1441 959 1056 
Q 959 750 1161 570 
Q 1363 391 1709 391 
Q 2188 391 2477 730 
Q 2766 1069 2766 1631 
L 2766 1759 
L 2194 1759 
z
M 3341 1997 
L 3341 0 
L 2766 0 
L 2766 531 
Q 2569 213 2275 61 
Q 1981 -91 1556 -91 
Q 1019 -91 701 211 
Q 384 513 384 1019 
Q 384 1609 779 1909 
Q 1175 2209 1959 2209 
L 2766 2209 
L 2766 2266 
Q 2766 2663 2505 2880 
Q 2244 3097 1772 3097 
Q 1472 3097 1187 3025 
Q 903 2953 641 2809 
L 641 3341 
Q 956 3463 1253 3523 
Q 1550 3584 1831 3584 
Q 2591 3584 2966 3190 
Q 3341 2797 3341 1997 
z
" transform="scale(0.015625)"/>
       <path id="DejaVuSans-56" d="M 2834 3397 
L 2834 2853 
Q 2591 2978 2328 3040 
Q 2066 3103 1784 3103 
Q 1356 3103 1142 2972 
Q 928 2841 928 2578 
Q 928 2378 1081 2264 
Q 1234 2150 1697 2047 
L 1894 2003 
Q 2506 1872 2764 1633 
Q 3022 1394 3022 966 
Q 3022 478 2636 193 
Q 2250 -91 1575 -91 
Q 1294 -91 989 -36 
Q 684 19 347 128 
L 347 722 
Q 666 556 975 473 
Q 1284 391 1588 391 
Q 1994 391 2212 530 
Q 2431 669 2431 922 
Q 2431 1156 2273 1281 
Q 2116 1406 1581 1522 
L 1381 1569 
Q 847 1681 609 1914 
Q 372 2147 372 2553 
Q 372 3047 722 3315 
Q 1072 3584 1716 3584 
Q 2034 3584 2315 3537 
Q 2597 3491 2834 3397 
z
" transform="scale(0.015625)"/>
       <path id="DejaVuSans-57" d="M 1172 4494 
L 1172 3500 
L 2356 3500 
L 2356 3053 
L 1172 3053 
L 1172 1153 
Q 1172 725 1289 603 
Q 1406 481 1766 481 
L 2356 481 
L 2356 0 
L 1766 0 
Q 1100 0 847 248 
Q 594 497 594 1153 
L 594 3053 
L 172 3053 
L 172 3500 
L 594 3500 
L 594 4494 
L 1172 4494 
z
" transform="scale(0.015625)"/>
       <path id="DejaVuSans-3" transform="scale(0.015625)"/>
       <path id="DejaVuSans-4c" d="M 603 3500 
L 1178 3500 
L 1178 0 
L 603 0 
L 603 3500 
z
M 603 4863 
L 1178 4863 
L 1178 4134 
L 603 4134 
L 603 4863 
z
" transform="scale(0.015625)"/>
       <path id="DejaVuSans-47" d="M 2906 2969 
L 2906 4863 
L 3481 4863 
L 3481 0 
L 2906 0 
L 2906 525 
Q 2725 213 2448 61 
Q 2172 -91 1784 -91 
Q 1150 -91 751 415 
Q 353 922 353 1747 
Q 353 2572 751 3078 
Q 1150 3584 1784 3584 
Q 2172 3584 2448 3432 
Q 2725 3281 2906 2969 
z
M 947 1747 
Q 947 1113 1208 752 
Q 1469 391 1925 391 
Q 2381 391 2643 752 
Q 2906 1113 2906 1747 
Q 2906 2381 2643 2742 
Q 2381 3103 1925 3103 
Q 1469 3103 1208 2742 
Q 947 2381 947 1747 
z
" transform="scale(0.015625)"/>
       <path id="DejaVuSans-58" d="M 544 1381 
L 544 3500 
L 1119 3500 
L 1119 1403 
Q 1119 906 1312 657 
Q 1506 409 1894 409 
Q 2359 409 2629 706 
Q 2900 1003 2900 1516 
L 2900 3500 
L 3475 3500 
L 3475 0 
L 2900 0 
L 2900 538 
Q 2691 219 2414 64 
Q 2138 -91 1772 -91 
Q 1169 -91 856 284 
Q 544 659 544 1381 
z
M 1991 3584 
L 1991 3584 
z
" transform="scale(0.015625)"/>
       <path id="DejaVuSans-4f" d="M 603 4863 
L 1178 4863 
L 1178 0 
L 603 0 
L 603 4863 
z
" transform="scale(0.015625)"/>
       <path id="DejaVuSans-b" d="M 1984 4856 
Q 1566 4138 1362 3434 
Q 1159 2731 1159 2009 
Q 1159 1288 1364 580 
Q 1569 -128 1984 -844 
L 1484 -844 
Q 1016 -109 783 600 
Q 550 1309 550 2009 
Q 550 2706 781 3412 
Q 1013 4119 1484 4856 
L 1984 4856 
z
" transform="scale(0.015625)"/>
       <path id="DejaVuSans-b83" d="M 3647 4306 
L 3647 3641 
Q 3363 3969 3098 4109 
Q 2834 4250 2516 4250 
Q 2025 4250 1709 3937 
Q 1394 3625 1294 3041 
L 3097 3041 
L 2925 2656 
L 1244 2656 
Q 1238 2581 1236 2509 
Q 1234 2438 1234 2328 
Q 1234 2228 1236 2156 
Q 1238 2084 1244 2009 
L 2638 2009 
L 2463 1625 
L 1294 1625 
Q 1394 1041 1709 725 
Q 2025 409 2516 409 
Q 2834 409 3098 550 
Q 3363 691 3647 1019 
L 3647 359 
Q 3369 134 3080 21 
Q 2791 -91 2491 -91 
Q 1750 -91 1267 362 
Q 784 816 659 1625 
L 0 1625 
L 172 2009 
L 606 2009 
Q 606 2081 604 2154 
Q 603 2228 603 2328 
Q 603 2438 604 2511 
Q 606 2584 606 2656 
L 0 2656 
L 172 3041 
L 659 3041 
Q 784 3844 1268 4297 
Q 1753 4750 2491 4750 
Q 2797 4750 3086 4639 
Q 3375 4528 3647 4306 
z
" transform="scale(0.015625)"/>
       <path id="DejaVuSans-12" d="M 1625 4666 
L 2156 4666 
L 531 -594 
L 0 -594 
L 1625 4666 
z
" transform="scale(0.015625)"/>
       <path id="DejaVuSans-30" d="M 628 4666 
L 1569 4666 
L 2759 1491 
L 3956 4666 
L 4897 4666 
L 4897 0 
L 4281 0 
L 4281 4097 
L 3078 897 
L 2444 897 
L 1241 4097 
L 1241 0 
L 628 0 
L 628 4666 
z
" transform="scale(0.015625)"/>
       <path id="DejaVuSans-3a" d="M 213 4666 
L 850 4666 
L 1831 722 
L 2809 4666 
L 3519 4666 
L 4500 722 
L 5478 4666 
L 6119 4666 
L 4947 0 
L 4153 0 
L 3169 4050 
L 2175 0 
L 1381 0 
L 213 4666 
z
" transform="scale(0.015625)"/>
       <path id="DejaVuSans-4b" d="M 3513 2113 
L 3513 0 
L 2938 0 
L 2938 2094 
Q 2938 2591 2744 2837 
Q 2550 3084 2163 3084 
Q 1697 3084 1428 2787 
Q 1159 2491 1159 1978 
L 1159 0 
L 581 0 
L 581 4863 
L 1159 4863 
L 1159 2956 
Q 1366 3272 1645 3428 
Q 1925 3584 2291 3584 
Q 2894 3584 3203 3211 
Q 3513 2838 3513 2113 
z
" transform="scale(0.015625)"/>
       <path id="DejaVuSans-c" d="M 513 4856 
L 1013 4856 
Q 1481 4119 1714 3412 
Q 1947 2706 1947 2009 
Q 1947 1309 1714 600 
Q 1481 -109 1013 -844 
L 513 -844 
Q 928 -128 1133 580 
Q 1338 1288 1338 2009 
Q 1338 2731 1133 3434 
Q 928 4138 513 4856 
z
" transform="scale(0.015625)"/>
      </defs>
      <use xlink:href="#DejaVuSans-49"/>
      <use xlink:href="#DejaVuSans-52" transform="translate(35.203125 0)"/>
      <use xlink:href="#DejaVuSans-55" transform="translate(96.390625 0)"/>
      <use xlink:href="#DejaVuSans-48" transform="translate(135.296875 0)"/>
      <use xlink:href="#DejaVuSans-46" transform="translate(196.828125 0)"/>
      <use xlink:href="#DejaVuSans-44" transform="translate(251.8125 0)"/>
      <use xlink:href="#DejaVuSans-56" transform="translate(313.09375 0)"/>
      <use xlink:href="#DejaVuSans-57" transform="translate(365.1875 0)"/>
      <use xlink:href="#DejaVuSans-3" transform="translate(404.390625 0)"/>
      <use xlink:href="#DejaVuSans-55" transform="translate(436.171875 0)"/>
      <use xlink:href="#DejaVuSans-48" transform="translate(475.078125 0)"/>
      <use xlink:href="#DejaVuSans-56" transform="translate(536.609375 0)"/>
      <use xlink:href="#DejaVuSans-4c" transform="translate(588.703125 0)"/>
      <use xlink:href="#DejaVuSans-47" transform="translate(616.484375 0)"/>
      <use xlink:href="#DejaVuSans-58" transform="translate(679.96875 0)"/>
      <use xlink:href="#DejaVuSans-44" transform="translate(743.34375 0)"/>
      <use xlink:href="#DejaVuSans-4f" transform="translate(804.625 0)"/>
      <use xlink:href="#DejaVuSans-3" transform="translate(832.40625 0)"/>
      <use xlink:href="#DejaVuSans-b" transform="translate(864.1875 0)"/>
      <use xlink:href="#DejaVuSans-b83" transform="translate(903.203125 0)"/>
      <use xlink:href="#DejaVuSans-12" transform="translate(966.828125 0)"/>
      <use xlink:href="#DejaVuSans-30" transform="translate(1000.515625 0)"/>
      <use xlink:href="#DejaVuSans-3a" transform="translate(1086.796875 0)"/>
      <use xlink:href="#DejaVuSans-4b" transform="translate(1185.671875 0)"/>
      <use xlink:href="#DejaVuSans-c" transform="translate(1249.046875 0)"/>
     </g>
    </g>
   </g>
   <g id="matplotlib.axis_2">
    <g id="ytick_1">
     <g id="line2d_15">
      <path d="M 56.828906 261.103406 
L 387.946563 261.103406 
" clip-path="url(#pab5c108ea7)" style="fill: none; stroke: #b0b0b0; stroke-opacity: 0.3; stroke-width: 0.8; stroke-linecap: square"/>
     </g>
     <g id="line2d_16">
      <defs>
       <path id="m2bdd01eec2" d="M 0 0 
L -3.5 0 
" style="stroke: #000000; stroke-width: 0.8"/>
      </defs>
      <g>
       <use xlink:href="#m2bdd01eec2" x="56.828906" y="261.103406" style="stroke: #000000; stroke-width: 0.8"/>
      </g>
     </g>
     <g id="text_9">
      <!-- 0.000 -->
      <g transform="translate(21.200781 264.902234) scale(0.1 -0.1)">
       <defs>
        <path id="DejaVuSans-11" d="M 684 794 
L 1344 794 
L 1344 0 
L 684 0 
L 684 794 
z
" transform="scale(0.015625)"/>
       </defs>
       <use xlink:href="#DejaVuSans-13"/>
       <use xlink:href="#DejaVuSans-11" transform="translate(63.625 0)"/>
       <use xlink:href="#DejaVuSans-13" transform="translate(95.40625 0)"/>
       <use xlink:href="#DejaVuSans-13" transform="translate(159.03125 0)"/>
       <use xlink:href="#DejaVuSans-13" transform="translate(222.65625 0)"/>
      </g>
     </g>
    </g>
    <g id="ytick_2">
     <g id="line2d_17">
      <path d="M 56.828906 231.857088 
L 387.946563 231.857088 
" clip-path="url(#pab5c108ea7)" style="fill: none; stroke: #b0b0b0; stroke-opacity: 0.3; stroke-width: 0.8; stroke-linecap: square"/>
     </g>
     <g id="line2d_18">
      <g>
       <use xlink:href="#m2bdd01eec2" x="56.828906" y="231.857088" style="stroke: #000000; stroke-width: 0.8"/>
      </g>
     </g>
     <g id="text_10">
      <!-- 0.005 -->
      <g transform="translate(21.200781 235.655917) scale(0.1 -0.1)">
       <use xlink:href="#DejaVuSans-13"/>
       <use xlink:href="#DejaVuSans-11" transform="translate(63.625 0)"/>
       <use xlink:href="#DejaVuSans-13" transform="translate(95.40625 0)"/>
       <use xlink:href="#DejaVuSans-13" transform="translate(159.03125 0)"/>
       <use xlink:href="#DejaVuSans-18" transform="translate(222.65625 0)"/>
      </g>
     </g>
    </g>
    <g id="ytick_3">
     <g id="line2d_19">
      <path d="M 56.828906 202.610771 
L 387.946563 202.610771 
" clip-path="url(#pab5c108ea7)" style="fill: none; stroke: #b0b0b0; stroke-opacity: 0.3; stroke-width: 0.8; stroke-linecap: square"/>
     </g>
     <g id="line2d_20">
      <g>
       <use xlink:href="#m2bdd01eec2" x="56.828906" y="202.610771" style="stroke: #000000; stroke-width: 0.8"/>
      </g>
     </g>
     <g id="text_11">
      <!-- 0.010 -->
      <g transform="translate(21.200781 206.409599) scale(0.1 -0.1)">
       <use xlink:href="#DejaVuSans-13"/>
       <use xlink:href="#DejaVuSans-11" transform="translate(63.625 0)"/>
       <use xlink:href="#DejaVuSans-13" transform="translate(95.40625 0)"/>
       <use xlink:href="#DejaVuSans-14" transform="translate(159.03125 0)"/>
       <use xlink:href="#DejaVuSans-13" transform="translate(222.65625 0)"/>
      </g>
     </g>
    </g>
    <g id="ytick_4">
     <g id="line2d_21">
      <path d="M 56.828906 173.364453 
L 387.946563 173.364453 
" clip-path="url(#pab5c108ea7)" style="fill: none; stroke: #b0b0b0; stroke-opacity: 0.3; stroke-width: 0.8; stroke-linecap: square"/>
     </g>
     <g id="line2d_22">
      <g>
       <use xlink:href="#m2bdd01eec2" x="56.828906" y="173.364453" style="stroke: #000000; stroke-width: 0.8"/>
      </g>
     </g>
     <g id="text_12">
      <!-- 0.015 -->
      <g transform="translate(21.200781 177.163281) scale(0.1 -0.1)">
       <use xlink:href="#DejaVuSans-13"/>
       <use xlink:href="#DejaVuSans-11" transform="translate(63.625 0)"/>
       <use xlink:href="#DejaVuSans-13" transform="translate(95.40625 0)"/>
       <use xlink:href="#DejaVuSans-14" transform="translate(159.03125 0)"/>
       <use xlink:href="#DejaVuSans-18" transform="translate(222.65625 0)"/>
      </g>
     </g>
    </g>
    <g id="ytick_5">
     <g id="line2d_23">
      <path d="M 56.828906 144.118135 
L 387.946563 144.118135 
" clip-path="url(#pab5c108ea7)" style="fill: none; stroke: #b0b0b0; stroke-opacity: 0.3; stroke-width: 0.8; stroke-linecap: square"/>
     </g>
     <g id="line2d_24">
      <g>
       <use xlink:href="#m2bdd01eec2" x="56.828906" y="144.118135" style="stroke: #000000; stroke-width: 0.8"/>
      </g>
     </g>
     <g id="text_13">
      <!-- 0.020 -->
      <g transform="translate(21.200781 147.916963) scale(0.1 -0.1)">
       <use xlink:href="#DejaVuSans-13"/>
       <use xlink:href="#DejaVuSans-11" transform="translate(63.625 0)"/>
       <use xlink:href="#DejaVuSans-13" transform="translate(95.40625 0)"/>
       <use xlink:href="#DejaVuSans-15" transform="translate(159.03125 0)"/>
       <use xlink:href="#DejaVuSans-13" transform="translate(222.65625 0)"/>
      </g>
     </g>
    </g>
    <g id="ytick_6">
     <g id="line2d_25">
      <path d="M 56.828906 114.871817 
L 387.946563 114.871817 
" clip-path="url(#pab5c108ea7)" style="fill: none; stroke: #b0b0b0; stroke-opacity: 0.3; stroke-width: 0.8; stroke-linecap: square"/>
     </g>
     <g id="line2d_26">
      <g>
       <use xlink:href="#m2bdd01eec2" x="56.828906" y="114.871817" style="stroke: #000000; stroke-width: 0.8"/>
      </g>
     </g>
     <g id="text_14">
      <!-- 0.025 -->
      <g transform="translate(21.200781 118.670645) scale(0.1 -0.1)">
       <use xlink:href="#DejaVuSans-13"/>
       <use xlink:href="#DejaVuSans-11" transform="translate(63.625 0)"/>
       <use xlink:href="#DejaVuSans-13" transform="translate(95.40625 0)"/>
       <use xlink:href="#DejaVuSans-15" transform="translate(159.03125 0)"/>
       <use xlink:href="#DejaVuSans-18" transform="translate(222.65625 0)"/>
      </g>
     </g>
    </g>
    <g id="ytick_7">
     <g id="line2d_27">
      <path d="M 56.828906 85.625499 
L 387.946563 85.625499 
" clip-path="url(#pab5c108ea7)" style="fill: none; stroke: #b0b0b0; stroke-opacity: 0.3; stroke-width: 0.8; stroke-linecap: square"/>
     </g>
     <g id="line2d_28">
      <g>
       <use xlink:href="#m2bdd01eec2" x="56.828906" y="85.625499" style="stroke: #000000; stroke-width: 0.8"/>
      </g>
     </g>
     <g id="text_15">
      <!-- 0.030 -->
      <g transform="translate(21.200781 89.424327) scale(0.1 -0.1)">
       <defs>
        <path id="DejaVuSans-16" d="M 2597 2516 
Q 3050 2419 3304 2112 
Q 3559 1806 3559 1356 
Q 3559 666 3084 287 
Q 2609 -91 1734 -91 
Q 1441 -91 1130 -33 
Q 819 25 488 141 
L 488 750 
Q 750 597 1062 519 
Q 1375 441 1716 441 
Q 2309 441 2620 675 
Q 2931 909 2931 1356 
Q 2931 1769 2642 2001 
Q 2353 2234 1838 2234 
L 1294 2234 
L 1294 2753 
L 1863 2753 
Q 2328 2753 2575 2939 
Q 2822 3125 2822 3475 
Q 2822 3834 2567 4026 
Q 2313 4219 1838 4219 
Q 1578 4219 1281 4162 
Q 984 4106 628 3988 
L 628 4550 
Q 988 4650 1302 4700 
Q 1616 4750 1894 4750 
Q 2613 4750 3031 4423 
Q 3450 4097 3450 3541 
Q 3450 3153 3228 2886 
Q 3006 2619 2597 2516 
z
" transform="scale(0.015625)"/>
       </defs>
       <use xlink:href="#DejaVuSans-13"/>
       <use xlink:href="#DejaVuSans-11" transform="translate(63.625 0)"/>
       <use xlink:href="#DejaVuSans-13" transform="translate(95.40625 0)"/>
       <use xlink:href="#DejaVuSans-16" transform="translate(159.03125 0)"/>
       <use xlink:href="#DejaVuSans-13" transform="translate(222.65625 0)"/>
      </g>
     </g>
    </g>
    <g id="text_16">
     <!-- density -->
     <g transform="translate(14.798438 182.102039) rotate(-90) scale(0.1 -0.1)">
      <defs>
       <path id="DejaVuSans-51" d="M 3513 2113 
L 3513 0 
L 2938 0 
L 2938 2094 
Q 2938 2591 2744 2837 
Q 2550 3084 2163 3084 
Q 1697 3084 1428 2787 
Q 1159 2491 1159 1978 
L 1159 0 
L 581 0 
L 581 3500 
L 1159 3500 
L 1159 2956 
Q 1366 3272 1645 3428 
Q 1925 3584 2291 3584 
Q 2894 3584 3203 3211 
Q 3513 2838 3513 2113 
z
" transform="scale(0.015625)"/>
       <path id="DejaVuSans-5c" d="M 2059 -325 
Q 1816 -950 1584 -1140 
Q 1353 -1331 966 -1331 
L 506 -1331 
L 506 -850 
L 844 -850 
Q 1081 -850 1212 -737 
Q 1344 -625 1503 -206 
L 1606 56 
L 191 3500 
L 800 3500 
L 1894 763 
L 2988 3500 
L 3597 3500 
L 2059 -325 
z
" transform="scale(0.015625)"/>
      </defs>
      <use xlink:href="#DejaVuSans-47"/>
      <use xlink:href="#DejaVuSans-48" transform="translate(63.484375 0)"/>
      <use xlink:href="#DejaVuSans-51" transform="translate(125.015625 0)"/>
      <use xlink:href="#DejaVuSans-56" transform="translate(188.390625 0)"/>
      <use xlink:href="#DejaVuSans-4c" transform="translate(240.484375 0)"/>
      <use xlink:href="#DejaVuSans-57" transform="translate(268.265625 0)"/>
      <use xlink:href="#DejaVuSans-5c" transform="translate(307.46875 0)"/>
     </g>
    </g>
   </g>
   <g id="line2d_29">
    <path d="M 153.212364 261.103406 
L 153.212364 66.435047 
" clip-path="url(#pab5c108ea7)" style="fill: none; stroke-dasharray: 5.55,2.4; stroke-dashoffset: 0; stroke: #d03b3b; stroke-width: 1.5"/>
   </g>
   <g id="line2d_30">
    <path d="M 153.212364 210.079508 
L 154.316301 221.820243 
L 155.420238 230.349643 
L 156.524174 236.670417 
L 157.628111 241.437344 
L 158.732048 245.088914 
L 159.835984 247.925415 
L 160.939921 250.156645 
L 162.043858 251.931838 
L 163.147794 253.358889 
L 164.251731 254.516964 
L 165.355668 255.464936 
L 167.563541 256.89732 
L 169.771414 257.899762 
L 171.979288 258.618798 
L 175.291098 259.356367 
L 178.602908 259.837992 
L 183.018654 260.248106 
L 189.642274 260.59561 
L 199.577704 260.843348 
L 216.136754 260.998408 
L 254.774537 261.080728 
L 372.89576 261.101837 
L 372.89576 261.101837 
" clip-path="url(#pab5c108ea7)" style="fill: none; stroke: #2a78d6; stroke-width: 2; stroke-linecap: square"/>
   </g>
   <g id="patch_43">
    <path d="M 56.828906 261.103406 
L 56.828906 66.435047 
" style="fill: none; stroke: #000000; stroke-width: 0.8; stroke-linejoin: miter; stroke-linecap: square"/>
   </g>
   <g id="patch_44">
    <path d="M 387.946563 261.103406 
L 387.946563 66.435047 
" style="fill: none; stroke: #000000; stroke-width: 0.8; stroke-linejoin: miter; stroke-linecap: square"/>
   </g>
   <g id="patch_45">
    <path d="M 56.828906 261.103406 
L 387.946563 261.103406 
" style="fill: none; stroke: #000000; stroke-width: 0.8; stroke-linejoin: miter; stroke-linecap: square"/>
   </g>
   <g id="patch_46">
    <path d="M 56.828906 66.435047 
L 387.946563 66.435047 
" style="fill: none; stroke: #000000; stroke-width: 0.8; stroke-linejoin: miter; stroke-linecap: square"/>
   </g>
   <g id="text_17">
    <!-- Empirical body + GPD tail over the threshold -->
    <g transform="translate(87.549922 60.435047) scale(0.12 -0.12)">
     <defs>
      <path id="DejaVuSans-28" d="M 628 4666 
L 3578 4666 
L 3578 4134 
L 1259 4134 
L 1259 2753 
L 3481 2753 
L 3481 2222 
L 1259 2222 
L 1259 531 
L 3634 531 
L 3634 0 
L 628 0 
L 628 4666 
z
" transform="scale(0.015625)"/>
      <path id="DejaVuSans-50" d="M 3328 2828 
Q 3544 3216 3844 3400 
Q 4144 3584 4550 3584 
Q 5097 3584 5394 3201 
Q 5691 2819 5691 2113 
L 5691 0 
L 5113 0 
L 5113 2094 
Q 5113 2597 4934 2840 
Q 4756 3084 4391 3084 
Q 3944 3084 3684 2787 
Q 3425 2491 3425 1978 
L 3425 0 
L 2847 0 
L 2847 2094 
Q 2847 2600 2669 2842 
Q 2491 3084 2119 3084 
Q 1678 3084 1418 2786 
Q 1159 2488 1159 1978 
L 1159 0 
L 581 0 
L 581 3500 
L 1159 3500 
L 1159 2956 
Q 1356 3278 1631 3431 
Q 1906 3584 2284 3584 
Q 2666 3584 2933 3390 
Q 3200 3197 3328 2828 
z
" transform="scale(0.015625)"/>
      <path id="DejaVuSans-53" d="M 1159 525 
L 1159 -1331 
L 581 -1331 
L 581 3500 
L 1159 3500 
L 1159 2969 
Q 1341 3281 1617 3432 
Q 1894 3584 2278 3584 
Q 2916 3584 3314 3078 
Q 3713 2572 3713 1747 
Q 3713 922 3314 415 
Q 2916 -91 2278 -91 
Q 1894 -91 1617 61 
Q 1341 213 1159 525 
z
M 3116 1747 
Q 3116 2381 2855 2742 
Q 2594 3103 2138 3103 
Q 1681 3103 1420 2742 
Q 1159 2381 1159 1747 
Q 1159 1113 1420 752 
Q 1681 391 2138 391 
Q 2594 391 2855 752 
Q 3116 1113 3116 1747 
z
" transform="scale(0.015625)"/>
      <path id="DejaVuSans-45" d="M 3116 1747 
Q 3116 2381 2855 2742 
Q 2594 3103 2138 3103 
Q 1681 3103 1420 2742 
Q 1159 2381 1159 1747 
Q 1159 1113 1420 752 
Q 1681 391 2138 391 
Q 2594 391 2855 752 
Q 3116 1113 3116 1747 
z
M 1159 2969 
Q 1341 3281 1617 3432 
Q 1894 3584 2278 3584 
Q 2916 3584 3314 3078 
Q 3713 2572 3713 1747 
Q 3713 922 3314 415 
Q 2916 -91 2278 -91 
Q 1894 -91 1617 61 
Q 1341 213 1159 525 
L 1159 0 
L 581 0 
L 581 4863 
L 1159 4863 
L 1159 2969 
z
" transform="scale(0.015625)"/>
      <path id="DejaVuSans-e" d="M 2944 4013 
L 2944 2272 
L 4684 2272 
L 4684 1741 
L 2944 1741 
L 2944 0 
L 2419 0 
L 2419 1741 
L 678 1741 
L 678 2272 
L 2419 2272 
L 2419 4013 
L 2944 4013 
z
" transform="scale(0.015625)"/>
      <path id="DejaVuSans-2a" d="M 3809 666 
L 3809 1919 
L 2778 1919 
L 2778 2438 
L 4434 2438 
L 4434 434 
Q 4069 175 3628 42 
Q 3188 -91 2688 -91 
Q 1594 -91 976 548 
Q 359 1188 359 2328 
Q 359 3472 976 4111 
Q 1594 4750 2688 4750 
Q 3144 4750 3555 4637 
Q 3966 4525 4313 4306 
L 4313 3634 
Q 3963 3931 3569 4081 
Q 3175 4231 2741 4231 
Q 1884 4231 1454 3753 
Q 1025 3275 1025 2328 
Q 1025 1384 1454 906 
Q 1884 428 2741 428 
Q 3075 428 3337 486 
Q 3600 544 3809 666 
z
" transform="scale(0.015625)"/>
      <path id="DejaVuSans-33" d="M 1259 4147 
L 1259 2394 
L 2053 2394 
Q 2494 2394 2734 2622 
Q 2975 2850 2975 3272 
Q 2975 3691 2734 3919 
Q 2494 4147 2053 4147 
L 1259 4147 
z
M 628 4666 
L 2053 4666 
Q 2838 4666 3239 4311 
Q 3641 3956 3641 3272 
Q 3641 2581 3239 2228 
Q 2838 1875 2053 1875 
L 1259 1875 
L 1259 0 
L 628 0 
L 628 4666 
z
" transform="scale(0.015625)"/>
      <path id="DejaVuSans-27" d="M 1259 4147 
L 1259 519 
L 2022 519 
Q 2988 519 3436 956 
Q 3884 1394 3884 2338 
Q 3884 3275 3436 3711 
Q 2988 4147 2022 4147 
L 1259 4147 
z
M 628 4666 
L 1925 4666 
Q 3281 4666 3915 4102 
Q 4550 3538 4550 2338 
Q 4550 1131 3912 565 
Q 3275 0 1925 0 
L 628 0 
L 628 4666 
z
" transform="scale(0.015625)"/>
      <path id="DejaVuSans-59" d="M 191 3500 
L 800 3500 
L 1894 563 
L 2988 3500 
L 3597 3500 
L 2284 0 
L 1503 0 
L 191 3500 
z
" transform="scale(0.015625)"/>
     </defs>
     <use xlink:href="#DejaVuSans-28"/>
     <use xlink:href="#DejaVuSans-50" transform="translate(63.1875 0)"/>
     <use xlink:href="#DejaVuSans-53" transform="translate(160.59375 0)"/>
     <use xlink:href="#DejaVuSans-4c" transform="translate(224.078125 0)"/>
     <use xlink:href="#DejaVuSans-55" transform="translate(251.859375 0)"/>
     <use xlink:href="#DejaVuSans-4c" transform="translate(292.96875 0)"/>
     <use xlink:href="#DejaVuSans-46" transform="translate(320.75 0)"/>
     <use xlink:href="#DejaVuSans-44" transform="translate(375.734375 0)"/>
     <use xlink:href="#DejaVuSans-4f" transform="translate(437.015625 0)"/>
     <use xlink:href="#DejaVuSans-3" transform="translate(464.796875 0)"/>
     <use xlink:href="#DejaVuSans-45" transform="translate(496.578125 0)"/>
     <use xlink:href="#DejaVuSans-52" transform="translate(560.0625 0)"/>
     <use xlink:href="#DejaVuSans-47" transform="translate(621.25 0)"/>
     <use xlink:href="#DejaVuSans-5c" transform="translate(684.734375 0)"/>
     <use xlink:href="#DejaVuSans-3" transform="translate(743.921875 0)"/>
     <use xlink:href="#DejaVuSans-e" transform="translate(775.703125 0)"/>
     <use xlink:href="#DejaVuSans-3" transform="translate(859.5 0)"/>
     <use xlink:href="#DejaVuSans-2a" transform="translate(891.28125 0)"/>
     <use xlink:href="#DejaVuSans-33" transform="translate(968.765625 0)"/>
     <use xlink:href="#DejaVuSans-27" transform="translate(1029.0625 0)"/>
     <use xlink:href="#DejaVuSans-3" transform="translate(1106.0625 0)"/>
     <use xlink:href="#DejaVuSans-57" transform="translate(1137.84375 0)"/>
     <use xlink:href="#DejaVuSans-44" transform="translate(1177.046875 0)"/>
     <use xlink:href="#DejaVuSans-4c" transform="translate(1238.328125 0)"/>
     <use xlink:href="#DejaVuSans-4f" transform="translate(1266.109375 0)"/>
     <use xlink:href="#DejaVuSans-3" transform="translate(1293.890625 0)"/>
     <use xlink:href="#DejaVuSans-52" transform="translate(1325.671875 0)"/>
     <use xlink:href="#DejaVuSans-59" transform="translate(1386.859375 0)"/>
     <use xlink:href="#DejaVuSans-48" transform="translate(1446.046875 0)"/>
     <use xlink:href="#DejaVuSans-55" transform="translate(1507.578125 0)"/>
     <use xlink:href="#DejaVuSans-3" transform="translate(1548.6875 0)"/>
     <use xlink:href="#DejaVuSans-57" transform="translate(1580.46875 0)"/>
     <use xlink:href="#DejaVuSans-4b" transform="translate(1619.671875 0)"/>
     <use xlink:href="#DejaVuSans-48" transform="translate(1683.046875 0)"/>
     <use xlink:href="#DejaVuSans-3" transform="translate(1744.578125 0)"/>
     <use xlink:href="#DejaVuSans-57" transform="translate(1776.359375 0)"/>
     <use xlink:href="#DejaVuSans-4b" transform="translate(1815.5625 0)"/>
     <use xlink:href="#DejaVuSans-55" transform="translate(1878.9375 0)"/>
     <use xlink:href="#DejaVuSans-48" transform="translate(1917.84375 0)"/>
     <use xlink:href="#DejaVuSans-56" transform="translate(1979.375 0)"/>
     <use xlink:href="#DejaVuSans-4b" transform="translate(2031.46875 0)"/>
     <use xlink:href="#DejaVuSans-52" transform="translate(2094.84375 0)"/>
     <use xlink:href="#DejaVuSans-4f" transform="translate(2156.03125 0)"/>
     <use xlink:href="#DejaVuSans-47" transform="translate(2183.8125 0)"/>
    </g>
   </g>
   <g id="legend_1">
    <g id="patch_47">
     <path d="M 289.490313 108.836922 
L 382.346563 108.836922 
Q 383.946563 108.836922 383.946563 107.236922 
L 383.946563 72.035047 
Q 383.946563 70.435047 382.346563 70.435047 
L 289.490313 70.435047 
Q 287.890313 70.435047 287.890313 72.035047 
L 287.890313 107.236922 
Q 287.890313 108.836922 289.490313 108.836922 
z
" style="fill: #ffffff; opacity: 0.9; stroke: #cccccc; stroke-linejoin: miter"/>
    </g>
    <g id="patch_48">
     <path d="M 291.090313 79.713797 
L 307.090313 79.713797 
L 307.090313 74.113797 
L 291.090313 74.113797 
z
" style="fill: #898781; opacity: 0.6"/>
    </g>
    <g id="text_18">
     <!-- residuals -->
     <g transform="translate(313.490313 79.713797) scale(0.08 -0.08)">
      <use xlink:href="#DejaVuSans-55"/>
      <use xlink:href="#DejaVuSans-48" transform="translate(38.90625 0)"/>
      <use xlink:href="#DejaVuSans-56" transform="translate(100.4375 0)"/>
      <use xlink:href="#DejaVuSans-4c" transform="translate(152.53125 0)"/>
      <use xlink:href="#DejaVuSans-47" transform="translate(180.3125 0)"/>
      <use xlink:href="#DejaVuSans-58" transform="translate(243.796875 0)"/>
      <use xlink:href="#DejaVuSans-44" transform="translate(307.171875 0)"/>
      <use xlink:href="#DejaVuSans-4f" transform="translate(368.453125 0)"/>
      <use xlink:href="#DejaVuSans-56" transform="translate(396.234375 0)"/>
     </g>
    </g>
    <g id="line2d_31">
     <path d="M 291.090313 88.914422 
L 299.090313 88.914422 
L 307.090313 88.914422 
" style="fill: none; stroke-dasharray: 5.55,2.4; stroke-dashoffset: 0; stroke: #d03b3b; stroke-width: 1.5"/>
    </g>
    <g id="text_19">
     <!-- threshold u = 21 -->
     <g transform="translate(313.490313 91.714422) scale(0.08 -0.08)">
      <defs>
       <path id="DejaVuSans-20" d="M 678 2906 
L 4684 2906 
L 4684 2381 
L 678 2381 
L 678 2906 
z
M 678 1631 
L 4684 1631 
L 4684 1100 
L 678 1100 
L 678 1631 
z
" transform="scale(0.015625)"/>
      </defs>
      <use xlink:href="#DejaVuSans-57"/>
      <use xlink:href="#DejaVuSans-4b" transform="translate(39.203125 0)"/>
      <use xlink:href="#DejaVuSans-55" transform="translate(102.578125 0)"/>
      <use xlink:href="#DejaVuSans-48" transform="translate(141.484375 0)"/>
      <use xlink:href="#DejaVuSans-56" transform="translate(203.015625 0)"/>
      <use xlink:href="#DejaVuSans-4b" transform="translate(255.109375 0)"/>
      <use xlink:href="#DejaVuSans-52" transform="translate(318.484375 0)"/>
      <use xlink:href="#DejaVuSans-4f" transform="translate(379.671875 0)"/>
      <use xlink:href="#DejaVuSans-47" transform="translate(407.453125 0)"/>
      <use xlink:href="#DejaVuSans-3" transform="translate(470.9375 0)"/>
      <use xlink:href="#DejaVuSans-58" transform="translate(502.71875 0)"/>
      <use xlink:href="#DejaVuSans-3" transform="translate(566.09375 0)"/>
      <use xlink:href="#DejaVuSans-20" transform="translate(597.875 0)"/>
      <use xlink:href="#DejaVuSans-3" transform="translate(681.671875 0)"/>
      <use xlink:href="#DejaVuSans-15" transform="translate(713.453125 0)"/>
      <use xlink:href="#DejaVuSans-14" transform="translate(777.078125 0)"/>
     </g>
    </g>
    <g id="line2d_32">
     <path d="M 291.090313 100.915047 
L 299.090313 100.915047 
L 307.090313 100.915047 
" style="fill: none; stroke: #2a78d6; stroke-width: 2; stroke-linecap: square"/>
    </g>
    <g id="text_20">
     <!-- fitted GPD tail -->
     <g transform="translate(313.490313 103.715047) scale(0.08 -0.08)">
      <defs>
       <path id="DejaVuSans-13af" d="M 3431 3500 
L 3431 0 
L 2853 0 
L 2853 3053 
L 1275 3053 
L 1275 0 
L 697 0 
L 697 3053 
L 147 3053 
L 147 3500 
L 697 3500 
L 697 3744 
Q 697 4316 967 4589 
Q 1238 4863 1797 4863 
L 2375 4863 
L 2375 4384 
L 1825 4384 
Q 1516 4384 1395 4259 
Q 1275 4134 1275 3809 
L 1275 3500 
L 3431 3500 
z
M 2853 4856 
L 3431 4856 
L 3431 4128 
L 2853 4128 
L 2853 4856 
z
" transform="scale(0.015625)"/>
      </defs>
      <use xlink:href="#DejaVuSans-13af"/>
      <use xlink:href="#DejaVuSans-57" transform="translate(62.984375 0)"/>
      <use xlink:href="#DejaVuSans-57" transform="translate(102.1875 0)"/>
      <use xlink:href="#DejaVuSans-48" transform="translate(141.390625 0)"/>
      <use xlink:href="#DejaVuSans-47" transform="translate(202.921875 0)"/>
      <use xlink:href="#DejaVuSans-3" transform="translate(266.40625 0)"/>
      <use xlink:href="#DejaVuSans-2a" transform="translate(298.1875 0)"/>
      <use xlink:href="#DejaVuSans-33" transform="translate(375.671875 0)"/>
      <use xlink:href="#DejaVuSans-27" transform="translate(435.96875 0)"/>
      <use xlink:href="#DejaVuSans-3" transform="translate(512.96875 0)"/>
      <use xlink:href="#DejaVuSans-57" transform="translate(544.75 0)"/>
      <use xlink:href="#DejaVuSans-44" transform="translate(583.953125 0)"/>
      <use xlink:href="#DejaVuSans-4c" transform="translate(645.234375 0)"/>
      <use xlink:href="#DejaVuSans-4f" transform="translate(673.015625 0)"/>
     </g>
    </g>
   </g>
  </g>
  <g id="axes_2">
   <g id="patch_49">
    <path d="M 445.988906 261.103406 
L 777.106562 261.103406 
L 777.106562 66.435047 
L 445.988906 66.435047 
z
" style="fill: #ffffff"/>
   </g>
   <g id="patch_50">
    <path d="M 461.039709 261.103406 
L 594.82462 261.103406 
L 594.82462 224.722586 
L 461.039709 224.722586 
z
" clip-path="url(#pc9be87ce52)" style="fill: #898781"/>
   </g>
   <g id="patch_51">
    <path d="M 628.270848 261.103406 
L 762.05576 261.103406 
L 762.05576 75.704969 
L 628.270848 75.704969 
z
" clip-path="url(#pc9be87ce52)" style="fill: #2a78d6"/>
   </g>
   <g id="matplotlib.axis_3">
    <g id="xtick_8">
     <g id="line2d_33">
      <g>
       <use xlink:href="#m091fff3e86" x="527.932165" y="261.103406" style="stroke: #000000; stroke-width: 0.8"/>
      </g>
     </g>
     <g id="text_21">
      <!-- plain -->
      <g transform="translate(515.747008 276.70282) scale(0.1 -0.1)">
       <use xlink:href="#DejaVuSans-53"/>
       <use xlink:href="#DejaVuSans-4f" transform="translate(63.484375 0)"/>
       <use xlink:href="#DejaVuSans-44" transform="translate(91.265625 0)"/>
       <use xlink:href="#DejaVuSans-4c" transform="translate(152.546875 0)"/>
       <use xlink:href="#DejaVuSans-51" transform="translate(180.328125 0)"/>
      </g>
      <!-- bootstrap -->
      <g transform="translate(503.820446 288.705555) scale(0.1 -0.1)">
       <use xlink:href="#DejaVuSans-45"/>
       <use xlink:href="#DejaVuSans-52" transform="translate(63.484375 0)"/>
       <use xlink:href="#DejaVuSans-52" transform="translate(124.671875 0)"/>
       <use xlink:href="#DejaVuSans-57" transform="translate(185.859375 0)"/>
       <use xlink:href="#DejaVuSans-56" transform="translate(225.0625 0)"/>
       <use xlink:href="#DejaVuSans-57" transform="translate(277.15625 0)"/>
       <use xlink:href="#DejaVuSans-55" transform="translate(316.359375 0)"/>
       <use xlink:href="#DejaVuSans-44" transform="translate(357.46875 0)"/>
       <use xlink:href="#DejaVuSans-53" transform="translate(418.75 0)"/>
      </g>
     </g>
    </g>
    <g id="xtick_9">
     <g id="line2d_34">
      <g>
       <use xlink:href="#m091fff3e86" x="695.163304" y="261.103406" style="stroke: #000000; stroke-width: 0.8"/>
      </g>
     </g>
     <g id="text_22">
      <!-- + GPD -->
      <g transform="translate(678.645335 276.702039) scale(0.1 -0.1)">
       <use xlink:href="#DejaVuSans-e"/>
       <use xlink:href="#DejaVuSans-3" transform="translate(83.796875 0)"/>
       <use xlink:href="#DejaVuSans-2a" transform="translate(115.578125 0)"/>
       <use xlink:href="#DejaVuSans-33" transform="translate(193.0625 0)"/>
       <use xlink:href="#DejaVuSans-27" transform="translate(253.359375 0)"/>
      </g>
      <!-- tail -->
      <g transform="translate(687.36096 288.704773) scale(0.1 -0.1)">
       <use xlink:href="#DejaVuSans-57"/>
       <use xlink:href="#DejaVuSans-44" transform="translate(39.203125 0)"/>
       <use xlink:href="#DejaVuSans-4c" transform="translate(100.484375 0)"/>
       <use xlink:href="#DejaVuSans-4f" transform="translate(128.265625 0)"/>
      </g>
     </g>
    </g>
   </g>
   <g id="matplotlib.axis_4">
    <g id="ytick_8">
     <g id="line2d_35">
      <path d="M 445.988906 261.103406 
L 777.106562 261.103406 
" clip-path="url(#pc9be87ce52)" style="fill: none; stroke: #b0b0b0; stroke-opacity: 0.3; stroke-width: 0.8; stroke-linecap: square"/>
     </g>
     <g id="line2d_36">
      <g>
       <use xlink:href="#m2bdd01eec2" x="445.988906" y="261.103406" style="stroke: #000000; stroke-width: 0.8"/>
      </g>
     </g>
     <g id="text_23">
      <!-- 0 -->
      <g transform="translate(432.626406 264.902234) scale(0.1 -0.1)">
       <use xlink:href="#DejaVuSans-13"/>
      </g>
     </g>
    </g>
    <g id="ytick_9">
     <g id="line2d_37">
      <path d="M 445.988906 235.642098 
L 777.106562 235.642098 
" clip-path="url(#pc9be87ce52)" style="fill: none; stroke: #b0b0b0; stroke-opacity: 0.3; stroke-width: 0.8; stroke-linecap: square"/>
     </g>
     <g id="line2d_38">
      <g>
       <use xlink:href="#m2bdd01eec2" x="445.988906" y="235.642098" style="stroke: #000000; stroke-width: 0.8"/>
      </g>
     </g>
     <g id="text_24">
      <!-- 200 -->
      <g transform="translate(419.901406 239.440926) scale(0.1 -0.1)">
       <use xlink:href="#DejaVuSans-15"/>
       <use xlink:href="#DejaVuSans-13" transform="translate(63.625 0)"/>
       <use xlink:href="#DejaVuSans-13" transform="translate(127.25 0)"/>
      </g>
     </g>
    </g>
    <g id="ytick_10">
     <g id="line2d_39">
      <path d="M 445.988906 210.180789 
L 777.106562 210.180789 
" clip-path="url(#pc9be87ce52)" style="fill: none; stroke: #b0b0b0; stroke-opacity: 0.3; stroke-width: 0.8; stroke-linecap: square"/>
     </g>
     <g id="line2d_40">
      <g>
       <use xlink:href="#m2bdd01eec2" x="445.988906" y="210.180789" style="stroke: #000000; stroke-width: 0.8"/>
      </g>
     </g>
     <g id="text_25">
      <!-- 400 -->
      <g transform="translate(419.901406 213.979617) scale(0.1 -0.1)">
       <defs>
        <path id="DejaVuSans-17" d="M 2419 4116 
L 825 1625 
L 2419 1625 
L 2419 4116 
z
M 2253 4666 
L 3047 4666 
L 3047 1625 
L 3713 1625 
L 3713 1100 
L 3047 1100 
L 3047 0 
L 2419 0 
L 2419 1100 
L 313 1100 
L 313 1709 
L 2253 4666 
z
" transform="scale(0.015625)"/>
       </defs>
       <use xlink:href="#DejaVuSans-17"/>
       <use xlink:href="#DejaVuSans-13" transform="translate(63.625 0)"/>
       <use xlink:href="#DejaVuSans-13" transform="translate(127.25 0)"/>
      </g>
     </g>
    </g>
    <g id="ytick_11">
     <g id="line2d_41">
      <path d="M 445.988906 184.719481 
L 777.106562 184.719481 
" clip-path="url(#pc9be87ce52)" style="fill: none; stroke: #b0b0b0; stroke-opacity: 0.3; stroke-width: 0.8; stroke-linecap: square"/>
     </g>
     <g id="line2d_42">
      <g>
       <use xlink:href="#m2bdd01eec2" x="445.988906" y="184.719481" style="stroke: #000000; stroke-width: 0.8"/>
      </g>
     </g>
     <g id="text_26">
      <!-- 600 -->
      <g transform="translate(419.901406 188.518309) scale(0.1 -0.1)">
       <defs>
        <path id="DejaVuSans-19" d="M 2113 2584 
Q 1688 2584 1439 2293 
Q 1191 2003 1191 1497 
Q 1191 994 1439 701 
Q 1688 409 2113 409 
Q 2538 409 2786 701 
Q 3034 994 3034 1497 
Q 3034 2003 2786 2293 
Q 2538 2584 2113 2584 
z
M 3366 4563 
L 3366 3988 
Q 3128 4100 2886 4159 
Q 2644 4219 2406 4219 
Q 1781 4219 1451 3797 
Q 1122 3375 1075 2522 
Q 1259 2794 1537 2939 
Q 1816 3084 2150 3084 
Q 2853 3084 3261 2657 
Q 3669 2231 3669 1497 
Q 3669 778 3244 343 
Q 2819 -91 2113 -91 
Q 1303 -91 875 529 
Q 447 1150 447 2328 
Q 447 3434 972 4092 
Q 1497 4750 2381 4750 
Q 2619 4750 2861 4703 
Q 3103 4656 3366 4563 
z
" transform="scale(0.015625)"/>
       </defs>
       <use xlink:href="#DejaVuSans-19"/>
       <use xlink:href="#DejaVuSans-13" transform="translate(63.625 0)"/>
       <use xlink:href="#DejaVuSans-13" transform="translate(127.25 0)"/>
      </g>
     </g>
    </g>
    <g id="ytick_12">
     <g id="line2d_43">
      <path d="M 445.988906 159.258172 
L 777.106562 159.258172 
" clip-path="url(#pc9be87ce52)" style="fill: none; stroke: #b0b0b0; stroke-opacity: 0.3; stroke-width: 0.8; stroke-linecap: square"/>
     </g>
     <g id="line2d_44">
      <g>
       <use xlink:href="#m2bdd01eec2" x="445.988906" y="159.258172" style="stroke: #000000; stroke-width: 0.8"/>
      </g>
     </g>
     <g id="text_27">
      <!-- 800 -->
      <g transform="translate(419.901406 163.057001) scale(0.1 -0.1)">
       <defs>
        <path id="DejaVuSans-1b" d="M 2034 2216 
Q 1584 2216 1326 1975 
Q 1069 1734 1069 1313 
Q 1069 891 1326 650 
Q 1584 409 2034 409 
Q 2484 409 2743 651 
Q 3003 894 3003 1313 
Q 3003 1734 2745 1975 
Q 2488 2216 2034 2216 
z
M 1403 2484 
Q 997 2584 770 2862 
Q 544 3141 544 3541 
Q 544 4100 942 4425 
Q 1341 4750 2034 4750 
Q 2731 4750 3128 4425 
Q 3525 4100 3525 3541 
Q 3525 3141 3298 2862 
Q 3072 2584 2669 2484 
Q 3125 2378 3379 2068 
Q 3634 1759 3634 1313 
Q 3634 634 3220 271 
Q 2806 -91 2034 -91 
Q 1263 -91 848 271 
Q 434 634 434 1313 
Q 434 1759 690 2068 
Q 947 2378 1403 2484 
z
M 1172 3481 
Q 1172 3119 1398 2916 
Q 1625 2713 2034 2713 
Q 2441 2713 2670 2916 
Q 2900 3119 2900 3481 
Q 2900 3844 2670 4047 
Q 2441 4250 2034 4250 
Q 1625 4250 1398 4047 
Q 1172 3844 1172 3481 
z
" transform="scale(0.015625)"/>
       </defs>
       <use xlink:href="#DejaVuSans-1b"/>
       <use xlink:href="#DejaVuSans-13" transform="translate(63.625 0)"/>
       <use xlink:href="#DejaVuSans-13" transform="translate(127.25 0)"/>
      </g>
     </g>
    </g>
    <g id="ytick_13">
     <g id="line2d_45">
      <path d="M 445.988906 133.796864 
L 777.106562 133.796864 
" clip-path="url(#pc9be87ce52)" style="fill: none; stroke: #b0b0b0; stroke-opacity: 0.3; stroke-width: 0.8; stroke-linecap: square"/>
     </g>
     <g id="line2d_46">
      <g>
       <use xlink:href="#m2bdd01eec2" x="445.988906" y="133.796864" style="stroke: #000000; stroke-width: 0.8"/>
      </g>
     </g>
     <g id="text_28">
      <!-- 1000 -->
      <g transform="translate(413.538906 137.595692) scale(0.1 -0.1)">
       <use xlink:href="#DejaVuSans-14"/>
       <use xlink:href="#DejaVuSans-13" transform="translate(63.625 0)"/>
       <use xlink:href="#DejaVuSans-13" transform="translate(127.25 0)"/>
       <use xlink:href="#DejaVuSans-13" transform="translate(190.875 0)"/>
      </g>
     </g>
    </g>
    <g id="ytick_14">
     <g id="line2d_47">
      <path d="M 445.988906 108.335555 
L 777.106562 108.335555 
" clip-path="url(#pc9be87ce52)" style="fill: none; stroke: #b0b0b0; stroke-opacity: 0.3; stroke-width: 0.8; stroke-linecap: square"/>
     </g>
     <g id="line2d_48">
      <g>
       <use xlink:href="#m2bdd01eec2" x="445.988906" y="108.335555" style="stroke: #000000; stroke-width: 0.8"/>
      </g>
     </g>
     <g id="text_29">
      <!-- 1200 -->
      <g transform="translate(413.538906 112.134384) scale(0.1 -0.1)">
       <use xlink:href="#DejaVuSans-14"/>
       <use xlink:href="#DejaVuSans-15" transform="translate(63.625 0)"/>
       <use xlink:href="#DejaVuSans-13" transform="translate(127.25 0)"/>
       <use xlink:href="#DejaVuSans-13" transform="translate(190.875 0)"/>
      </g>
     </g>
    </g>
    <g id="ytick_15">
     <g id="line2d_49">
      <path d="M 445.988906 82.874247 
L 777.106562 82.874247 
" clip-path="url(#pc9be87ce52)" style="fill: none; stroke: #b0b0b0; stroke-opacity: 0.3; stroke-width: 0.8; stroke-linecap: square"/>
     </g>
     <g id="line2d_50">
      <g>
       <use xlink:href="#m2bdd01eec2" x="445.988906" y="82.874247" style="stroke: #000000; stroke-width: 0.8"/>
      </g>
     </g>
     <g id="text_30">
      <!-- 1400 -->
      <g transform="translate(413.538906 86.673075) scale(0.1 -0.1)">
       <use xlink:href="#DejaVuSans-14"/>
       <use xlink:href="#DejaVuSans-17" transform="translate(63.625 0)"/>
       <use xlink:href="#DejaVuSans-13" transform="translate(127.25 0)"/>
       <use xlink:href="#DejaVuSans-13" transform="translate(190.875 0)"/>
      </g>
     </g>
    </g>
    <g id="text_31">
     <!-- highest priceable spike (€/MWh) -->
     <g transform="translate(407.136563 244.382508) rotate(-90) scale(0.1 -0.1)">
      <defs>
       <path id="DejaVuSans-4a" d="M 2906 1791 
Q 2906 2416 2648 2759 
Q 2391 3103 1925 3103 
Q 1463 3103 1205 2759 
Q 947 2416 947 1791 
Q 947 1169 1205 825 
Q 1463 481 1925 481 
Q 2391 481 2648 825 
Q 2906 1169 2906 1791 
z
M 3481 434 
Q 3481 -459 3084 -895 
Q 2688 -1331 1869 -1331 
Q 1566 -1331 1297 -1286 
Q 1028 -1241 775 -1147 
L 775 -588 
Q 1028 -725 1275 -790 
Q 1522 -856 1778 -856 
Q 2344 -856 2625 -561 
Q 2906 -266 2906 331 
L 2906 616 
Q 2728 306 2450 153 
Q 2172 0 1784 0 
Q 1141 0 747 490 
Q 353 981 353 1791 
Q 353 2603 747 3093 
Q 1141 3584 1784 3584 
Q 2172 3584 2450 3431 
Q 2728 3278 2906 2969 
L 2906 3500 
L 3481 3500 
L 3481 434 
z
" transform="scale(0.015625)"/>
       <path id="DejaVuSans-4e" d="M 581 4863 
L 1159 4863 
L 1159 1991 
L 2875 3500 
L 3609 3500 
L 1753 1863 
L 3688 0 
L 2938 0 
L 1159 1709 
L 1159 0 
L 581 0 
L 581 4863 
z
" transform="scale(0.015625)"/>
      </defs>
      <use xlink:href="#DejaVuSans-4b"/>
      <use xlink:href="#DejaVuSans-4c" transform="translate(63.375 0)"/>
      <use xlink:href="#DejaVuSans-4a" transform="translate(91.15625 0)"/>
      <use xlink:href="#DejaVuSans-4b" transform="translate(154.640625 0)"/>
      <use xlink:href="#DejaVuSans-48" transform="translate(218.015625 0)"/>
      <use xlink:href="#DejaVuSans-56" transform="translate(279.546875 0)"/>
      <use xlink:href="#DejaVuSans-57" transform="translate(331.640625 0)"/>
      <use xlink:href="#DejaVuSans-3" transform="translate(370.84375 0)"/>
      <use xlink:href="#DejaVuSans-53" transform="translate(402.625 0)"/>
      <use xlink:href="#DejaVuSans-55" transform="translate(466.109375 0)"/>
      <use xlink:href="#DejaVuSans-4c" transform="translate(507.21875 0)"/>
      <use xlink:href="#DejaVuSans-46" transform="translate(535 0)"/>
      <use xlink:href="#DejaVuSans-48" transform="translate(589.984375 0)"/>
      <use xlink:href="#DejaVuSans-44" transform="translate(651.515625 0)"/>
      <use xlink:href="#DejaVuSans-45" transform="translate(712.796875 0)"/>
      <use xlink:href="#DejaVuSans-4f" transform="translate(776.28125 0)"/>
      <use xlink:href="#DejaVuSans-48" transform="translate(804.0625 0)"/>
      <use xlink:href="#DejaVuSans-3" transform="translate(865.59375 0)"/>
      <use xlink:href="#DejaVuSans-56" transform="translate(897.375 0)"/>
      <use xlink:href="#DejaVuSans-53" transform="translate(949.46875 0)"/>
      <use xlink:href="#DejaVuSans-4c" transform="translate(1012.953125 0)"/>
      <use xlink:href="#DejaVuSans-4e" transform="translate(1040.734375 0)"/>
      <use xlink:href="#DejaVuSans-48" transform="translate(1095.078125 0)"/>
      <use xlink:href="#DejaVuSans-3" transform="translate(1156.609375 0)"/>
      <use xlink:href="#DejaVuSans-b" transform="translate(1188.390625 0)"/>
      <use xlink:href="#DejaVuSans-b83" transform="translate(1227.40625 0)"/>
      <use xlink:href="#DejaVuSans-12" transform="translate(1291.03125 0)"/>
      <use xlink:href="#DejaVuSans-30" transform="translate(1324.71875 0)"/>
      <use xlink:href="#DejaVuSans-3a" transform="translate(1411 0)"/>
      <use xlink:href="#DejaVuSans-4b" transform="translate(1509.875 0)"/>
      <use xlink:href="#DejaVuSans-c" transform="translate(1573.25 0)"/>
     </g>
    </g>
   </g>
   <g id="line2d_51">
    <path d="M 445.988906 224.722586 
L 777.106562 224.722586 
" clip-path="url(#pc9be87ce52)" style="fill: none; stroke-dasharray: 1,1.65; stroke-dashoffset: 0; stroke: #898781"/>
   </g>
   <g id="patch_52">
    <path d="M 445.988906 261.103406 
L 445.988906 66.435047 
" style="fill: none; stroke: #000000; stroke-width: 0.8; stroke-linejoin: miter; stroke-linecap: square"/>
   </g>
   <g id="patch_53">
    <path d="M 777.106562 261.103406 
L 777.106562 66.435047 
" style="fill: none; stroke: #000000; stroke-width: 0.8; stroke-linejoin: miter; stroke-linecap: square"/>
   </g>
   <g id="patch_54">
    <path d="M 445.988906 261.103406 
L 777.106562 261.103406 
" style="fill: none; stroke: #000000; stroke-width: 0.8; stroke-linejoin: miter; stroke-linecap: square"/>
   </g>
   <g id="patch_55">
    <path d="M 445.988906 66.435047 
L 777.106562 66.435047 
" style="fill: none; stroke: #000000; stroke-width: 0.8; stroke-linejoin: miter; stroke-linecap: square"/>
   </g>
   <g id="text_32">
    <!-- capped at -->
    <g style="fill: #898781" transform="translate(507.91154 231.491768) scale(0.08 -0.08)">
     <use xlink:href="#DejaVuSans-46"/>
     <use xlink:href="#DejaVuSans-44" transform="translate(54.984375 0)"/>
     <use xlink:href="#DejaVuSans-53" transform="translate(116.265625 0)"/>
     <use xlink:href="#DejaVuSans-53" transform="translate(179.75 0)"/>
     <use xlink:href="#DejaVuSans-48" transform="translate(243.234375 0)"/>
     <use xlink:href="#DejaVuSans-47" transform="translate(304.765625 0)"/>
     <use xlink:href="#DejaVuSans-3" transform="translate(368.25 0)"/>
     <use xlink:href="#DejaVuSans-44" transform="translate(400.03125 0)"/>
     <use xlink:href="#DejaVuSans-57" transform="translate(461.3125 0)"/>
    </g>
    <!-- historical max -->
    <g style="fill: #898781" transform="translate(499.68279 241.093955) scale(0.08 -0.08)">
     <defs>
      <path id="DejaVuSans-5b" d="M 3513 3500 
L 2247 1797 
L 3578 0 
L 2900 0 
L 1881 1375 
L 863 0 
L 184 0 
L 1544 1831 
L 300 3500 
L 978 3500 
L 1906 2253 
L 2834 3500 
L 3513 3500 
z
" transform="scale(0.015625)"/>
     </defs>
     <use xlink:href="#DejaVuSans-4b"/>
     <use xlink:href="#DejaVuSans-4c" transform="translate(63.375 0)"/>
     <use xlink:href="#DejaVuSans-56" transform="translate(91.15625 0)"/>
     <use xlink:href="#DejaVuSans-57" transform="translate(143.25 0)"/>
     <use xlink:href="#DejaVuSans-52" transform="translate(182.453125 0)"/>
     <use xlink:href="#DejaVuSans-55" transform="translate(243.640625 0)"/>
     <use xlink:href="#DejaVuSans-4c" transform="translate(284.75 0)"/>
     <use xlink:href="#DejaVuSans-46" transform="translate(312.53125 0)"/>
     <use xlink:href="#DejaVuSans-44" transform="translate(367.515625 0)"/>
     <use xlink:href="#DejaVuSans-4f" transform="translate(428.796875 0)"/>
     <use xlink:href="#DejaVuSans-3" transform="translate(456.578125 0)"/>
     <use xlink:href="#DejaVuSans-50" transform="translate(488.359375 0)"/>
     <use xlink:href="#DejaVuSans-44" transform="translate(585.765625 0)"/>
     <use xlink:href="#DejaVuSans-5b" transform="translate(647.046875 0)"/>
    </g>
   </g>
   <g id="text_33">
    <!-- Support ceiling — the tail un-caps it -->
    <g transform="translate(503.874922 60.435047) scale(0.12 -0.12)">
     <defs>
      <path id="DejaVuSans-36" d="M 3425 4513 
L 3425 3897 
Q 3066 4069 2747 4153 
Q 2428 4238 2131 4238 
Q 1616 4238 1336 4038 
Q 1056 3838 1056 3469 
Q 1056 3159 1242 3001 
Q 1428 2844 1947 2747 
L 2328 2669 
Q 3034 2534 3370 2195 
Q 3706 1856 3706 1288 
Q 3706 609 3251 259 
Q 2797 -91 1919 -91 
Q 1588 -91 1214 -16 
Q 841 59 441 206 
L 441 856 
Q 825 641 1194 531 
Q 1563 422 1919 422 
Q 2459 422 2753 634 
Q 3047 847 3047 1241 
Q 3047 1584 2836 1778 
Q 2625 1972 2144 2069 
L 1759 2144 
Q 1053 2284 737 2584 
Q 422 2884 422 3419 
Q 422 4038 858 4394 
Q 1294 4750 2059 4750 
Q 2388 4750 2728 4690 
Q 3069 4631 3425 4513 
z
" transform="scale(0.015625)"/>
      <path id="DejaVuSans-af6" d="M 313 1978 
L 6088 1978 
L 6088 1528 
L 313 1528 
L 313 1978 
z
" transform="scale(0.015625)"/>
      <path id="DejaVuSans-10" d="M 313 2009 
L 1997 2009 
L 1997 1497 
L 313 1497 
L 313 2009 
z
" transform="scale(0.015625)"/>
     </defs>
     <use xlink:href="#DejaVuSans-36"/>
     <use xlink:href="#DejaVuSans-58" transform="translate(63.484375 0)"/>
     <use xlink:href="#DejaVuSans-53" transform="translate(126.859375 0)"/>
     <use xlink:href="#DejaVuSans-53" transform="translate(190.34375 0)"/>
     <use xlink:href="#DejaVuSans-52" transform="translate(253.828125 0)"/>
     <use xlink:href="#DejaVuSans-55" transform="translate(315.015625 0)"/>
     <use xlink:href="#DejaVuSans-57" transform="translate(356.125 0)"/>
     <use xlink:href="#DejaVuSans-3" transform="translate(395.328125 0)"/>
     <use xlink:href="#DejaVuSans-46" transform="translate(427.109375 0)"/>
     <use xlink:href="#DejaVuSans-48" transform="translate(482.09375 0)"/>
     <use xlink:href="#DejaVuSans-4c" transform="translate(543.625 0)"/>
     <use xlink:href="#DejaVuSans-4f" transform="translate(571.40625 0)"/>
     <use xlink:href="#DejaVuSans-4c" transform="translate(599.1875 0)"/>
     <use xlink:href="#DejaVuSans-51" transform="translate(626.96875 0)"/>
     <use xlink:href="#DejaVuSans-4a" transform="translate(690.34375 0)"/>
     <use xlink:href="#DejaVuSans-3" transform="translate(753.828125 0)"/>
     <use xlink:href="#DejaVuSans-af6" transform="translate(785.609375 0)"/>
     <use xlink:href="#DejaVuSans-3" transform="translate(885.609375 0)"/>
     <use xlink:href="#DejaVuSans-57" transform="translate(917.390625 0)"/>
     <use xlink:href="#DejaVuSans-4b" transform="translate(956.59375 0)"/>
     <use xlink:href="#DejaVuSans-48" transform="translate(1019.96875 0)"/>
     <use xlink:href="#DejaVuSans-3" transform="translate(1081.5 0)"/>
     <use xlink:href="#DejaVuSans-57" transform="translate(1113.28125 0)"/>
     <use xlink:href="#DejaVuSans-44" transform="translate(1152.484375 0)"/>
     <use xlink:href="#DejaVuSans-4c" transform="translate(1213.765625 0)"/>
     <use xlink:href="#DejaVuSans-4f" transform="translate(1241.546875 0)"/>
     <use xlink:href="#DejaVuSans-3" transform="translate(1269.328125 0)"/>
     <use xlink:href="#DejaVuSans-58" transform="translate(1301.109375 0)"/>
     <use xlink:href="#DejaVuSans-51" transform="translate(1364.484375 0)"/>
     <use xlink:href="#DejaVuSans-10" transform="translate(1427.859375 0)"/>
     <use xlink:href="#DejaVuSans-46" transform="translate(1463.9375 0)"/>
     <use xlink:href="#DejaVuSans-44" transform="translate(1518.921875 0)"/>
     <use xlink:href="#DejaVuSans-53" transform="translate(1580.203125 0)"/>
     <use xlink:href="#DejaVuSans-56" transform="translate(1643.6875 0)"/>
     <use xlink:href="#DejaVuSans-3" transform="translate(1695.78125 0)"/>
     <use xlink:href="#DejaVuSans-4c" transform="translate(1727.5625 0)"/>
     <use xlink:href="#DejaVuSans-57" transform="translate(1755.34375 0)"/>
    </g>
   </g>
  </g>
  <g id="text_34">
   <!-- Scenario tail — empirical body, extreme-value tail (R2.2b) -->
   <g transform="translate(203.036875 17.077969) scale(0.13 -0.13)">
    <defs>
     <path id="DejaVuSans-f" d="M 750 794 
L 1409 794 
L 1409 256 
L 897 -744 
L 494 -744 
L 750 256 
L 750 794 
z
" transform="scale(0.015625)"/>
     <path id="DejaVuSans-35" d="M 2841 2188 
Q 3044 2119 3236 1894 
Q 3428 1669 3622 1275 
L 4263 0 
L 3584 0 
L 2988 1197 
Q 2756 1666 2539 1819 
Q 2322 1972 1947 1972 
L 1259 1972 
L 1259 0 
L 628 0 
L 628 4666 
L 2053 4666 
Q 2853 4666 3247 4331 
Q 3641 3997 3641 3322 
Q 3641 2881 3436 2590 
Q 3231 2300 2841 2188 
z
M 1259 4147 
L 1259 2491 
L 2053 2491 
Q 2509 2491 2742 2702 
Q 2975 2913 2975 3322 
Q 2975 3731 2742 3939 
Q 2509 4147 2053 4147 
L 1259 4147 
z
" transform="scale(0.015625)"/>
    </defs>
    <use xlink:href="#DejaVuSans-36"/>
    <use xlink:href="#DejaVuSans-46" transform="translate(63.484375 0)"/>
    <use xlink:href="#DejaVuSans-48" transform="translate(118.46875 0)"/>
    <use xlink:href="#DejaVuSans-51" transform="translate(180 0)"/>
    <use xlink:href="#DejaVuSans-44" transform="translate(243.375 0)"/>
    <use xlink:href="#DejaVuSans-55" transform="translate(304.65625 0)"/>
    <use xlink:href="#DejaVuSans-4c" transform="translate(345.765625 0)"/>
    <use xlink:href="#DejaVuSans-52" transform="translate(373.546875 0)"/>
    <use xlink:href="#DejaVuSans-3" transform="translate(434.734375 0)"/>
    <use xlink:href="#DejaVuSans-57" transform="translate(466.515625 0)"/>
    <use xlink:href="#DejaVuSans-44" transform="translate(505.71875 0)"/>
    <use xlink:href="#DejaVuSans-4c" transform="translate(567 0)"/>
    <use xlink:href="#DejaVuSans-4f" transform="translate(594.78125 0)"/>
    <use xlink:href="#DejaVuSans-3" transform="translate(622.5625 0)"/>
    <use xlink:href="#DejaVuSans-af6" transform="translate(654.34375 0)"/>
    <use xlink:href="#DejaVuSans-3" transform="translate(754.34375 0)"/>
    <use xlink:href="#DejaVuSans-48" transform="translate(786.125 0)"/>
    <use xlink:href="#DejaVuSans-50" transform="translate(847.65625 0)"/>
    <use xlink:href="#DejaVuSans-53" transform="translate(945.0625 0)"/>
    <use xlink:href="#DejaVuSans-4c" transform="translate(1008.546875 0)"/>
    <use xlink:href="#DejaVuSans-55" transform="translate(1036.328125 0)"/>
    <use xlink:href="#DejaVuSans-4c" transform="translate(1077.4375 0)"/>
    <use xlink:href="#DejaVuSans-46" transform="translate(1105.21875 0)"/>
    <use xlink:href="#DejaVuSans-44" transform="translate(1160.203125 0)"/>
    <use xlink:href="#DejaVuSans-4f" transform="translate(1221.484375 0)"/>
    <use xlink:href="#DejaVuSans-3" transform="translate(1249.265625 0)"/>
    <use xlink:href="#DejaVuSans-45" transform="translate(1281.046875 0)"/>
    <use xlink:href="#DejaVuSans-52" transform="translate(1344.53125 0)"/>
    <use xlink:href="#DejaVuSans-47" transform="translate(1405.71875 0)"/>
    <use xlink:href="#DejaVuSans-5c" transform="translate(1469.203125 0)"/>
    <use xlink:href="#DejaVuSans-f" transform="translate(1528.390625 0)"/>
    <use xlink:href="#DejaVuSans-3" transform="translate(1560.171875 0)"/>
    <use xlink:href="#DejaVuSans-48" transform="translate(1591.953125 0)"/>
    <use xlink:href="#DejaVuSans-5b" transform="translate(1651.734375 0)"/>
    <use xlink:href="#DejaVuSans-57" transform="translate(1710.921875 0)"/>
    <use xlink:href="#DejaVuSans-55" transform="translate(1750.125 0)"/>
    <use xlink:href="#DejaVuSans-48" transform="translate(1789.03125 0)"/>
    <use xlink:href="#DejaVuSans-50" transform="translate(1850.5625 0)"/>
    <use xlink:href="#DejaVuSans-48" transform="translate(1947.96875 0)"/>
    <use xlink:href="#DejaVuSans-10" transform="translate(2009.5 0)"/>
    <use xlink:href="#DejaVuSans-59" transform="translate(2042.890625 0)"/>
    <use xlink:href="#DejaVuSans-44" transform="translate(2102.078125 0)"/>
    <use xlink:href="#DejaVuSans-4f" transform="translate(2163.359375 0)"/>
    <use xlink:href="#DejaVuSans-58" transform="translate(2191.140625 0)"/>
    <use xlink:href="#DejaVuSans-48" transform="translate(2254.515625 0)"/>
    <use xlink:href="#DejaVuSans-3" transform="translate(2316.046875 0)"/>
    <use xlink:href="#DejaVuSans-57" transform="translate(2347.828125 0)"/>
    <use xlink:href="#DejaVuSans-44" transform="translate(2387.03125 0)"/>
    <use xlink:href="#DejaVuSans-4c" transform="translate(2448.3125 0)"/>
    <use xlink:href="#DejaVuSans-4f" transform="translate(2476.09375 0)"/>
    <use xlink:href="#DejaVuSans-3" transform="translate(2503.875 0)"/>
    <use xlink:href="#DejaVuSans-b" transform="translate(2535.65625 0)"/>
    <use xlink:href="#DejaVuSans-35" transform="translate(2574.671875 0)"/>
    <use xlink:href="#DejaVuSans-15" transform="translate(2644.15625 0)"/>
    <use xlink:href="#DejaVuSans-11" transform="translate(2707.78125 0)"/>
    <use xlink:href="#DejaVuSans-15" transform="translate(2739.5625 0)"/>
    <use xlink:href="#DejaVuSans-45" transform="translate(2803.1875 0)"/>
    <use xlink:href="#DejaVuSans-c" transform="translate(2866.671875 0)"/>
   </g>
  </g>
 </g>
 <defs>
  <clipPath id="pab5c108ea7">
   <rect x="56.828906" y="66.435047" width="331.117656" height="194.668359"/>
  </clipPath>
  <clipPath id="pc9be87ce52">
   <rect x="445.988906" y="66.435047" width="331.117656" height="194.668359"/>
  </clipPath>
 </defs>
</svg>
