<?xml version="1.0" encoding="utf-8" standalone="no"?>
<!DOCTYPE svg PUBLIC "-//W3C//DTD SVG 1.1//EN"
  "http://www.w3.org/Graphics/SVG/1.1/DTD/svg11.dtd">
<svg xmlns:xlink="http://www.w3.org/1999/xlink" width="676.125937pt" height="357.958125pt" viewBox="0 0 676.125937 357.958125" xmlns="http://www.w3.org/2000/svg" version="1.1">
 <metadata>
  <rdf:RDF xmlns:dc="http://purl.org/dc/elements/1.1/" xmlns:cc="http://creativecommons.org/ns#" xmlns:rdf="http://www.w3.org/1999/02/22-rdf-syntax-ns#">
   <cc:Work>
    <dc:type rdf:resource="http://purl.org/dc/dcmitype/StillImage"/>
    <dc:date>2026-07-16T13:19:44.016834</dc:date>
    <dc:format>image/svg+xml</dc:format>
    <dc:creator>
     <cc:Agent>
      <dc:title>Matplotlib v3.11.0, https://matplotlib.org/</dc:title>
     </cc:Agent>
    </dc:creator>
   </cc:Work>
  </rdf:RDF>
 </metadata>
 <defs>
  <style type="text/css">*{stroke-linejoin: round; stroke-linecap: butt}</style>
 </defs>
 <g id="figure_1">
  <g id="patch_1">
   <path d="M 0 357.958125 
L 676.125937 357.958125 
L 676.125937 0 
L 0 0 
z
" style="fill: #ffffff"/>
  </g>
  <g id="axes_1">
   <g id="patch_2">
    <path d="M 47.288281 285.235781 
L 668.925937 285.235781 
L 668.925937 22.318125 
L 47.288281 22.318125 
z
" style="fill: #ffffff"/>
   </g>
   <g id="FillBetweenPolyCollection_1">
    <defs>
     <path id="me316d3f68f" d="M 75.544538 -126.450481 
L 75.544538 -116.122627 
L 110.86486 -116.122627 
L 110.86486 -116.122627 
L 181.505502 -116.122627 
L 181.505502 -173.989671 
L 252.146145 -173.989671 
L 252.146145 -128.702419 
L 322.786788 -128.702419 
L 322.786788 -128.702419 
L 393.427431 -128.702419 
L 393.427431 -250.411908 
L 464.068074 -250.411908 
L 464.068074 -275.885987 
L 534.708716 -275.885987 
L 534.708716 -133.231144 
L 605.349359 -133.231144 
L 605.349359 -94.510544 
L 640.66968 -94.510544 
L 640.66968 -99.768897 
L 640.66968 -99.768897 
L 605.349359 -99.768897 
L 605.349359 -147.572107 
L 534.708716 -147.572107 
L 534.708716 -323.689197 
L 464.068074 -323.689197 
L 464.068074 -292.239717 
L 393.427431 -292.239717 
L 393.427431 -141.981088 
L 322.786788 -141.981088 
L 322.786788 -141.981088 
L 252.146145 -141.981088 
L 252.146145 -197.891276 
L 181.505502 -197.891276 
L 181.505502 -126.450481 
L 110.86486 -126.450481 
L 110.86486 -126.450481 
L 75.544538 -126.450481 
z
" style="stroke: #2a78d6; stroke-opacity: 0.15"/>
    </defs>
    <g clip-path="url(#pf9c449d372)">
     <use xlink:href="#me316d3f68f" x="0" y="357.958125" style="fill: #2a78d6; fill-opacity: 0.15; stroke: #2a78d6; stroke-opacity: 0.15"/>
    </g>
   </g>
   <g id="matplotlib.axis_1">
    <g id="xtick_1">
     <g id="line2d_1">
      <path d="M 75.544538 285.235781 
L 75.544538 22.318125 
" clip-path="url(#pf9c449d372)" style="fill: none; stroke: #b0b0b0; stroke-opacity: 0.25; stroke-width: 0.8; stroke-linecap: square"/>
     </g>
     <g id="line2d_2">
      <defs>
       <path id="m396e04e1f1" d="M 0 0 
L 0 3.5 
" style="stroke: #000000; stroke-width: 0.8"/>
      </defs>
      <g>
       <use xlink:href="#m396e04e1f1" x="75.544538" y="285.235781" style="stroke: #000000; stroke-width: 0.8"/>
      </g>
     </g>
     <g id="text_1">
      <!-- 0 -->
      <g transform="translate(72.363288 299.833437) scale(0.1 -0.1)">
       <defs>
        <path id="DejaVuSans-13" d="M 2034 4250 
Q 1547 4250 1301 3770 
Q 1056 3291 1056 2328 
Q 1056 1369 1301 889 
Q 1547 409 2034 409 
Q 2525 409 2770 889 
Q 3016 1369 3016 2328 
Q 3016 3291 2770 3770 
Q 2525 4250 2034 4250 
z
M 2034 4750 
Q 2819 4750 3233 4129 
Q 3647 3509 3647 2328 
Q 3647 1150 3233 529 
Q 2819 -91 2034 -91 
Q 1250 -91 836 529 
Q 422 1150 422 2328 
Q 422 3509 836 4129 
Q 1250 4750 2034 4750 
z
" transform="scale(0.015625)"/>
       </defs>
       <use xlink:href="#DejaVuSans-13"/>
      </g>
     </g>
    </g>
    <g id="xtick_2">
     <g id="line2d_3">
      <path d="M 146.185181 285.235781 
L 146.185181 22.318125 
" clip-path="url(#pf9c449d372)" style="fill: none; stroke: #b0b0b0; stroke-opacity: 0.25; stroke-width: 0.8; stroke-linecap: square"/>
     </g>
     <g id="line2d_4">
      <g>
       <use xlink:href="#m396e04e1f1" x="146.185181" y="285.235781" style="stroke: #000000; stroke-width: 0.8"/>
      </g>
     </g>
     <g id="text_2">
      <!-- 1 -->
      <g transform="translate(143.003931 299.833437) scale(0.1 -0.1)">
       <defs>
        <path id="DejaVuSans-14" d="M 794 531 
L 1825 531 
L 1825 4091 
L 703 3866 
L 703 4441 
L 1819 4666 
L 2450 4666 
L 2450 531 
L 3481 531 
L 3481 0 
L 794 0 
L 794 531 
z
" transform="scale(0.015625)"/>
       </defs>
       <use xlink:href="#DejaVuSans-14"/>
      </g>
     </g>
    </g>
    <g id="xtick_3">
     <g id="line2d_5">
      <path d="M 216.825824 285.235781 
L 216.825824 22.318125 
" clip-path="url(#pf9c449d372)" style="fill: none; stroke: #b0b0b0; stroke-opacity: 0.25; stroke-width: 0.8; stroke-linecap: square"/>
     </g>
     <g id="line2d_6">
      <g>
       <use xlink:href="#m396e04e1f1" x="216.825824" y="285.235781" style="stroke: #000000; stroke-width: 0.8"/>
      </g>
     </g>
     <g id="text_3">
      <!-- 2 -->
      <g transform="translate(213.644574 299.833437) scale(0.1 -0.1)">
       <defs>
        <path id="DejaVuSans-15" d="M 1228 531 
L 3431 531 
L 3431 0 
L 469 0 
L 469 531 
Q 828 903 1448 1529 
Q 2069 2156 2228 2338 
Q 2531 2678 2651 2914 
Q 2772 3150 2772 3378 
Q 2772 3750 2511 3984 
Q 2250 4219 1831 4219 
Q 1534 4219 1204 4116 
Q 875 4013 500 3803 
L 500 4441 
Q 881 4594 1212 4672 
Q 1544 4750 1819 4750 
Q 2544 4750 2975 4387 
Q 3406 4025 3406 3419 
Q 3406 3131 3298 2873 
Q 3191 2616 2906 2266 
Q 2828 2175 2409 1742 
Q 1991 1309 1228 531 
z
" transform="scale(0.015625)"/>
       </defs>
       <use xlink:href="#DejaVuSans-15"/>
      </g>
     </g>
    </g>
    <g id="xtick_4">
     <g id="line2d_7">
      <path d="M 287.466467 285.235781 
L 287.466467 22.318125 
" clip-path="url(#pf9c449d372)" style="fill: none; stroke: #b0b0b0; stroke-opacity: 0.25; stroke-width: 0.8; stroke-linecap: square"/>
     </g>
     <g id="line2d_8">
      <g>
       <use xlink:href="#m396e04e1f1" x="287.466467" y="285.235781" style="stroke: #000000; stroke-width: 0.8"/>
      </g>
     </g>
     <g id="text_4">
      <!-- 3 -->
      <g transform="translate(284.285217 299.833437) scale(0.1 -0.1)">
       <defs>
        <path id="DejaVuSans-16" d="M 2597 2516 
Q 3050 2419 3304 2112 
Q 3559 1806 3559 1356 
Q 3559 666 3084 287 
Q 2609 -91 1734 -91 
Q 1441 -91 1130 -33 
Q 819 25 488 141 
L 488 750 
Q 750 597 1062 519 
Q 1375 441 1716 441 
Q 2309 441 2620 675 
Q 2931 909 2931 1356 
Q 2931 1769 2642 2001 
Q 2353 2234 1838 2234 
L 1294 2234 
L 1294 2753 
L 1863 2753 
Q 2328 2753 2575 2939 
Q 2822 3125 2822 3475 
Q 2822 3834 2567 4026 
Q 2313 4219 1838 4219 
Q 1578 4219 1281 4162 
Q 984 4106 628 3988 
L 628 4550 
Q 988 4650 1302 4700 
Q 1616 4750 1894 4750 
Q 2613 4750 3031 4423 
Q 3450 4097 3450 3541 
Q 3450 3153 3228 2886 
Q 3006 2619 2597 2516 
z
" transform="scale(0.015625)"/>
       </defs>
       <use xlink:href="#DejaVuSans-16"/>
      </g>
     </g>
    </g>
    <g id="xtick_5">
     <g id="line2d_9">
      <path d="M 358.107109 285.235781 
L 358.107109 22.318125 
" clip-path="url(#pf9c449d372)" style="fill: none; stroke: #b0b0b0; stroke-opacity: 0.25; stroke-width: 0.8; stroke-linecap: square"/>
     </g>
     <g id="line2d_10">
      <g>
       <use xlink:href="#m396e04e1f1" x="358.107109" y="285.235781" style="stroke: #000000; stroke-width: 0.8"/>
      </g>
     </g>
     <g id="text_5">
      <!-- 4 -->
      <g transform="translate(354.925859 299.833437) scale(0.1 -0.1)">
       <defs>
        <path id="DejaVuSans-17" d="M 2419 4116 
L 825 1625 
L 2419 1625 
L 2419 4116 
z
M 2253 4666 
L 3047 4666 
L 3047 1625 
L 3713 1625 
L 3713 1100 
L 3047 1100 
L 3047 0 
L 2419 0 
L 2419 1100 
L 313 1100 
L 313 1709 
L 2253 4666 
z
" transform="scale(0.015625)"/>
       </defs>
       <use xlink:href="#DejaVuSans-17"/>
      </g>
     </g>
    </g>
    <g id="xtick_6">
     <g id="line2d_11">
      <path d="M 428.747752 285.235781 
L 428.747752 22.318125 
" clip-path="url(#pf9c449d372)" style="fill: none; stroke: #b0b0b0; stroke-opacity: 0.25; stroke-width: 0.8; stroke-linecap: square"/>
     </g>
     <g id="line2d_12">
      <g>
       <use xlink:href="#m396e04e1f1" x="428.747752" y="285.235781" style="stroke: #000000; stroke-width: 0.8"/>
      </g>
     </g>
     <g id="text_6">
      <!-- 5 -->
      <g transform="translate(425.566502 299.833437) scale(0.1 -0.1)">
       <defs>
        <path id="DejaVuSans-18" d="M 691 4666 
L 3169 4666 
L 3169 4134 
L 1269 4134 
L 1269 2991 
Q 1406 3038 1543 3061 
Q 1681 3084 1819 3084 
Q 2600 3084 3056 2656 
Q 3513 2228 3513 1497 
Q 3513 744 3044 326 
Q 2575 -91 1722 -91 
Q 1428 -91 1123 -41 
Q 819 9 494 109 
L 494 744 
Q 775 591 1075 516 
Q 1375 441 1709 441 
Q 2250 441 2565 725 
Q 2881 1009 2881 1497 
Q 2881 1984 2565 2268 
Q 2250 2553 1709 2553 
Q 1456 2553 1204 2497 
Q 953 2441 691 2322 
L 691 4666 
z
" transform="scale(0.015625)"/>
       </defs>
       <use xlink:href="#DejaVuSans-18"/>
      </g>
     </g>
    </g>
    <g id="xtick_7">
     <g id="line2d_13">
      <path d="M 499.388395 285.235781 
L 499.388395 22.318125 
" clip-path="url(#pf9c449d372)" style="fill: none; stroke: #b0b0b0; stroke-opacity: 0.25; stroke-width: 0.8; stroke-linecap: square"/>
     </g>
     <g id="line2d_14">
      <g>
       <use xlink:href="#m396e04e1f1" x="499.388395" y="285.235781" style="stroke: #000000; stroke-width: 0.8"/>
      </g>
     </g>
     <g id="text_7">
      <!-- 6 -->
      <g transform="translate(496.207145 299.833437) scale(0.1 -0.1)">
       <defs>
        <path id="DejaVuSans-19" d="M 2113 2584 
Q 1688 2584 1439 2293 
Q 1191 2003 1191 1497 
Q 1191 994 1439 701 
Q 1688 409 2113 409 
Q 2538 409 2786 701 
Q 3034 994 3034 1497 
Q 3034 2003 2786 2293 
Q 2538 2584 2113 2584 
z
M 3366 4563 
L 3366 3988 
Q 3128 4100 2886 4159 
Q 2644 4219 2406 4219 
Q 1781 4219 1451 3797 
Q 1122 3375 1075 2522 
Q 1259 2794 1537 2939 
Q 1816 3084 2150 3084 
Q 2853 3084 3261 2657 
Q 3669 2231 3669 1497 
Q 3669 778 3244 343 
Q 2819 -91 2113 -91 
Q 1303 -91 875 529 
Q 447 1150 447 2328 
Q 447 3434 972 4092 
Q 1497 4750 2381 4750 
Q 2619 4750 2861 4703 
Q 3103 4656 3366 4563 
z
" transform="scale(0.015625)"/>
       </defs>
       <use xlink:href="#DejaVuSans-19"/>
      </g>
     </g>
    </g>
    <g id="xtick_8">
     <g id="line2d_15">
      <path d="M 570.029038 285.235781 
L 570.029038 22.318125 
" clip-path="url(#pf9c449d372)" style="fill: none; stroke: #b0b0b0; stroke-opacity: 0.25; stroke-width: 0.8; stroke-linecap: square"/>
     </g>
     <g id="line2d_16">
      <g>
       <use xlink:href="#m396e04e1f1" x="570.029038" y="285.235781" style="stroke: #000000; stroke-width: 0.8"/>
      </g>
     </g>
     <g id="text_8">
      <!-- 7 -->
      <g transform="translate(566.847788 299.833437) scale(0.1 -0.1)">
       <defs>
        <path id="DejaVuSans-1a" d="M 525 4666 
L 3525 4666 
L 3525 4397 
L 1831 0 
L 1172 0 
L 2766 4134 
L 525 4134 
L 525 4666 
z
" transform="scale(0.015625)"/>
       </defs>
       <use xlink:href="#DejaVuSans-1a"/>
      </g>
     </g>
    </g>
    <g id="xtick_9">
     <g id="line2d_17">
      <path d="M 640.66968 285.235781 
L 640.66968 22.318125 
" clip-path="url(#pf9c449d372)" style="fill: none; stroke: #b0b0b0; stroke-opacity: 0.25; stroke-width: 0.8; stroke-linecap: square"/>
     </g>
     <g id="line2d_18">
      <g>
       <use xlink:href="#m396e04e1f1" x="640.66968" y="285.235781" style="stroke: #000000; stroke-width: 0.8"/>
      </g>
     </g>
     <g id="text_9">
      <!-- 8 -->
      <g transform="translate(637.48843 299.833437) scale(0.1 -0.1)">
       <defs>
        <path id="DejaVuSans-1b" d="M 2034 2216 
Q 1584 2216 1326 1975 
Q 1069 1734 1069 1313 
Q 1069 891 1326 650 
Q 1584 409 2034 409 
Q 2484 409 2743 651 
Q 3003 894 3003 1313 
Q 3003 1734 2745 1975 
Q 2488 2216 2034 2216 
z
M 1403 2484 
Q 997 2584 770 2862 
Q 544 3141 544 3541 
Q 544 4100 942 4425 
Q 1341 4750 2034 4750 
Q 2731 4750 3128 4425 
Q 3525 4100 3525 3541 
Q 3525 3141 3298 2862 
Q 3072 2584 2669 2484 
Q 3125 2378 3379 2068 
Q 3634 1759 3634 1313 
Q 3634 634 3220 271 
Q 2806 -91 2034 -91 
Q 1263 -91 848 271 
Q 434 634 434 1313 
Q 434 1759 690 2068 
Q 947 2378 1403 2484 
z
M 1172 3481 
Q 1172 3119 1398 2916 
Q 1625 2713 2034 2713 
Q 2441 2713 2670 2916 
Q 2900 3119 2900 3481 
Q 2900 3844 2670 4047 
Q 2441 4250 2034 4250 
Q 1625 4250 1398 4047 
Q 1172 3844 1172 3481 
z
" transform="scale(0.015625)"/>
       </defs>
       <use xlink:href="#DejaVuSans-1b"/>
      </g>
     </g>
    </g>
    <g id="text_10">
     <!-- period (hour) -->
     <g transform="translate(325.235234 313.834219) scale(0.1 -0.1)">
      <defs>
       <path id="DejaVuSans-53" d="M 1159 525 
L 1159 -1331 
L 581 -1331 
L 581 3500 
L 1159 3500 
L 1159 2969 
Q 1341 3281 1617 3432 
Q 1894 3584 2278 3584 
Q 2916 3584 3314 3078 
Q 3713 2572 3713 1747 
Q 3713 922 3314 415 
Q 2916 -91 2278 -91 
Q 1894 -91 1617 61 
Q 1341 213 1159 525 
z
M 3116 1747 
Q 3116 2381 2855 2742 
Q 2594 3103 2138 3103 
Q 1681 3103 1420 2742 
Q 1159 2381 1159 1747 
Q 1159 1113 1420 752 
Q 1681 391 2138 391 
Q 2594 391 2855 752 
Q 3116 1113 3116 1747 
z
" transform="scale(0.015625)"/>
       <path id="DejaVuSans-48" d="M 3597 1894 
L 3597 1613 
L 953 1613 
Q 991 1019 1311 708 
Q 1631 397 2203 397 
Q 2534 397 2845 478 
Q 3156 559 3463 722 
L 3463 178 
Q 3153 47 2828 -22 
Q 2503 -91 2169 -91 
Q 1331 -91 842 396 
Q 353 884 353 1716 
Q 353 2575 817 3079 
Q 1281 3584 2069 3584 
Q 2775 3584 3186 3129 
Q 3597 2675 3597 1894 
z
M 3022 2063 
Q 3016 2534 2758 2815 
Q 2500 3097 2075 3097 
Q 1594 3097 1305 2825 
Q 1016 2553 972 2059 
L 3022 2063 
z
" transform="scale(0.015625)"/>
       <path id="DejaVuSans-55" d="M 2631 2963 
Q 2534 3019 2420 3045 
Q 2306 3072 2169 3072 
Q 1681 3072 1420 2755 
Q 1159 2438 1159 1844 
L 1159 0 
L 581 0 
L 581 3500 
L 1159 3500 
L 1159 2956 
Q 1341 3275 1631 3429 
Q 1922 3584 2338 3584 
Q 2397 3584 2469 3576 
Q 2541 3569 2628 3553 
L 2631 2963 
z
" transform="scale(0.015625)"/>
       <path id="DejaVuSans-4c" d="M 603 3500 
L 1178 3500 
L 1178 0 
L 603 0 
L 603 3500 
z
M 603 4863 
L 1178 4863 
L 1178 4134 
L 603 4134 
L 603 4863 
z
" transform="scale(0.015625)"/>
       <path id="DejaVuSans-52" d="M 1959 3097 
Q 1497 3097 1228 2736 
Q 959 2375 959 1747 
Q 959 1119 1226 758 
Q 1494 397 1959 397 
Q 2419 397 2687 759 
Q 2956 1122 2956 1747 
Q 2956 2369 2687 2733 
Q 2419 3097 1959 3097 
z
M 1959 3584 
Q 2709 3584 3137 3096 
Q 3566 2609 3566 1747 
Q 3566 888 3137 398 
Q 2709 -91 1959 -91 
Q 1206 -91 779 398 
Q 353 888 353 1747 
Q 353 2609 779 3096 
Q 1206 3584 1959 3584 
z
" transform="scale(0.015625)"/>
       <path id="DejaVuSans-47" d="M 2906 2969 
L 2906 4863 
L 3481 4863 
L 3481 0 
L 2906 0 
L 2906 525 
Q 2725 213 2448 61 
Q 2172 -91 1784 -91 
Q 1150 -91 751 415 
Q 353 922 353 1747 
Q 353 2572 751 3078 
Q 1150 3584 1784 3584 
Q 2172 3584 2448 3432 
Q 2725 3281 2906 2969 
z
M 947 1747 
Q 947 1113 1208 752 
Q 1469 391 1925 391 
Q 2381 391 2643 752 
Q 2906 1113 2906 1747 
Q 2906 2381 2643 2742 
Q 2381 3103 1925 3103 
Q 1469 3103 1208 2742 
Q 947 2381 947 1747 
z
" transform="scale(0.015625)"/>
       <path id="DejaVuSans-3" transform="scale(0.015625)"/>
       <path id="DejaVuSans-b" d="M 1984 4856 
Q 1566 4138 1362 3434 
Q 1159 2731 1159 2009 
Q 1159 1288 1364 580 
Q 1569 -128 1984 -844 
L 1484 -844 
Q 1016 -109 783 600 
Q 550 1309 550 2009 
Q 550 2706 781 3412 
Q 1013 4119 1484 4856 
L 1984 4856 
z
" transform="scale(0.015625)"/>
       <path id="DejaVuSans-4b" d="M 3513 2113 
L 3513 0 
L 2938 0 
L 2938 2094 
Q 2938 2591 2744 2837 
Q 2550 3084 2163 3084 
Q 1697 3084 1428 2787 
Q 1159 2491 1159 1978 
L 1159 0 
L 581 0 
L 581 4863 
L 1159 4863 
L 1159 2956 
Q 1366 3272 1645 3428 
Q 1925 3584 2291 3584 
Q 2894 3584 3203 3211 
Q 3513 2838 3513 2113 
z
" transform="scale(0.015625)"/>
       <path id="DejaVuSans-58" d="M 544 1381 
L 544 3500 
L 1119 3500 
L 1119 1403 
Q 1119 906 1312 657 
Q 1506 409 1894 409 
Q 2359 409 2629 706 
Q 2900 1003 2900 1516 
L 2900 3500 
L 3475 3500 
L 3475 0 
L 2900 0 
L 2900 538 
Q 2691 219 2414 64 
Q 2138 -91 1772 -91 
Q 1169 -91 856 284 
Q 544 659 544 1381 
z
M 1991 3584 
L 1991 3584 
z
" transform="scale(0.015625)"/>
       <path id="DejaVuSans-c" d="M 513 4856 
L 1013 4856 
Q 1481 4119 1714 3412 
Q 1947 2706 1947 2009 
Q 1947 1309 1714 600 
Q 1481 -109 1013 -844 
L 513 -844 
Q 928 -128 1133 580 
Q 1338 1288 1338 2009 
Q 1338 2731 1133 3434 
Q 928 4138 513 4856 
z
" transform="scale(0.015625)"/>
      </defs>
      <use xlink:href="#DejaVuSans-53"/>
      <use xlink:href="#DejaVuSans-48" transform="translate(63.484375 0)"/>
      <use xlink:href="#DejaVuSans-55" transform="translate(125.015625 0)"/>
      <use xlink:href="#DejaVuSans-4c" transform="translate(166.125 0)"/>
      <use xlink:href="#DejaVuSans-52" transform="translate(193.90625 0)"/>
      <use xlink:href="#DejaVuSans-47" transform="translate(255.09375 0)"/>
      <use xlink:href="#DejaVuSans-3" transform="translate(318.578125 0)"/>
      <use xlink:href="#DejaVuSans-b" transform="translate(350.359375 0)"/>
      <use xlink:href="#DejaVuSans-4b" transform="translate(389.375 0)"/>
      <use xlink:href="#DejaVuSans-52" transform="translate(452.75 0)"/>
      <use xlink:href="#DejaVuSans-58" transform="translate(513.9375 0)"/>
      <use xlink:href="#DejaVuSans-55" transform="translate(577.3125 0)"/>
      <use xlink:href="#DejaVuSans-c" transform="translate(618.421875 0)"/>
     </g>
    </g>
   </g>
   <g id="matplotlib.axis_2">
    <g id="ytick_1">
     <g id="line2d_19">
      <path d="M 47.288281 254.41529 
L 668.925937 254.41529 
" clip-path="url(#pf9c449d372)" style="fill: none; stroke: #b0b0b0; stroke-opacity: 0.25; stroke-width: 0.8; stroke-linecap: square"/>
     </g>
     <g id="line2d_20">
      <defs>
       <path id="mfd84a458de" d="M 0 0 
L -3.5 0 
" style="stroke: #000000; stroke-width: 0.8"/>
      </defs>
      <g>
       <use xlink:href="#mfd84a458de" x="47.288281" y="254.41529" style="stroke: #000000; stroke-width: 0.8"/>
      </g>
     </g>
     <g id="text_11">
      <!-- 25 -->
      <g transform="translate(27.563281 258.214119) scale(0.1 -0.1)">
       <use xlink:href="#DejaVuSans-15"/>
       <use xlink:href="#DejaVuSans-18" transform="translate(63.625 0)"/>
      </g>
     </g>
    </g>
    <g id="ytick_2">
     <g id="line2d_21">
      <path d="M 47.288281 222.96581 
L 668.925937 222.96581 
" clip-path="url(#pf9c449d372)" style="fill: none; stroke: #b0b0b0; stroke-opacity: 0.25; stroke-width: 0.8; stroke-linecap: square"/>
     </g>
     <g id="line2d_22">
      <g>
       <use xlink:href="#mfd84a458de" x="47.288281" y="222.96581" style="stroke: #000000; stroke-width: 0.8"/>
      </g>
     </g>
     <g id="text_12">
      <!-- 50 -->
      <g transform="translate(27.563281 226.764638) scale(0.1 -0.1)">
       <use xlink:href="#DejaVuSans-18"/>
       <use xlink:href="#DejaVuSans-13" transform="translate(63.625 0)"/>
      </g>
     </g>
    </g>
    <g id="ytick_3">
     <g id="line2d_23">
      <path d="M 47.288281 191.51633 
L 668.925937 191.51633 
" clip-path="url(#pf9c449d372)" style="fill: none; stroke: #b0b0b0; stroke-opacity: 0.25; stroke-width: 0.8; stroke-linecap: square"/>
     </g>
     <g id="line2d_24">
      <g>
       <use xlink:href="#mfd84a458de" x="47.288281" y="191.51633" style="stroke: #000000; stroke-width: 0.8"/>
      </g>
     </g>
     <g id="text_13">
      <!-- 75 -->
      <g transform="translate(27.563281 195.315158) scale(0.1 -0.1)">
       <use xlink:href="#DejaVuSans-1a"/>
       <use xlink:href="#DejaVuSans-18" transform="translate(63.625 0)"/>
      </g>
     </g>
    </g>
    <g id="ytick_4">
     <g id="line2d_25">
      <path d="M 47.288281 160.066849 
L 668.925937 160.066849 
" clip-path="url(#pf9c449d372)" style="fill: none; stroke: #b0b0b0; stroke-opacity: 0.25; stroke-width: 0.8; stroke-linecap: square"/>
     </g>
     <g id="line2d_26">
      <g>
       <use xlink:href="#mfd84a458de" x="47.288281" y="160.066849" style="stroke: #000000; stroke-width: 0.8"/>
      </g>
     </g>
     <g id="text_14">
      <!-- 100 -->
      <g transform="translate(21.200781 163.865677) scale(0.1 -0.1)">
       <use xlink:href="#DejaVuSans-14"/>
       <use xlink:href="#DejaVuSans-13" transform="translate(63.625 0)"/>
       <use xlink:href="#DejaVuSans-13" transform="translate(127.25 0)"/>
      </g>
     </g>
    </g>
    <g id="ytick_5">
     <g id="line2d_27">
      <path d="M 47.288281 128.617369 
L 668.925937 128.617369 
" clip-path="url(#pf9c449d372)" style="fill: none; stroke: #b0b0b0; stroke-opacity: 0.25; stroke-width: 0.8; stroke-linecap: square"/>
     </g>
     <g id="line2d_28">
      <g>
       <use xlink:href="#mfd84a458de" x="47.288281" y="128.617369" style="stroke: #000000; stroke-width: 0.8"/>
      </g>
     </g>
     <g id="text_15">
      <!-- 125 -->
      <g transform="translate(21.200781 132.416197) scale(0.1 -0.1)">
       <use xlink:href="#DejaVuSans-14"/>
       <use xlink:href="#DejaVuSans-15" transform="translate(63.625 0)"/>
       <use xlink:href="#DejaVuSans-18" transform="translate(127.25 0)"/>
      </g>
     </g>
    </g>
    <g id="ytick_6">
     <g id="line2d_29">
      <path d="M 47.288281 97.167888 
L 668.925937 97.167888 
" clip-path="url(#pf9c449d372)" style="fill: none; stroke: #b0b0b0; stroke-opacity: 0.25; stroke-width: 0.8; stroke-linecap: square"/>
     </g>
     <g id="line2d_30">
      <g>
       <use xlink:href="#mfd84a458de" x="47.288281" y="97.167888" style="stroke: #000000; stroke-width: 0.8"/>
      </g>
     </g>
     <g id="text_16">
      <!-- 150 -->
      <g transform="translate(21.200781 100.966717) scale(0.1 -0.1)">
       <use xlink:href="#DejaVuSans-14"/>
       <use xlink:href="#DejaVuSans-18" transform="translate(63.625 0)"/>
       <use xlink:href="#DejaVuSans-13" transform="translate(127.25 0)"/>
      </g>
     </g>
    </g>
    <g id="ytick_7">
     <g id="line2d_31">
      <path d="M 47.288281 65.718408 
L 668.925937 65.718408 
" clip-path="url(#pf9c449d372)" style="fill: none; stroke: #b0b0b0; stroke-opacity: 0.25; stroke-width: 0.8; stroke-linecap: square"/>
     </g>
     <g id="line2d_32">
      <g>
       <use xlink:href="#mfd84a458de" x="47.288281" y="65.718408" style="stroke: #000000; stroke-width: 0.8"/>
      </g>
     </g>
     <g id="text_17">
      <!-- 175 -->
      <g transform="translate(21.200781 69.517236) scale(0.1 -0.1)">
       <use xlink:href="#DejaVuSans-14"/>
       <use xlink:href="#DejaVuSans-1a" transform="translate(63.625 0)"/>
       <use xlink:href="#DejaVuSans-18" transform="translate(127.25 0)"/>
      </g>
     </g>
    </g>
    <g id="ytick_8">
     <g id="line2d_33">
      <path d="M 47.288281 34.268928 
L 668.925937 34.268928 
" clip-path="url(#pf9c449d372)" style="fill: none; stroke: #b0b0b0; stroke-opacity: 0.25; stroke-width: 0.8; stroke-linecap: square"/>
     </g>
     <g id="line2d_34">
      <g>
       <use xlink:href="#mfd84a458de" x="47.288281" y="34.268928" style="stroke: #000000; stroke-width: 0.8"/>
      </g>
     </g>
     <g id="text_18">
      <!-- 200 -->
      <g transform="translate(21.200781 38.067756) scale(0.1 -0.1)">
       <use xlink:href="#DejaVuSans-15"/>
       <use xlink:href="#DejaVuSans-13" transform="translate(63.625 0)"/>
       <use xlink:href="#DejaVuSans-13" transform="translate(127.25 0)"/>
      </g>
     </g>
    </g>
    <g id="text_19">
     <!-- EUR/MWh -->
     <g transform="translate(14.798438 178.180859) rotate(-90) scale(0.1 -0.1)">
      <defs>
       <path id="DejaVuSans-28" d="M 628 4666 
L 3578 4666 
L 3578 4134 
L 1259 4134 
L 1259 2753 
L 3481 2753 
L 3481 2222 
L 1259 2222 
L 1259 531 
L 3634 531 
L 3634 0 
L 628 0 
L 628 4666 
z
" transform="scale(0.015625)"/>
       <path id="DejaVuSans-38" d="M 556 4666 
L 1191 4666 
L 1191 1831 
Q 1191 1081 1462 751 
Q 1734 422 2344 422 
Q 2950 422 3222 751 
Q 3494 1081 3494 1831 
L 3494 4666 
L 4128 4666 
L 4128 1753 
Q 4128 841 3676 375 
Q 3225 -91 2344 -91 
Q 1459 -91 1007 375 
Q 556 841 556 1753 
L 556 4666 
z
" transform="scale(0.015625)"/>
       <path id="DejaVuSans-35" d="M 2841 2188 
Q 3044 2119 3236 1894 
Q 3428 1669 3622 1275 
L 4263 0 
L 3584 0 
L 2988 1197 
Q 2756 1666 2539 1819 
Q 2322 1972 1947 1972 
L 1259 1972 
L 1259 0 
L 628 0 
L 628 4666 
L 2053 4666 
Q 2853 4666 3247 4331 
Q 3641 3997 3641 3322 
Q 3641 2881 3436 2590 
Q 3231 2300 2841 2188 
z
M 1259 4147 
L 1259 2491 
L 2053 2491 
Q 2509 2491 2742 2702 
Q 2975 2913 2975 3322 
Q 2975 3731 2742 3939 
Q 2509 4147 2053 4147 
L 1259 4147 
z
" transform="scale(0.015625)"/>
       <path id="DejaVuSans-12" d="M 1625 4666 
L 2156 4666 
L 531 -594 
L 0 -594 
L 1625 4666 
z
" transform="scale(0.015625)"/>
       <path id="DejaVuSans-30" d="M 628 4666 
L 1569 4666 
L 2759 1491 
L 3956 4666 
L 4897 4666 
L 4897 0 
L 4281 0 
L 4281 4097 
L 3078 897 
L 2444 897 
L 1241 4097 
L 1241 0 
L 628 0 
L 628 4666 
z
" transform="scale(0.015625)"/>
       <path id="DejaVuSans-3a" d="M 213 4666 
L 850 4666 
L 1831 722 
L 2809 4666 
L 3519 4666 
L 4500 722 
L 5478 4666 
L 6119 4666 
L 4947 0 
L 4153 0 
L 3169 4050 
L 2175 0 
L 1381 0 
L 213 4666 
z
" transform="scale(0.015625)"/>
      </defs>
      <use xlink:href="#DejaVuSans-28"/>
      <use xlink:href="#DejaVuSans-38" transform="translate(63.1875 0)"/>
      <use xlink:href="#DejaVuSans-35" transform="translate(136.375 0)"/>
      <use xlink:href="#DejaVuSans-12" transform="translate(205.859375 0)"/>
      <use xlink:href="#DejaVuSans-30" transform="translate(239.546875 0)"/>
      <use xlink:href="#DejaVuSans-3a" transform="translate(325.828125 0)"/>
      <use xlink:href="#DejaVuSans-4b" transform="translate(424.703125 0)"/>
     </g>
    </g>
   </g>
   <g id="line2d_35">
    <path d="M 75.544538 236.943357 
L 110.86486 236.943357 
L 110.86486 236.943357 
L 181.505502 236.943357 
L 181.505502 172.646641 
L 252.146145 172.646641 
L 252.146145 222.96581 
L 322.786788 222.96581 
L 322.786788 222.96581 
L 393.427431 222.96581 
L 393.427431 87.733044 
L 464.068074 87.733044 
L 464.068074 59.428512 
L 534.708716 59.428512 
L 534.708716 217.933893 
L 605.349359 217.933893 
L 605.349359 260.956782 
L 640.66968 260.956782 
" clip-path="url(#pf9c449d372)" style="fill: none; stroke: #2a78d6; stroke-width: 1.8; stroke-linecap: square"/>
   </g>
   <g id="patch_3">
    <path d="M 47.288281 285.235781 
L 47.288281 22.318125 
" style="fill: none; stroke: #000000; stroke-width: 0.8; stroke-linejoin: miter; stroke-linecap: square"/>
   </g>
   <g id="patch_4">
    <path d="M 668.925937 285.235781 
L 668.925937 22.318125 
" style="fill: none; stroke: #000000; stroke-width: 0.8; stroke-linejoin: miter; stroke-linecap: square"/>
   </g>
   <g id="patch_5">
    <path d="M 47.288281 285.235781 
L 668.925938 285.235781 
" style="fill: none; stroke: #000000; stroke-width: 0.8; stroke-linejoin: miter; stroke-linecap: square"/>
   </g>
   <g id="patch_6">
    <path d="M 47.288281 22.318125 
L 668.925938 22.318125 
" style="fill: none; stroke: #000000; stroke-width: 0.8; stroke-linejoin: miter; stroke-linecap: square"/>
   </g>
   <g id="line2d_36">
    <path d="M 75.544538 241.835498 
L 146.185181 268.253062 
L 216.825824 160.066849 
L 287.466467 229.255706 
L 358.107109 273.284979 
L 428.747752 65.718408 
L 499.388395 34.268928 
L 570.029038 210.386018 
L 640.66968 258.189228 
" clip-path="url(#pf9c449d372)" style="fill: none; stroke: #b8860b; stroke-opacity: 0.7; stroke-width: 1.4; stroke-linecap: square"/>
   </g>
   <g id="patch_7">
    <path d="M 326.561443 115.449283 
Q 367.453415 74.164803 425.437168 66.165249 
" style="fill: none; stroke: #6c757d; stroke-width: 1.2; stroke-linecap: round"/>
    <path d="M 421.624945 64.874141 
L 425.437168 66.165249 
L 422.116948 68.440362 
" style="fill: none; stroke: #6c757d; stroke-width: 1.2; stroke-linecap: round"/>
   </g>
   <g id="text_20">
    <!-- holds through the spike: -->
    <g style="fill: #6c757d" transform="translate(259.21021 126.620762) scale(0.09 -0.09)">
     <defs>
      <path id="DejaVuSans-4f" d="M 603 4863 
L 1178 4863 
L 1178 0 
L 603 0 
L 603 4863 
z
" transform="scale(0.015625)"/>
      <path id="DejaVuSans-56" d="M 2834 3397 
L 2834 2853 
Q 2591 2978 2328 3040 
Q 2066 3103 1784 3103 
Q 1356 3103 1142 2972 
Q 928 2841 928 2578 
Q 928 2378 1081 2264 
Q 1234 2150 1697 2047 
L 1894 2003 
Q 2506 1872 2764 1633 
Q 3022 1394 3022 966 
Q 3022 478 2636 193 
Q 2250 -91 1575 -91 
Q 1294 -91 989 -36 
Q 684 19 347 128 
L 347 722 
Q 666 556 975 473 
Q 1284 391 1588 391 
Q 1994 391 2212 530 
Q 2431 669 2431 922 
Q 2431 1156 2273 1281 
Q 2116 1406 1581 1522 
L 1381 1569 
Q 847 1681 609 1914 
Q 372 2147 372 2553 
Q 372 3047 722 3315 
Q 1072 3584 1716 3584 
Q 2034 3584 2315 3537 
Q 2597 3491 2834 3397 
z
" transform="scale(0.015625)"/>
      <path id="DejaVuSans-57" d="M 1172 4494 
L 1172 3500 
L 2356 3500 
L 2356 3053 
L 1172 3053 
L 1172 1153 
Q 1172 725 1289 603 
Q 1406 481 1766 481 
L 2356 481 
L 2356 0 
L 1766 0 
Q 1100 0 847 248 
Q 594 497 594 1153 
L 594 3053 
L 172 3053 
L 172 3500 
L 594 3500 
L 594 4494 
L 1172 4494 
z
" transform="scale(0.015625)"/>
      <path id="DejaVuSans-4a" d="M 2906 1791 
Q 2906 2416 2648 2759 
Q 2391 3103 1925 3103 
Q 1463 3103 1205 2759 
Q 947 2416 947 1791 
Q 947 1169 1205 825 
Q 1463 481 1925 481 
Q 2391 481 2648 825 
Q 2906 1169 2906 1791 
z
M 3481 434 
Q 3481 -459 3084 -895 
Q 2688 -1331 1869 -1331 
Q 1566 -1331 1297 -1286 
Q 1028 -1241 775 -1147 
L 775 -588 
Q 1028 -725 1275 -790 
Q 1522 -856 1778 -856 
Q 2344 -856 2625 -561 
Q 2906 -266 2906 331 
L 2906 616 
Q 2728 306 2450 153 
Q 2172 0 1784 0 
Q 1141 0 747 490 
Q 353 981 353 1791 
Q 353 2603 747 3093 
Q 1141 3584 1784 3584 
Q 2172 3584 2450 3431 
Q 2728 3278 2906 2969 
L 2906 3500 
L 3481 3500 
L 3481 434 
z
" transform="scale(0.015625)"/>
      <path id="DejaVuSans-4e" d="M 581 4863 
L 1159 4863 
L 1159 1991 
L 2875 3500 
L 3609 3500 
L 1753 1863 
L 3688 0 
L 2938 0 
L 1159 1709 
L 1159 0 
L 581 0 
L 581 4863 
z
" transform="scale(0.015625)"/>
      <path id="DejaVuSans-1d" d="M 750 794 
L 1409 794 
L 1409 0 
L 750 0 
L 750 794 
z
M 750 3309 
L 1409 3309 
L 1409 2516 
L 750 2516 
L 750 3309 
z
" transform="scale(0.015625)"/>
     </defs>
     <use xlink:href="#DejaVuSans-4b"/>
     <use xlink:href="#DejaVuSans-52" transform="translate(63.375 0)"/>
     <use xlink:href="#DejaVuSans-4f" transform="translate(124.5625 0)"/>
     <use xlink:href="#DejaVuSans-47" transform="translate(152.34375 0)"/>
     <use xlink:href="#DejaVuSans-56" transform="translate(215.828125 0)"/>
     <use xlink:href="#DejaVuSans-3" transform="translate(267.921875 0)"/>
     <use xlink:href="#DejaVuSans-57" transform="translate(299.703125 0)"/>
     <use xlink:href="#DejaVuSans-4b" transform="translate(338.90625 0)"/>
     <use xlink:href="#DejaVuSans-55" transform="translate(402.28125 0)"/>
     <use xlink:href="#DejaVuSans-52" transform="translate(441.1875 0)"/>
     <use xlink:href="#DejaVuSans-58" transform="translate(502.375 0)"/>
     <use xlink:href="#DejaVuSans-4a" transform="translate(565.75 0)"/>
     <use xlink:href="#DejaVuSans-4b" transform="translate(629.234375 0)"/>
     <use xlink:href="#DejaVuSans-3" transform="translate(692.609375 0)"/>
     <use xlink:href="#DejaVuSans-57" transform="translate(724.390625 0)"/>
     <use xlink:href="#DejaVuSans-4b" transform="translate(763.59375 0)"/>
     <use xlink:href="#DejaVuSans-48" transform="translate(826.96875 0)"/>
     <use xlink:href="#DejaVuSans-3" transform="translate(888.5 0)"/>
     <use xlink:href="#DejaVuSans-56" transform="translate(920.28125 0)"/>
     <use xlink:href="#DejaVuSans-53" transform="translate(972.375 0)"/>
     <use xlink:href="#DejaVuSans-4c" transform="translate(1035.859375 0)"/>
     <use xlink:href="#DejaVuSans-4e" transform="translate(1063.640625 0)"/>
     <use xlink:href="#DejaVuSans-48" transform="translate(1117.984375 0)"/>
     <use xlink:href="#DejaVuSans-1d" transform="translate(1179.515625 0)"/>
    </g>
    <!-- water value is higher -->
    <g style="fill: #6c757d" transform="translate(259.21021 137.423223) scale(0.09 -0.09)">
     <defs>
      <path id="DejaVuSans-5a" d="M 269 3500 
L 844 3500 
L 1563 769 
L 2278 3500 
L 2956 3500 
L 3675 769 
L 4391 3500 
L 4966 3500 
L 4050 0 
L 3372 0 
L 2619 2869 
L 1863 0 
L 1184 0 
L 269 3500 
z
" transform="scale(0.015625)"/>
      <path id="DejaVuSans-44" d="M 2194 1759 
Q 1497 1759 1228 1600 
Q 959 1441 959 1056 
Q 959 750 1161 570 
Q 1363 391 1709 391 
Q 2188 391 2477 730 
Q 2766 1069 2766 1631 
L 2766 1759 
L 2194 1759 
z
M 3341 1997 
L 3341 0 
L 2766 0 
L 2766 531 
Q 2569 213 2275 61 
Q 1981 -91 1556 -91 
Q 1019 -91 701 211 
Q 384 513 384 1019 
Q 384 1609 779 1909 
Q 1175 2209 1959 2209 
L 2766 2209 
L 2766 2266 
Q 2766 2663 2505 2880 
Q 2244 3097 1772 3097 
Q 1472 3097 1187 3025 
Q 903 2953 641 2809 
L 641 3341 
Q 956 3463 1253 3523 
Q 1550 3584 1831 3584 
Q 2591 3584 2966 3190 
Q 3341 2797 3341 1997 
z
" transform="scale(0.015625)"/>
      <path id="DejaVuSans-59" d="M 191 3500 
L 800 3500 
L 1894 563 
L 2988 3500 
L 3597 3500 
L 2284 0 
L 1503 0 
L 191 3500 
z
" transform="scale(0.015625)"/>
     </defs>
     <use xlink:href="#DejaVuSans-5a"/>
     <use xlink:href="#DejaVuSans-44" transform="translate(81.78125 0)"/>
     <use xlink:href="#DejaVuSans-57" transform="translate(143.0625 0)"/>
     <use xlink:href="#DejaVuSans-48" transform="translate(182.265625 0)"/>
     <use xlink:href="#DejaVuSans-55" transform="translate(243.796875 0)"/>
     <use xlink:href="#DejaVuSans-3" transform="translate(284.90625 0)"/>
     <use xlink:href="#DejaVuSans-59" transform="translate(316.6875 0)"/>
     <use xlink:href="#DejaVuSans-44" transform="translate(375.875 0)"/>
     <use xlink:href="#DejaVuSans-4f" transform="translate(437.15625 0)"/>
     <use xlink:href="#DejaVuSans-58" transform="translate(464.9375 0)"/>
     <use xlink:href="#DejaVuSans-48" transform="translate(528.3125 0)"/>
     <use xlink:href="#DejaVuSans-3" transform="translate(589.84375 0)"/>
     <use xlink:href="#DejaVuSans-4c" transform="translate(621.625 0)"/>
     <use xlink:href="#DejaVuSans-56" transform="translate(649.40625 0)"/>
     <use xlink:href="#DejaVuSans-3" transform="translate(701.5 0)"/>
     <use xlink:href="#DejaVuSans-4b" transform="translate(733.28125 0)"/>
     <use xlink:href="#DejaVuSans-4c" transform="translate(796.65625 0)"/>
     <use xlink:href="#DejaVuSans-4a" transform="translate(824.4375 0)"/>
     <use xlink:href="#DejaVuSans-4b" transform="translate(887.921875 0)"/>
     <use xlink:href="#DejaVuSans-48" transform="translate(951.296875 0)"/>
     <use xlink:href="#DejaVuSans-55" transform="translate(1012.828125 0)"/>
    </g>
   </g>
   <g id="text_21">
    <!-- Why the battery traded — water value and the no-trade band -->
    <g transform="translate(172.737109 16.318125) scale(0.12 -0.12)">
     <defs>
      <path id="DejaVuSans-5c" d="M 2059 -325 
Q 1816 -950 1584 -1140 
Q 1353 -1331 966 -1331 
L 506 -1331 
L 506 -850 
L 844 -850 
Q 1081 -850 1212 -737 
Q 1344 -625 1503 -206 
L 1606 56 
L 191 3500 
L 800 3500 
L 1894 763 
L 2988 3500 
L 3597 3500 
L 2059 -325 
z
" transform="scale(0.015625)"/>
      <path id="DejaVuSans-45" d="M 3116 1747 
Q 3116 2381 2855 2742 
Q 2594 3103 2138 3103 
Q 1681 3103 1420 2742 
Q 1159 2381 1159 1747 
Q 1159 1113 1420 752 
Q 1681 391 2138 391 
Q 2594 391 2855 752 
Q 3116 1113 3116 1747 
z
M 1159 2969 
Q 1341 3281 1617 3432 
Q 1894 3584 2278 3584 
Q 2916 3584 3314 3078 
Q 3713 2572 3713 1747 
Q 3713 922 3314 415 
Q 2916 -91 2278 -91 
Q 1894 -91 1617 61 
Q 1341 213 1159 525 
L 1159 0 
L 581 0 
L 581 4863 
L 1159 4863 
L 1159 2969 
z
" transform="scale(0.015625)"/>
      <path id="DejaVuSans-af6" d="M 313 1978 
L 6088 1978 
L 6088 1528 
L 313 1528 
L 313 1978 
z
" transform="scale(0.015625)"/>
      <path id="DejaVuSans-51" d="M 3513 2113 
L 3513 0 
L 2938 0 
L 2938 2094 
Q 2938 2591 2744 2837 
Q 2550 3084 2163 3084 
Q 1697 3084 1428 2787 
Q 1159 2491 1159 1978 
L 1159 0 
L 581 0 
L 581 3500 
L 1159 3500 
L 1159 2956 
Q 1366 3272 1645 3428 
Q 1925 3584 2291 3584 
Q 2894 3584 3203 3211 
Q 3513 2838 3513 2113 
z
" transform="scale(0.015625)"/>
      <path id="DejaVuSans-10" d="M 313 2009 
L 1997 2009 
L 1997 1497 
L 313 1497 
L 313 2009 
z
" transform="scale(0.015625)"/>
     </defs>
     <use xlink:href="#DejaVuSans-3a"/>
     <use xlink:href="#DejaVuSans-4b" transform="translate(98.875 0)"/>
     <use xlink:href="#DejaVuSans-5c" transform="translate(162.25 0)"/>
     <use xlink:href="#DejaVuSans-3" transform="translate(221.4375 0)"/>
     <use xlink:href="#DejaVuSans-57" transform="translate(253.21875 0)"/>
     <use xlink:href="#DejaVuSans-4b" transform="translate(292.421875 0)"/>
     <use xlink:href="#DejaVuSans-48" transform="translate(355.796875 0)"/>
     <use xlink:href="#DejaVuSans-3" transform="translate(417.328125 0)"/>
     <use xlink:href="#DejaVuSans-45" transform="translate(449.109375 0)"/>
     <use xlink:href="#DejaVuSans-44" transform="translate(512.59375 0)"/>
     <use xlink:href="#DejaVuSans-57" transform="translate(573.875 0)"/>
     <use xlink:href="#DejaVuSans-57" transform="translate(613.078125 0)"/>
     <use xlink:href="#DejaVuSans-48" transform="translate(652.28125 0)"/>
     <use xlink:href="#DejaVuSans-55" transform="translate(713.8125 0)"/>
     <use xlink:href="#DejaVuSans-5c" transform="translate(754.921875 0)"/>
     <use xlink:href="#DejaVuSans-3" transform="translate(814.109375 0)"/>
     <use xlink:href="#DejaVuSans-57" transform="translate(845.890625 0)"/>
     <use xlink:href="#DejaVuSans-55" transform="translate(885.09375 0)"/>
     <use xlink:href="#DejaVuSans-44" transform="translate(926.203125 0)"/>
     <use xlink:href="#DejaVuSans-47" transform="translate(987.484375 0)"/>
     <use xlink:href="#DejaVuSans-48" transform="translate(1050.96875 0)"/>
     <use xlink:href="#DejaVuSans-47" transform="translate(1112.5 0)"/>
     <use xlink:href="#DejaVuSans-3" transform="translate(1175.984375 0)"/>
     <use xlink:href="#DejaVuSans-af6" transform="translate(1207.765625 0)"/>
     <use xlink:href="#DejaVuSans-3" transform="translate(1307.765625 0)"/>
     <use xlink:href="#DejaVuSans-5a" transform="translate(1339.546875 0)"/>
     <use xlink:href="#DejaVuSans-44" transform="translate(1421.328125 0)"/>
     <use xlink:href="#DejaVuSans-57" transform="translate(1482.609375 0)"/>
     <use xlink:href="#DejaVuSans-48" transform="translate(1521.8125 0)"/>
     <use xlink:href="#DejaVuSans-55" transform="translate(1583.34375 0)"/>
     <use xlink:href="#DejaVuSans-3" transform="translate(1624.453125 0)"/>
     <use xlink:href="#DejaVuSans-59" transform="translate(1656.234375 0)"/>
     <use xlink:href="#DejaVuSans-44" transform="translate(1715.421875 0)"/>
     <use xlink:href="#DejaVuSans-4f" transform="translate(1776.703125 0)"/>
     <use xlink:href="#DejaVuSans-58" transform="translate(1804.484375 0)"/>
     <use xlink:href="#DejaVuSans-48" transform="translate(1867.859375 0)"/>
     <use xlink:href="#DejaVuSans-3" transform="translate(1929.390625 0)"/>
     <use xlink:href="#DejaVuSans-44" transform="translate(1961.171875 0)"/>
     <use xlink:href="#DejaVuSans-51" transform="translate(2022.453125 0)"/>
     <use xlink:href="#DejaVuSans-47" transform="translate(2085.828125 0)"/>
     <use xlink:href="#DejaVuSans-3" transform="translate(2149.3125 0)"/>
     <use xlink:href="#DejaVuSans-57" transform="translate(2181.09375 0)"/>
     <use xlink:href="#DejaVuSans-4b" transform="translate(2220.296875 0)"/>
     <use xlink:href="#DejaVuSans-48" transform="translate(2283.671875 0)"/>
     <use xlink:href="#DejaVuSans-3" transform="translate(2345.203125 0)"/>
     <use xlink:href="#DejaVuSans-51" transform="translate(2376.984375 0)"/>
     <use xlink:href="#DejaVuSans-52" transform="translate(2440.359375 0)"/>
     <use xlink:href="#DejaVuSans-10" transform="translate(2503.40625 0)"/>
     <use xlink:href="#DejaVuSans-57" transform="translate(2539.484375 0)"/>
     <use xlink:href="#DejaVuSans-55" transform="translate(2578.6875 0)"/>
     <use xlink:href="#DejaVuSans-44" transform="translate(2619.796875 0)"/>
     <use xlink:href="#DejaVuSans-47" transform="translate(2681.078125 0)"/>
     <use xlink:href="#DejaVuSans-48" transform="translate(2744.5625 0)"/>
     <use xlink:href="#DejaVuSans-3" transform="translate(2806.09375 0)"/>
     <use xlink:href="#DejaVuSans-45" transform="translate(2837.875 0)"/>
     <use xlink:href="#DejaVuSans-44" transform="translate(2901.359375 0)"/>
     <use xlink:href="#DejaVuSans-51" transform="translate(2962.640625 0)"/>
     <use xlink:href="#DejaVuSans-47" transform="translate(3026.015625 0)"/>
    </g>
   </g>
   <g id="PathCollection_1">
    <defs>
     <path id="mf5e9ef9091" d="M 0 4 
C 1.060812 4 2.078319 3.578535 2.828427 2.828427 
C 3.578535 2.078319 4 1.060812 4 0 
C 4 -1.060812 3.578535 -2.078319 2.828427 -2.828427 
C 2.078319 -3.578535 1.060812 -4 0 -4 
C -1.060812 -4 -2.078319 -3.578535 -2.828427 -2.828427 
C -3.578535 -2.078319 -4 -1.060812 -4 0 
C -4 1.060812 -3.578535 2.078319 -2.828427 2.828427 
C -2.078319 3.578535 -1.060812 4 0 4 
z
" style="stroke: #ffffff; stroke-width: 0.8"/>
    </defs>
    <g clip-path="url(#pf9c449d372)">
     <use xlink:href="#mf5e9ef9091" x="75.544538" y="241.835498" style="fill: #e76f51; stroke: #ffffff; stroke-width: 0.8"/>
    </g>
   </g>
   <g id="PathCollection_2">
    <g clip-path="url(#pf9c449d372)">
     <use xlink:href="#mf5e9ef9091" x="146.185181" y="268.253062" style="fill: #e76f51; stroke: #ffffff; stroke-width: 0.8"/>
    </g>
   </g>
   <g id="PathCollection_3">
    <defs>
     <path id="me56c7f83f8" d="M 0 4 
C 1.060812 4 2.078319 3.578535 2.828427 2.828427 
C 3.578535 2.078319 4 1.060812 4 0 
C 4 -1.060812 3.578535 -2.078319 2.828427 -2.828427 
C 2.078319 -3.578535 1.060812 -4 0 -4 
C -1.060812 -4 -2.078319 -3.578535 -2.828427 -2.828427 
C -3.578535 -2.078319 -4 -1.060812 -4 0 
C -4 1.060812 -3.578535 2.078319 -2.828427 2.828427 
C -2.078319 3.578535 -1.060812 4 0 4 
z
" style="stroke: #ffffff; stroke-width: 0.8"/>
    </defs>
    <g clip-path="url(#pf9c449d372)">
     <use xlink:href="#me56c7f83f8" x="216.825824" y="160.066849" style="fill: #2a9d8f; stroke: #ffffff; stroke-width: 0.8"/>
    </g>
   </g>
   <g id="PathCollection_4">
    <g clip-path="url(#pf9c449d372)">
     <use xlink:href="#mf5e9ef9091" x="287.466467" y="229.255706" style="fill: #e76f51; stroke: #ffffff; stroke-width: 0.8"/>
    </g>
   </g>
   <g id="PathCollection_5">
    <g clip-path="url(#pf9c449d372)">
     <use xlink:href="#mf5e9ef9091" x="358.107109" y="273.284979" style="fill: #e76f51; stroke: #ffffff; stroke-width: 0.8"/>
    </g>
   </g>
   <g id="PathCollection_6">
    <defs>
     <path id="mdb553b4424" d="M 0 4 
C 1.060812 4 2.078319 3.578535 2.828427 2.828427 
C 3.578535 2.078319 4 1.060812 4 0 
C 4 -1.060812 3.578535 -2.078319 2.828427 -2.828427 
C 2.078319 -3.578535 1.060812 -4 0 -4 
C -1.060812 -4 -2.078319 -3.578535 -2.828427 -2.828427 
C -3.578535 -2.078319 -4 -1.060812 -4 0 
C -4 1.060812 -3.578535 2.078319 -2.828427 2.828427 
C -2.078319 3.578535 -1.060812 4 0 4 
z
" style="stroke: #ffffff; stroke-width: 0.8"/>
    </defs>
    <g clip-path="url(#pf9c449d372)">
     <use xlink:href="#mdb553b4424" x="428.747752" y="65.718408" style="fill: #6c757d; stroke: #ffffff; stroke-width: 0.8"/>
    </g>
   </g>
   <g id="PathCollection_7">
    <g clip-path="url(#pf9c449d372)">
     <use xlink:href="#me56c7f83f8" x="499.388395" y="34.268928" style="fill: #2a9d8f; stroke: #ffffff; stroke-width: 0.8"/>
    </g>
   </g>
   <g id="PathCollection_8">
    <g clip-path="url(#pf9c449d372)">
     <use xlink:href="#mdb553b4424" x="570.029038" y="210.386018" style="fill: #6c757d; stroke: #ffffff; stroke-width: 0.8"/>
    </g>
   </g>
   <g id="PathCollection_9">
    <g clip-path="url(#pf9c449d372)">
     <use xlink:href="#mdb553b4424" x="640.66968" y="258.189228" style="fill: #6c757d; stroke: #ffffff; stroke-width: 0.8"/>
    </g>
   </g>
   <g id="legend_1">
    <g id="patch_8">
     <path d="M 53.238281 105.622109 
L 149.280313 105.622109 
Q 150.980313 105.622109 150.980313 103.922109 
L 150.980313 28.268125 
Q 150.980313 26.568125 149.280313 26.568125 
L 53.238281 26.568125 
Q 51.538281 26.568125 51.538281 28.268125 
L 51.538281 103.922109 
Q 51.538281 105.622109 53.238281 105.622109 
z
" style="fill: #ffffff; opacity: 0.9; stroke: #cccccc; stroke-linejoin: miter"/>
    </g>
    <g id="line2d_37">
     <path d="M 54.938281 33.451797 
L 63.438281 33.451797 
L 71.938281 33.451797 
" style="fill: none; stroke: #2a78d6; stroke-width: 1.8; stroke-linecap: square"/>
    </g>
    <g id="text_22">
     <!-- water value μ -->
     <g transform="translate(78.738281 36.426797) scale(0.085 -0.085)">
      <defs>
       <path id="DejaVuSans-350" d="M 544 -1331 
L 544 3500 
L 1119 3500 
L 1119 1325 
Q 1119 872 1334 640 
Q 1550 409 1972 409 
Q 2434 409 2667 671 
Q 2900 934 2900 1459 
L 2900 3500 
L 3475 3500 
L 3475 806 
Q 3475 619 3529 530 
Q 3584 441 3700 441 
Q 3728 441 3778 458 
Q 3828 475 3916 513 
L 3916 50 
Q 3788 -22 3673 -56 
Q 3559 -91 3450 -91 
Q 3234 -91 3106 31 
Q 2978 153 2931 403 
Q 2775 156 2548 32 
Q 2322 -91 2016 -91 
Q 1697 -91 1473 31 
Q 1250 153 1119 397 
L 1119 -1331 
L 544 -1331 
z
" transform="scale(0.015625)"/>
      </defs>
      <use xlink:href="#DejaVuSans-5a"/>
      <use xlink:href="#DejaVuSans-44" transform="translate(81.78125 0)"/>
      <use xlink:href="#DejaVuSans-57" transform="translate(143.0625 0)"/>
      <use xlink:href="#DejaVuSans-48" transform="translate(182.265625 0)"/>
      <use xlink:href="#DejaVuSans-55" transform="translate(243.796875 0)"/>
      <use xlink:href="#DejaVuSans-3" transform="translate(284.90625 0)"/>
      <use xlink:href="#DejaVuSans-59" transform="translate(316.6875 0)"/>
      <use xlink:href="#DejaVuSans-44" transform="translate(375.875 0)"/>
      <use xlink:href="#DejaVuSans-4f" transform="translate(437.15625 0)"/>
      <use xlink:href="#DejaVuSans-58" transform="translate(464.9375 0)"/>
      <use xlink:href="#DejaVuSans-48" transform="translate(528.3125 0)"/>
      <use xlink:href="#DejaVuSans-3" transform="translate(589.84375 0)"/>
      <use xlink:href="#DejaVuSans-350" transform="translate(621.625 0)"/>
     </g>
    </g>
    <g id="patch_9">
     <path d="M 54.938281 49.177461 
L 71.938281 49.177461 
L 71.938281 43.227461 
L 54.938281 43.227461 
z
" style="fill: #2a78d6; opacity: 0.15; stroke: #2a78d6; stroke-linejoin: miter"/>
    </g>
    <g id="text_23">
     <!-- no-trade band -->
     <g transform="translate(78.738281 49.177461) scale(0.085 -0.085)">
      <use xlink:href="#DejaVuSans-51"/>
      <use xlink:href="#DejaVuSans-52" transform="translate(63.375 0)"/>
      <use xlink:href="#DejaVuSans-10" transform="translate(126.421875 0)"/>
      <use xlink:href="#DejaVuSans-57" transform="translate(162.5 0)"/>
      <use xlink:href="#DejaVuSans-55" transform="translate(201.703125 0)"/>
      <use xlink:href="#DejaVuSans-44" transform="translate(242.8125 0)"/>
      <use xlink:href="#DejaVuSans-47" transform="translate(304.09375 0)"/>
      <use xlink:href="#DejaVuSans-48" transform="translate(367.578125 0)"/>
      <use xlink:href="#DejaVuSans-3" transform="translate(429.109375 0)"/>
      <use xlink:href="#DejaVuSans-45" transform="translate(460.890625 0)"/>
      <use xlink:href="#DejaVuSans-44" transform="translate(524.375 0)"/>
      <use xlink:href="#DejaVuSans-51" transform="translate(585.65625 0)"/>
      <use xlink:href="#DejaVuSans-47" transform="translate(649.03125 0)"/>
     </g>
    </g>
    <g id="line2d_38">
     <path d="M 54.938281 58.953125 
L 63.438281 58.953125 
L 71.938281 58.953125 
" style="fill: none; stroke: #b8860b; stroke-opacity: 0.7; stroke-width: 1.4; stroke-linecap: square"/>
    </g>
    <g id="text_24">
     <!-- day-ahead price -->
     <g transform="translate(78.738281 61.928125) scale(0.085 -0.085)">
      <defs>
       <path id="DejaVuSans-46" d="M 3122 3366 
L 3122 2828 
Q 2878 2963 2633 3030 
Q 2388 3097 2138 3097 
Q 1578 3097 1268 2742 
Q 959 2388 959 1747 
Q 959 1106 1268 751 
Q 1578 397 2138 397 
Q 2388 397 2633 464 
Q 2878 531 3122 666 
L 3122 134 
Q 2881 22 2623 -34 
Q 2366 -91 2075 -91 
Q 1284 -91 818 406 
Q 353 903 353 1747 
Q 353 2603 823 3093 
Q 1294 3584 2113 3584 
Q 2378 3584 2631 3529 
Q 2884 3475 3122 3366 
z
" transform="scale(0.015625)"/>
      </defs>
      <use xlink:href="#DejaVuSans-47"/>
      <use xlink:href="#DejaVuSans-44" transform="translate(63.484375 0)"/>
      <use xlink:href="#DejaVuSans-5c" transform="translate(124.765625 0)"/>
      <use xlink:href="#DejaVuSans-10" transform="translate(182.203125 0)"/>
      <use xlink:href="#DejaVuSans-44" transform="translate(218.28125 0)"/>
      <use xlink:href="#DejaVuSans-4b" transform="translate(279.5625 0)"/>
      <use xlink:href="#DejaVuSans-48" transform="translate(342.9375 0)"/>
      <use xlink:href="#DejaVuSans-44" transform="translate(404.46875 0)"/>
      <use xlink:href="#DejaVuSans-47" transform="translate(465.75 0)"/>
      <use xlink:href="#DejaVuSans-3" transform="translate(529.234375 0)"/>
      <use xlink:href="#DejaVuSans-53" transform="translate(561.015625 0)"/>
      <use xlink:href="#DejaVuSans-55" transform="translate(624.5 0)"/>
      <use xlink:href="#DejaVuSans-4c" transform="translate(665.609375 0)"/>
      <use xlink:href="#DejaVuSans-46" transform="translate(693.390625 0)"/>
      <use xlink:href="#DejaVuSans-48" transform="translate(748.375 0)"/>
     </g>
    </g>
    <g id="line2d_39">
     <path d="M 54.938281 71.703789 
L 63.438281 71.703789 
L 71.938281 71.703789 
" style="fill: none"/>
     <defs>
      <path id="mf8a8895bf5" d="M 0 4 
C 1.060812 4 2.078319 3.578535 2.828427 2.828427 
C 3.578535 2.078319 4 1.060812 4 0 
C 4 -1.060812 3.578535 -2.078319 2.828427 -2.828427 
C 2.078319 -3.578535 1.060812 -4 0 -4 
C -1.060812 -4 -2.078319 -3.578535 -2.828427 -2.828427 
C -3.578535 -2.078319 -4 -1.060812 -4 0 
C -4 1.060812 -3.578535 2.078319 -2.828427 2.828427 
C -2.078319 3.578535 -1.060812 4 0 4 
z
" style="stroke: #e76f51"/>
     </defs>
     <g>
      <use xlink:href="#mf8a8895bf5" x="63.438281" y="71.703789" style="fill: #e76f51; stroke: #e76f51"/>
     </g>
    </g>
    <g id="text_25">
     <!-- charge -->
     <g transform="translate(78.738281 74.678789) scale(0.085 -0.085)">
      <use xlink:href="#DejaVuSans-46"/>
      <use xlink:href="#DejaVuSans-4b" transform="translate(54.984375 0)"/>
      <use xlink:href="#DejaVuSans-44" transform="translate(118.359375 0)"/>
      <use xlink:href="#DejaVuSans-55" transform="translate(179.640625 0)"/>
      <use xlink:href="#DejaVuSans-4a" transform="translate(219 0)"/>
      <use xlink:href="#DejaVuSans-48" transform="translate(282.484375 0)"/>
     </g>
    </g>
    <g id="line2d_40">
     <path d="M 54.938281 84.454453 
L 63.438281 84.454453 
L 71.938281 84.454453 
" style="fill: none"/>
     <defs>
      <path id="m86a12c3652" d="M 0 4 
C 1.060812 4 2.078319 3.578535 2.828427 2.828427 
C 3.578535 2.078319 4 1.060812 4 0 
C 4 -1.060812 3.578535 -2.078319 2.828427 -2.828427 
C 2.078319 -3.578535 1.060812 -4 0 -4 
C -1.060812 -4 -2.078319 -3.578535 -2.828427 -2.828427 
C -3.578535 -2.078319 -4 -1.060812 -4 0 
C -4 1.060812 -3.578535 2.078319 -2.828427 2.828427 
C -2.078319 3.578535 -1.060812 4 0 4 
z
" style="stroke: #2a9d8f"/>
     </defs>
     <g>
      <use xlink:href="#m86a12c3652" x="63.438281" y="84.454453" style="fill: #2a9d8f; stroke: #2a9d8f"/>
     </g>
    </g>
    <g id="text_26">
     <!-- discharge -->
     <g transform="translate(78.738281 87.429453) scale(0.085 -0.085)">
      <use xlink:href="#DejaVuSans-47"/>
      <use xlink:href="#DejaVuSans-4c" transform="translate(63.484375 0)"/>
      <use xlink:href="#DejaVuSans-56" transform="translate(91.265625 0)"/>
      <use xlink:href="#DejaVuSans-46" transform="translate(143.359375 0)"/>
      <use xlink:href="#DejaVuSans-4b" transform="translate(198.34375 0)"/>
      <use xlink:href="#DejaVuSans-44" transform="translate(261.71875 0)"/>
      <use xlink:href="#DejaVuSans-55" transform="translate(323 0)"/>
      <use xlink:href="#DejaVuSans-4a" transform="translate(362.359375 0)"/>
      <use xlink:href="#DejaVuSans-48" transform="translate(425.84375 0)"/>
     </g>
    </g>
    <g id="line2d_41">
     <path d="M 54.938281 97.205117 
L 63.438281 97.205117 
L 71.938281 97.205117 
" style="fill: none"/>
     <defs>
      <path id="mb8a054976a" d="M 0 4 
C 1.060812 4 2.078319 3.578535 2.828427 2.828427 
C 3.578535 2.078319 4 1.060812 4 0 
C 4 -1.060812 3.578535 -2.078319 2.828427 -2.828427 
C 2.078319 -3.578535 1.060812 -4 0 -4 
C -1.060812 -4 -2.078319 -3.578535 -2.828427 -2.828427 
C -3.578535 -2.078319 -4 -1.060812 -4 0 
C -4 1.060812 -3.578535 2.078319 -2.828427 2.828427 
C -2.078319 3.578535 -1.060812 4 0 4 
z
" style="stroke: #6c757d"/>
     </defs>
     <g>
      <use xlink:href="#mb8a054976a" x="63.438281" y="97.205117" style="fill: #6c757d; stroke: #6c757d"/>
     </g>
    </g>
    <g id="text_27">
     <!-- idle -->
     <g transform="translate(78.738281 100.180117) scale(0.085 -0.085)">
      <use xlink:href="#DejaVuSans-4c"/>
      <use xlink:href="#DejaVuSans-47" transform="translate(27.78125 0)"/>
      <use xlink:href="#DejaVuSans-4f" transform="translate(91.265625 0)"/>
      <use xlink:href="#DejaVuSans-48" transform="translate(119.046875 0)"/>
     </g>
    </g>
   </g>
  </g>
  <g id="text_28">
   <!-- The water value is the marginal worth of stored energy (the SoC-balance dual). It is flat while the battery has room, -->
   <g style="fill: #555555" transform="translate(91.306953 337.662979) scale(0.085 -0.085)">
    <defs>
     <path id="DejaVuSans-37" d="M -19 4666 
L 3928 4666 
L 3928 4134 
L 2272 4134 
L 2272 0 
L 1638 0 
L 1638 4134 
L -19 4134 
L -19 4666 
z
" transform="scale(0.015625)"/>
     <path id="DejaVuSans-50" d="M 3328 2828 
Q 3544 3216 3844 3400 
Q 4144 3584 4550 3584 
Q 5097 3584 5394 3201 
Q 5691 2819 5691 2113 
L 5691 0 
L 5113 0 
L 5113 2094 
Q 5113 2597 4934 2840 
Q 4756 3084 4391 3084 
Q 3944 3084 3684 2787 
Q 3425 2491 3425 1978 
L 3425 0 
L 2847 0 
L 2847 2094 
Q 2847 2600 2669 2842 
Q 2491 3084 2119 3084 
Q 1678 3084 1418 2786 
Q 1159 2488 1159 1978 
L 1159 0 
L 581 0 
L 581 3500 
L 1159 3500 
L 1159 2956 
Q 1356 3278 1631 3431 
Q 1906 3584 2284 3584 
Q 2666 3584 2933 3390 
Q 3200 3197 3328 2828 
z
" transform="scale(0.015625)"/>
     <path id="DejaVuSans-49" d="M 2375 4863 
L 2375 4384 
L 1825 4384 
Q 1516 4384 1395 4259 
Q 1275 4134 1275 3809 
L 1275 3500 
L 2222 3500 
L 2222 3053 
L 1275 3053 
L 1275 0 
L 697 0 
L 697 3053 
L 147 3053 
L 147 3500 
L 697 3500 
L 697 3744 
Q 697 4328 969 4595 
Q 1241 4863 1831 4863 
L 2375 4863 
z
" transform="scale(0.015625)"/>
     <path id="DejaVuSans-36" d="M 3425 4513 
L 3425 3897 
Q 3066 4069 2747 4153 
Q 2428 4238 2131 4238 
Q 1616 4238 1336 4038 
Q 1056 3838 1056 3469 
Q 1056 3159 1242 3001 
Q 1428 2844 1947 2747 
L 2328 2669 
Q 3034 2534 3370 2195 
Q 3706 1856 3706 1288 
Q 3706 609 3251 259 
Q 2797 -91 1919 -91 
Q 1588 -91 1214 -16 
Q 841 59 441 206 
L 441 856 
Q 825 641 1194 531 
Q 1563 422 1919 422 
Q 2459 422 2753 634 
Q 3047 847 3047 1241 
Q 3047 1584 2836 1778 
Q 2625 1972 2144 2069 
L 1759 2144 
Q 1053 2284 737 2584 
Q 422 2884 422 3419 
Q 422 4038 858 4394 
Q 1294 4750 2059 4750 
Q 2388 4750 2728 4690 
Q 3069 4631 3425 4513 
z
" transform="scale(0.015625)"/>
     <path id="DejaVuSans-26" d="M 4122 4306 
L 4122 3641 
Q 3803 3938 3442 4084 
Q 3081 4231 2675 4231 
Q 1875 4231 1450 3742 
Q 1025 3253 1025 2328 
Q 1025 1406 1450 917 
Q 1875 428 2675 428 
Q 3081 428 3442 575 
Q 3803 722 4122 1019 
L 4122 359 
Q 3791 134 3420 21 
Q 3050 -91 2638 -91 
Q 1578 -91 968 557 
Q 359 1206 359 2328 
Q 359 3453 968 4101 
Q 1578 4750 2638 4750 
Q 3056 4750 3426 4639 
Q 3797 4528 4122 4306 
z
" transform="scale(0.015625)"/>
     <path id="DejaVuSans-11" d="M 684 794 
L 1344 794 
L 1344 0 
L 684 0 
L 684 794 
z
" transform="scale(0.015625)"/>
     <path id="DejaVuSans-2c" d="M 628 4666 
L 1259 4666 
L 1259 0 
L 628 0 
L 628 4666 
z
" transform="scale(0.015625)"/>
     <path id="DejaVuSans-13b0" d="M 1831 4863 
L 3431 4863 
L 3431 0 
L 2853 0 
L 2853 4384 
L 1825 4384 
Q 1516 4384 1395 4259 
Q 1275 4134 1275 3809 
L 1275 3500 
L 2222 3500 
L 2222 3053 
L 1275 3053 
L 1275 0 
L 697 0 
L 697 3053 
L 147 3053 
L 147 3500 
L 697 3500 
L 697 3744 
Q 697 4328 969 4595 
Q 1241 4863 1831 4863 
z
" transform="scale(0.015625)"/>
     <path id="DejaVuSans-f" d="M 750 794 
L 1409 794 
L 1409 256 
L 897 -744 
L 494 -744 
L 750 256 
L 750 794 
z
" transform="scale(0.015625)"/>
    </defs>
    <use xlink:href="#DejaVuSans-37"/>
    <use xlink:href="#DejaVuSans-4b" transform="translate(61.078125 0)"/>
    <use xlink:href="#DejaVuSans-48" transform="translate(124.453125 0)"/>
    <use xlink:href="#DejaVuSans-3" transform="translate(185.984375 0)"/>
    <use xlink:href="#DejaVuSans-5a" transform="translate(217.765625 0)"/>
    <use xlink:href="#DejaVuSans-44" transform="translate(299.546875 0)"/>
    <use xlink:href="#DejaVuSans-57" transform="translate(360.828125 0)"/>
    <use xlink:href="#DejaVuSans-48" transform="translate(400.03125 0)"/>
    <use xlink:href="#DejaVuSans-55" transform="translate(461.5625 0)"/>
    <use xlink:href="#DejaVuSans-3" transform="translate(502.671875 0)"/>
    <use xlink:href="#DejaVuSans-59" transform="translate(534.453125 0)"/>
    <use xlink:href="#DejaVuSans-44" transform="translate(593.640625 0)"/>
    <use xlink:href="#DejaVuSans-4f" transform="translate(654.921875 0)"/>
    <use xlink:href="#DejaVuSans-58" transform="translate(682.703125 0)"/>
    <use xlink:href="#DejaVuSans-48" transform="translate(746.078125 0)"/>
    <use xlink:href="#DejaVuSans-3" transform="translate(807.609375 0)"/>
    <use xlink:href="#DejaVuSans-4c" transform="translate(839.390625 0)"/>
    <use xlink:href="#DejaVuSans-56" transform="translate(867.171875 0)"/>
    <use xlink:href="#DejaVuSans-3" transform="translate(919.265625 0)"/>
    <use xlink:href="#DejaVuSans-57" transform="translate(951.046875 0)"/>
    <use xlink:href="#DejaVuSans-4b" transform="translate(990.25 0)"/>
    <use xlink:href="#DejaVuSans-48" transform="translate(1053.625 0)"/>
    <use xlink:href="#DejaVuSans-3" transform="translate(1115.15625 0)"/>
    <use xlink:href="#DejaVuSans-50" transform="translate(1146.9375 0)"/>
    <use xlink:href="#DejaVuSans-44" transform="translate(1244.34375 0)"/>
    <use xlink:href="#DejaVuSans-55" transform="translate(1305.625 0)"/>
    <use xlink:href="#DejaVuSans-4a" transform="translate(1344.984375 0)"/>
    <use xlink:href="#DejaVuSans-4c" transform="translate(1408.46875 0)"/>
    <use xlink:href="#DejaVuSans-51" transform="translate(1436.25 0)"/>
    <use xlink:href="#DejaVuSans-44" transform="translate(1499.625 0)"/>
    <use xlink:href="#DejaVuSans-4f" transform="translate(1560.90625 0)"/>
    <use xlink:href="#DejaVuSans-3" transform="translate(1588.6875 0)"/>
    <use xlink:href="#DejaVuSans-5a" transform="translate(1620.46875 0)"/>
    <use xlink:href="#DejaVuSans-52" transform="translate(1702.25 0)"/>
    <use xlink:href="#DejaVuSans-55" transform="translate(1763.4375 0)"/>
    <use xlink:href="#DejaVuSans-57" transform="translate(1804.546875 0)"/>
    <use xlink:href="#DejaVuSans-4b" transform="translate(1843.75 0)"/>
    <use xlink:href="#DejaVuSans-3" transform="translate(1907.125 0)"/>
    <use xlink:href="#DejaVuSans-52" transform="translate(1938.90625 0)"/>
    <use xlink:href="#DejaVuSans-49" transform="translate(2000.09375 0)"/>
    <use xlink:href="#DejaVuSans-3" transform="translate(2035.296875 0)"/>
    <use xlink:href="#DejaVuSans-56" transform="translate(2067.078125 0)"/>
    <use xlink:href="#DejaVuSans-57" transform="translate(2119.171875 0)"/>
    <use xlink:href="#DejaVuSans-52" transform="translate(2158.375 0)"/>
    <use xlink:href="#DejaVuSans-55" transform="translate(2219.5625 0)"/>
    <use xlink:href="#DejaVuSans-48" transform="translate(2258.46875 0)"/>
    <use xlink:href="#DejaVuSans-47" transform="translate(2320 0)"/>
    <use xlink:href="#DejaVuSans-3" transform="translate(2383.484375 0)"/>
    <use xlink:href="#DejaVuSans-48" transform="translate(2415.265625 0)"/>
    <use xlink:href="#DejaVuSans-51" transform="translate(2476.796875 0)"/>
    <use xlink:href="#DejaVuSans-48" transform="translate(2540.171875 0)"/>
    <use xlink:href="#DejaVuSans-55" transform="translate(2601.703125 0)"/>
    <use xlink:href="#DejaVuSans-4a" transform="translate(2641.0625 0)"/>
    <use xlink:href="#DejaVuSans-5c" transform="translate(2704.546875 0)"/>
    <use xlink:href="#DejaVuSans-3" transform="translate(2763.734375 0)"/>
    <use xlink:href="#DejaVuSans-b" transform="translate(2795.515625 0)"/>
    <use xlink:href="#DejaVuSans-57" transform="translate(2834.53125 0)"/>
    <use xlink:href="#DejaVuSans-4b" transform="translate(2873.734375 0)"/>
    <use xlink:href="#DejaVuSans-48" transform="translate(2937.109375 0)"/>
    <use xlink:href="#DejaVuSans-3" transform="translate(2998.640625 0)"/>
    <use xlink:href="#DejaVuSans-36" transform="translate(3030.421875 0)"/>
    <use xlink:href="#DejaVuSans-52" transform="translate(3093.90625 0)"/>
    <use xlink:href="#DejaVuSans-26" transform="translate(3155.09375 0)"/>
    <use xlink:href="#DejaVuSans-10" transform="translate(3224.921875 0)"/>
    <use xlink:href="#DejaVuSans-45" transform="translate(3261 0)"/>
    <use xlink:href="#DejaVuSans-44" transform="translate(3324.484375 0)"/>
    <use xlink:href="#DejaVuSans-4f" transform="translate(3385.765625 0)"/>
    <use xlink:href="#DejaVuSans-44" transform="translate(3413.546875 0)"/>
    <use xlink:href="#DejaVuSans-51" transform="translate(3474.828125 0)"/>
    <use xlink:href="#DejaVuSans-46" transform="translate(3538.203125 0)"/>
    <use xlink:href="#DejaVuSans-48" transform="translate(3593.1875 0)"/>
    <use xlink:href="#DejaVuSans-3" transform="translate(3654.71875 0)"/>
    <use xlink:href="#DejaVuSans-47" transform="translate(3686.5 0)"/>
    <use xlink:href="#DejaVuSans-58" transform="translate(3749.984375 0)"/>
    <use xlink:href="#DejaVuSans-44" transform="translate(3813.359375 0)"/>
    <use xlink:href="#DejaVuSans-4f" transform="translate(3874.640625 0)"/>
    <use xlink:href="#DejaVuSans-c" transform="translate(3902.421875 0)"/>
    <use xlink:href="#DejaVuSans-11" transform="translate(3941.4375 0)"/>
    <use xlink:href="#DejaVuSans-3" transform="translate(3973.21875 0)"/>
    <use xlink:href="#DejaVuSans-2c" transform="translate(4005 0)"/>
    <use xlink:href="#DejaVuSans-57" transform="translate(4034.5 0)"/>
    <use xlink:href="#DejaVuSans-3" transform="translate(4073.703125 0)"/>
    <use xlink:href="#DejaVuSans-4c" transform="translate(4105.484375 0)"/>
    <use xlink:href="#DejaVuSans-56" transform="translate(4133.265625 0)"/>
    <use xlink:href="#DejaVuSans-3" transform="translate(4185.359375 0)"/>
    <use xlink:href="#DejaVuSans-13b0" transform="translate(4217.140625 0)"/>
    <use xlink:href="#DejaVuSans-44" transform="translate(4280.125 0)"/>
    <use xlink:href="#DejaVuSans-57" transform="translate(4341.40625 0)"/>
    <use xlink:href="#DejaVuSans-3" transform="translate(4380.609375 0)"/>
    <use xlink:href="#DejaVuSans-5a" transform="translate(4412.390625 0)"/>
    <use xlink:href="#DejaVuSans-4b" transform="translate(4494.171875 0)"/>
    <use xlink:href="#DejaVuSans-4c" transform="translate(4557.546875 0)"/>
    <use xlink:href="#DejaVuSans-4f" transform="translate(4585.328125 0)"/>
    <use xlink:href="#DejaVuSans-48" transform="translate(4613.109375 0)"/>
    <use xlink:href="#DejaVuSans-3" transform="translate(4674.640625 0)"/>
    <use xlink:href="#DejaVuSans-57" transform="translate(4706.421875 0)"/>
    <use xlink:href="#DejaVuSans-4b" transform="translate(4745.625 0)"/>
    <use xlink:href="#DejaVuSans-48" transform="translate(4809 0)"/>
    <use xlink:href="#DejaVuSans-3" transform="translate(4870.53125 0)"/>
    <use xlink:href="#DejaVuSans-45" transform="translate(4902.3125 0)"/>
    <use xlink:href="#DejaVuSans-44" transform="translate(4965.796875 0)"/>
    <use xlink:href="#DejaVuSans-57" transform="translate(5027.078125 0)"/>
    <use xlink:href="#DejaVuSans-57" transform="translate(5066.28125 0)"/>
    <use xlink:href="#DejaVuSans-48" transform="translate(5105.484375 0)"/>
    <use xlink:href="#DejaVuSans-55" transform="translate(5167.015625 0)"/>
    <use xlink:href="#DejaVuSans-5c" transform="translate(5208.125 0)"/>
    <use xlink:href="#DejaVuSans-3" transform="translate(5267.3125 0)"/>
    <use xlink:href="#DejaVuSans-4b" transform="translate(5299.09375 0)"/>
    <use xlink:href="#DejaVuSans-44" transform="translate(5362.46875 0)"/>
    <use xlink:href="#DejaVuSans-56" transform="translate(5423.75 0)"/>
    <use xlink:href="#DejaVuSans-3" transform="translate(5475.84375 0)"/>
    <use xlink:href="#DejaVuSans-55" transform="translate(5507.625 0)"/>
    <use xlink:href="#DejaVuSans-52" transform="translate(5546.53125 0)"/>
    <use xlink:href="#DejaVuSans-52" transform="translate(5607.71875 0)"/>
    <use xlink:href="#DejaVuSans-50" transform="translate(5668.90625 0)"/>
    <use xlink:href="#DejaVuSans-f" transform="translate(5766.3125 0)"/>
   </g>
   <!-- and steps only where SoC hits a bound. The battery charges when the price is below the band, discharges above it, and idles inside. -->
   <g style="fill: #555555" transform="translate(55.61293 347.865303) scale(0.085 -0.085)">
    <use xlink:href="#DejaVuSans-44"/>
    <use xlink:href="#DejaVuSans-51" transform="translate(61.28125 0)"/>
    <use xlink:href="#DejaVuSans-47" transform="translate(124.65625 0)"/>
    <use xlink:href="#DejaVuSans-3" transform="translate(188.140625 0)"/>
    <use xlink:href="#DejaVuSans-56" transform="translate(219.921875 0)"/>
    <use xlink:href="#DejaVuSans-57" transform="translate(272.015625 0)"/>
    <use xlink:href="#DejaVuSans-48" transform="translate(311.21875 0)"/>
    <use xlink:href="#DejaVuSans-53" transform="translate(372.75 0)"/>
    <use xlink:href="#DejaVuSans-56" transform="translate(436.234375 0)"/>
    <use xlink:href="#DejaVuSans-3" transform="translate(488.328125 0)"/>
    <use xlink:href="#DejaVuSans-52" transform="translate(520.109375 0)"/>
    <use xlink:href="#DejaVuSans-51" transform="translate(581.296875 0)"/>
    <use xlink:href="#DejaVuSans-4f" transform="translate(644.671875 0)"/>
    <use xlink:href="#DejaVuSans-5c" transform="translate(672.453125 0)"/>
    <use xlink:href="#DejaVuSans-3" transform="translate(731.640625 0)"/>
    <use xlink:href="#DejaVuSans-5a" transform="translate(763.421875 0)"/>
    <use xlink:href="#DejaVuSans-4b" transform="translate(845.203125 0)"/>
    <use xlink:href="#DejaVuSans-48" transform="translate(908.578125 0)"/>
    <use xlink:href="#DejaVuSans-55" transform="translate(970.109375 0)"/>
    <use xlink:href="#DejaVuSans-48" transform="translate(1009.015625 0)"/>
    <use xlink:href="#DejaVuSans-3" transform="translate(1070.546875 0)"/>
    <use xlink:href="#DejaVuSans-36" transform="translate(1102.328125 0)"/>
    <use xlink:href="#DejaVuSans-52" transform="translate(1165.8125 0)"/>
    <use xlink:href="#DejaVuSans-26" transform="translate(1227 0)"/>
    <use xlink:href="#DejaVuSans-3" transform="translate(1296.828125 0)"/>
    <use xlink:href="#DejaVuSans-4b" transform="translate(1328.609375 0)"/>
    <use xlink:href="#DejaVuSans-4c" transform="translate(1391.984375 0)"/>
    <use xlink:href="#DejaVuSans-57" transform="translate(1419.765625 0)"/>
    <use xlink:href="#DejaVuSans-56" transform="translate(1458.96875 0)"/>
    <use xlink:href="#DejaVuSans-3" transform="translate(1511.0625 0)"/>
    <use xlink:href="#DejaVuSans-44" transform="translate(1542.84375 0)"/>
    <use xlink:href="#DejaVuSans-3" transform="translate(1604.125 0)"/>
    <use xlink:href="#DejaVuSans-45" transform="translate(1635.90625 0)"/>
    <use xlink:href="#DejaVuSans-52" transform="translate(1699.390625 0)"/>
    <use xlink:href="#DejaVuSans-58" transform="translate(1760.578125 0)"/>
    <use xlink:href="#DejaVuSans-51" transform="translate(1823.953125 0)"/>
    <use xlink:href="#DejaVuSans-47" transform="translate(1887.328125 0)"/>
    <use xlink:href="#DejaVuSans-11" transform="translate(1950.8125 0)"/>
    <use xlink:href="#DejaVuSans-3" transform="translate(1982.59375 0)"/>
    <use xlink:href="#DejaVuSans-37" transform="translate(2014.375 0)"/>
    <use xlink:href="#DejaVuSans-4b" transform="translate(2075.453125 0)"/>
    <use xlink:href="#DejaVuSans-48" transform="translate(2138.828125 0)"/>
    <use xlink:href="#DejaVuSans-3" transform="translate(2200.359375 0)"/>
    <use xlink:href="#DejaVuSans-45" transform="translate(2232.140625 0)"/>
    <use xlink:href="#DejaVuSans-44" transform="translate(2295.625 0)"/>
    <use xlink:href="#DejaVuSans-57" transform="translate(2356.90625 0)"/>
    <use xlink:href="#DejaVuSans-57" transform="translate(2396.109375 0)"/>
    <use xlink:href="#DejaVuSans-48" transform="translate(2435.3125 0)"/>
    <use xlink:href="#DejaVuSans-55" transform="translate(2496.84375 0)"/>
    <use xlink:href="#DejaVuSans-5c" transform="translate(2537.953125 0)"/>
    <use xlink:href="#DejaVuSans-3" transform="translate(2597.140625 0)"/>
    <use xlink:href="#DejaVuSans-46" transform="translate(2628.921875 0)"/>
    <use xlink:href="#DejaVuSans-4b" transform="translate(2683.90625 0)"/>
    <use xlink:href="#DejaVuSans-44" transform="translate(2747.28125 0)"/>
    <use xlink:href="#DejaVuSans-55" transform="translate(2808.5625 0)"/>
    <use xlink:href="#DejaVuSans-4a" transform="translate(2847.921875 0)"/>
    <use xlink:href="#DejaVuSans-48" transform="translate(2911.40625 0)"/>
    <use xlink:href="#DejaVuSans-56" transform="translate(2972.9375 0)"/>
    <use xlink:href="#DejaVuSans-3" transform="translate(3025.03125 0)"/>
    <use xlink:href="#DejaVuSans-5a" transform="translate(3056.8125 0)"/>
    <use xlink:href="#DejaVuSans-4b" transform="translate(3138.59375 0)"/>
    <use xlink:href="#DejaVuSans-48" transform="translate(3201.96875 0)"/>
    <use xlink:href="#DejaVuSans-51" transform="translate(3263.5 0)"/>
    <use xlink:href="#DejaVuSans-3" transform="translate(3326.875 0)"/>
    <use xlink:href="#DejaVuSans-57" transform="translate(3358.65625 0)"/>
    <use xlink:href="#DejaVuSans-4b" transform="translate(3397.859375 0)"/>
    <use xlink:href="#DejaVuSans-48" transform="translate(3461.234375 0)"/>
    <use xlink:href="#DejaVuSans-3" transform="translate(3522.765625 0)"/>
    <use xlink:href="#DejaVuSans-53" transform="translate(3554.546875 0)"/>
    <use xlink:href="#DejaVuSans-55" transform="translate(3618.03125 0)"/>
    <use xlink:href="#DejaVuSans-4c" transform="translate(3659.140625 0)"/>
    <use xlink:href="#DejaVuSans-46" transform="translate(3686.921875 0)"/>
    <use xlink:href="#DejaVuSans-48" transform="translate(3741.90625 0)"/>
    <use xlink:href="#DejaVuSans-3" transform="translate(3803.4375 0)"/>
    <use xlink:href="#DejaVuSans-4c" transform="translate(3835.21875 0)"/>
    <use xlink:href="#DejaVuSans-56" transform="translate(3863 0)"/>
    <use xlink:href="#DejaVuSans-3" transform="translate(3915.09375 0)"/>
    <use xlink:href="#DejaVuSans-45" transform="translate(3946.875 0)"/>
    <use xlink:href="#DejaVuSans-48" transform="translate(4010.359375 0)"/>
    <use xlink:href="#DejaVuSans-4f" transform="translate(4071.890625 0)"/>
    <use xlink:href="#DejaVuSans-52" transform="translate(4099.671875 0)"/>
    <use xlink:href="#DejaVuSans-5a" transform="translate(4160.859375 0)"/>
    <use xlink:href="#DejaVuSans-3" transform="translate(4242.640625 0)"/>
    <use xlink:href="#DejaVuSans-57" transform="translate(4274.421875 0)"/>
    <use xlink:href="#DejaVuSans-4b" transform="translate(4313.625 0)"/>
    <use xlink:href="#DejaVuSans-48" transform="translate(4377 0)"/>
    <use xlink:href="#DejaVuSans-3" transform="translate(4438.53125 0)"/>
    <use xlink:href="#DejaVuSans-45" transform="translate(4470.3125 0)"/>
    <use xlink:href="#DejaVuSans-44" transform="translate(4533.796875 0)"/>
    <use xlink:href="#DejaVuSans-51" transform="translate(4595.078125 0)"/>
    <use xlink:href="#DejaVuSans-47" transform="translate(4658.453125 0)"/>
    <use xlink:href="#DejaVuSans-f" transform="translate(4721.9375 0)"/>
    <use xlink:href="#DejaVuSans-3" transform="translate(4753.71875 0)"/>
    <use xlink:href="#DejaVuSans-47" transform="translate(4785.5 0)"/>
    <use xlink:href="#DejaVuSans-4c" transform="translate(4848.984375 0)"/>
    <use xlink:href="#DejaVuSans-56" transform="translate(4876.765625 0)"/>
    <use xlink:href="#DejaVuSans-46" transform="translate(4928.859375 0)"/>
    <use xlink:href="#DejaVuSans-4b" transform="translate(4983.84375 0)"/>
    <use xlink:href="#DejaVuSans-44" transform="translate(5047.21875 0)"/>
    <use xlink:href="#DejaVuSans-55" transform="translate(5108.5 0)"/>
    <use xlink:href="#DejaVuSans-4a" transform="translate(5147.859375 0)"/>
    <use xlink:href="#DejaVuSans-48" transform="translate(5211.34375 0)"/>
    <use xlink:href="#DejaVuSans-56" transform="translate(5272.875 0)"/>
    <use xlink:href="#DejaVuSans-3" transform="translate(5324.96875 0)"/>
    <use xlink:href="#DejaVuSans-44" transform="translate(5356.75 0)"/>
    <use xlink:href="#DejaVuSans-45" transform="translate(5418.03125 0)"/>
    <use xlink:href="#DejaVuSans-52" transform="translate(5481.515625 0)"/>
    <use xlink:href="#DejaVuSans-59" transform="translate(5542.703125 0)"/>
    <use xlink:href="#DejaVuSans-48" transform="translate(5601.890625 0)"/>
    <use xlink:href="#DejaVuSans-3" transform="translate(5663.421875 0)"/>
    <use xlink:href="#DejaVuSans-4c" transform="translate(5695.203125 0)"/>
    <use xlink:href="#DejaVuSans-57" transform="translate(5722.984375 0)"/>
    <use xlink:href="#DejaVuSans-f" transform="translate(5762.1875 0)"/>
    <use xlink:href="#DejaVuSans-3" transform="translate(5793.96875 0)"/>
    <use xlink:href="#DejaVuSans-44" transform="translate(5825.75 0)"/>
    <use xlink:href="#DejaVuSans-51" transform="translate(5887.03125 0)"/>
    <use xlink:href="#DejaVuSans-47" transform="translate(5950.40625 0)"/>
    <use xlink:href="#DejaVuSans-3" transform="translate(6013.890625 0)"/>
    <use xlink:href="#DejaVuSans-4c" transform="translate(6045.671875 0)"/>
    <use xlink:href="#DejaVuSans-47" transform="translate(6073.453125 0)"/>
    <use xlink:href="#DejaVuSans-4f" transform="translate(6136.9375 0)"/>
    <use xlink:href="#DejaVuSans-48" transform="translate(6164.71875 0)"/>
    <use xlink:href="#DejaVuSans-56" transform="translate(6226.25 0)"/>
    <use xlink:href="#DejaVuSans-3" transform="translate(6278.34375 0)"/>
    <use xlink:href="#DejaVuSans-4c" transform="translate(6310.125 0)"/>
    <use xlink:href="#DejaVuSans-51" transform="translate(6337.90625 0)"/>
    <use xlink:href="#DejaVuSans-56" transform="translate(6401.28125 0)"/>
    <use xlink:href="#DejaVuSans-4c" transform="translate(6453.375 0)"/>
    <use xlink:href="#DejaVuSans-47" transform="translate(6481.15625 0)"/>
    <use xlink:href="#DejaVuSans-48" transform="translate(6544.640625 0)"/>
    <use xlink:href="#DejaVuSans-11" transform="translate(6606.171875 0)"/>
   </g>
  </g>
 </g>
 <defs>
  <clipPath id="pf9c449d372">
   <rect x="47.288281" y="22.318125" width="621.637656" height="262.917656"/>
  </clipPath>
 </defs>
</svg>
