<?xml version="1.0" encoding="utf-8" standalone="no"?>
<!DOCTYPE svg PUBLIC "-//W3C//DTD SVG 1.1//EN"
  "http://www.w3.org/Graphics/SVG/1.1/DTD/svg11.dtd">
<svg xmlns:xlink="http://www.w3.org/1999/xlink" width="636.891745pt" height="316.236563pt" viewBox="0 0 636.891745 316.236563" xmlns="http://www.w3.org/2000/svg" version="1.1">
 <metadata>
  <rdf:RDF xmlns:dc="http://purl.org/dc/elements/1.1/" xmlns:cc="http://creativecommons.org/ns#" xmlns:rdf="http://www.w3.org/1999/02/22-rdf-syntax-ns#">
   <cc:Work>
    <dc:type rdf:resource="http://purl.org/dc/dcmitype/StillImage"/>
    <dc:date>2026-06-26T23:44:41.822333</dc:date>
    <dc:format>image/svg+xml</dc:format>
    <dc:creator>
     <cc:Agent>
      <dc:title>Matplotlib v3.11.0, https://matplotlib.org/</dc:title>
     </cc:Agent>
    </dc:creator>
   </cc:Work>
  </rdf:RDF>
 </metadata>
 <defs>
  <style type="text/css">*{stroke-linejoin: round; stroke-linecap: butt}</style>
 </defs>
 <g id="figure_1">
  <g id="patch_1">
   <path d="M 0 316.236563 
L 636.891745 316.236563 
L 636.891745 0 
L 0 0 
z
" style="fill: #ffffff"/>
  </g>
  <g id="axes_1">
   <g id="patch_2">
    <path d="M 58.846094 278.035781 
L 538.417406 278.035781 
L 538.417406 22.318125 
L 58.846094 22.318125 
z
" style="fill: #ffffff"/>
   </g>
   <g id="patch_3">
    <path d="M 80.64479 147.196561 
L 95.299375 147.196561 
L 95.299375 147.196561 
L 80.64479 147.196561 
z
" clip-path="url(#p788279fc12)" style="fill: #2a9d8f; opacity: 0.85"/>
   </g>
   <g id="patch_4">
    <path d="M 98.963022 147.196561 
L 113.617607 147.196561 
L 113.617607 147.196561 
L 98.963022 147.196561 
z
" clip-path="url(#p788279fc12)" style="fill: #2a9d8f; opacity: 0.85"/>
   </g>
   <g id="patch_5">
    <path d="M 117.281254 147.196561 
L 131.935839 147.196561 
L 131.935839 266.412251 
L 117.281254 266.412251 
z
" clip-path="url(#p788279fc12)" style="fill: #e76f51; opacity: 0.85"/>
   </g>
   <g id="patch_6">
    <path d="M 135.599486 147.196561 
L 150.254071 147.196561 
L 150.254071 147.196561 
L 135.599486 147.196561 
z
" clip-path="url(#p788279fc12)" style="fill: #2a9d8f; opacity: 0.85"/>
   </g>
   <g id="patch_7">
    <path d="M 153.917718 147.196561 
L 168.572303 147.196561 
L 168.572303 147.196561 
L 153.917718 147.196561 
z
" clip-path="url(#p788279fc12)" style="fill: #2a9d8f; opacity: 0.85"/>
   </g>
   <g id="patch_8">
    <path d="M 172.23595 147.196561 
L 186.890535 147.196561 
L 186.890535 153.471071 
L 172.23595 153.471071 
z
" clip-path="url(#p788279fc12)" style="fill: #e76f51; opacity: 0.85"/>
   </g>
   <g id="patch_9">
    <path d="M 190.554181 147.196561 
L 205.208767 147.196561 
L 205.208767 147.196561 
L 190.554181 147.196561 
z
" clip-path="url(#p788279fc12)" style="fill: #2a9d8f; opacity: 0.85"/>
   </g>
   <g id="patch_10">
    <path d="M 208.872413 147.196561 
L 223.526999 147.196561 
L 223.526999 147.196561 
L 208.872413 147.196561 
z
" clip-path="url(#p788279fc12)" style="fill: #2a9d8f; opacity: 0.85"/>
   </g>
   <g id="patch_11">
    <path d="M 227.190645 147.196561 
L 241.845231 147.196561 
L 241.845231 147.196561 
L 227.190645 147.196561 
z
" clip-path="url(#p788279fc12)" style="fill: #2a9d8f; opacity: 0.85"/>
   </g>
   <g id="patch_12">
    <path d="M 245.508877 147.196561 
L 260.163463 147.196561 
L 260.163463 33.941655 
L 245.508877 33.941655 
z
" clip-path="url(#p788279fc12)" style="fill: #2a9d8f; opacity: 0.85"/>
   </g>
   <g id="patch_13">
    <path d="M 263.827109 147.196561 
L 278.481695 147.196561 
L 278.481695 147.196561 
L 263.827109 147.196561 
z
" clip-path="url(#p788279fc12)" style="fill: #2a9d8f; opacity: 0.85"/>
   </g>
   <g id="patch_14">
    <path d="M 282.145341 147.196561 
L 296.799927 147.196561 
L 296.799927 266.412251 
L 282.145341 266.412251 
z
" clip-path="url(#p788279fc12)" style="fill: #e76f51; opacity: 0.85"/>
   </g>
   <g id="patch_15">
    <path d="M 300.463573 147.196561 
L 315.118159 147.196561 
L 315.118159 39.6044 
L 300.463573 39.6044 
z
" clip-path="url(#p788279fc12)" style="fill: #2a9d8f; opacity: 0.85"/>
   </g>
   <g id="patch_16">
    <path d="M 318.781805 147.196561 
L 333.436391 147.196561 
L 333.436391 266.412251 
L 318.781805 266.412251 
z
" clip-path="url(#p788279fc12)" style="fill: #e76f51; opacity: 0.85"/>
   </g>
   <g id="patch_17">
    <path d="M 337.100037 147.196561 
L 351.754623 147.196561 
L 351.754623 153.471071 
L 337.100037 153.471071 
z
" clip-path="url(#p788279fc12)" style="fill: #e76f51; opacity: 0.85"/>
   </g>
   <g id="patch_18">
    <path d="M 355.418269 147.196561 
L 370.072855 147.196561 
L 370.072855 147.196561 
L 355.418269 147.196561 
z
" clip-path="url(#p788279fc12)" style="fill: #2a9d8f; opacity: 0.85"/>
   </g>
   <g id="patch_19">
    <path d="M 373.736501 147.196561 
L 388.391087 147.196561 
L 388.391087 147.196561 
L 373.736501 147.196561 
z
" clip-path="url(#p788279fc12)" style="fill: #2a9d8f; opacity: 0.85"/>
   </g>
   <g id="patch_20">
    <path d="M 392.054733 147.196561 
L 406.709319 147.196561 
L 406.709319 147.196561 
L 392.054733 147.196561 
z
" clip-path="url(#p788279fc12)" style="fill: #2a9d8f; opacity: 0.85"/>
   </g>
   <g id="patch_21">
    <path d="M 410.372965 147.196561 
L 425.02755 147.196561 
L 425.02755 147.196561 
L 410.372965 147.196561 
z
" clip-path="url(#p788279fc12)" style="fill: #2a9d8f; opacity: 0.85"/>
   </g>
   <g id="patch_22">
    <path d="M 428.691197 147.196561 
L 443.345782 147.196561 
L 443.345782 147.196561 
L 428.691197 147.196561 
z
" clip-path="url(#p788279fc12)" style="fill: #2a9d8f; opacity: 0.85"/>
   </g>
   <g id="patch_23">
    <path d="M 447.009429 147.196561 
L 461.664014 147.196561 
L 461.664014 147.196561 
L 447.009429 147.196561 
z
" clip-path="url(#p788279fc12)" style="fill: #2a9d8f; opacity: 0.85"/>
   </g>
   <g id="patch_24">
    <path d="M 465.327661 147.196561 
L 479.982246 147.196561 
L 479.982246 33.941655 
L 465.327661 33.941655 
z
" clip-path="url(#p788279fc12)" style="fill: #2a9d8f; opacity: 0.85"/>
   </g>
   <g id="patch_25">
    <path d="M 483.645893 147.196561 
L 498.300478 147.196561 
L 498.300478 147.196561 
L 483.645893 147.196561 
z
" clip-path="url(#p788279fc12)" style="fill: #2a9d8f; opacity: 0.85"/>
   </g>
   <g id="patch_26">
    <path d="M 501.964125 147.196561 
L 516.61871 147.196561 
L 516.61871 147.196561 
L 501.964125 147.196561 
z
" clip-path="url(#p788279fc12)" style="fill: #2a9d8f; opacity: 0.85"/>
   </g>
   <g id="matplotlib.axis_1">
    <g id="xtick_1">
     <g id="line2d_1">
      <defs>
       <path id="m03c8c4c519" d="M 0 0 
L 0 3.5 
" style="stroke: #000000; stroke-width: 0.8"/>
      </defs>
      <g>
       <use xlink:href="#m03c8c4c519" x="87.972083" y="278.035781" style="stroke: #000000; stroke-width: 0.8"/>
      </g>
     </g>
     <g id="text_1">
      <!-- 0 -->
      <g transform="translate(84.790833 292.633438) scale(0.1 -0.1)">
       <defs>
        <path id="DejaVuSans-13" d="M 2034 4250 
Q 1547 4250 1301 3770 
Q 1056 3291 1056 2328 
Q 1056 1369 1301 889 
Q 1547 409 2034 409 
Q 2525 409 2770 889 
Q 3016 1369 3016 2328 
Q 3016 3291 2770 3770 
Q 2525 4250 2034 4250 
z
M 2034 4750 
Q 2819 4750 3233 4129 
Q 3647 3509 3647 2328 
Q 3647 1150 3233 529 
Q 2819 -91 2034 -91 
Q 1250 -91 836 529 
Q 422 1150 422 2328 
Q 422 3509 836 4129 
Q 1250 4750 2034 4750 
z
" transform="scale(0.015625)"/>
       </defs>
       <use xlink:href="#DejaVuSans-13"/>
      </g>
     </g>
    </g>
    <g id="xtick_2">
     <g id="line2d_2">
      <g>
       <use xlink:href="#m03c8c4c519" x="124.608546" y="278.035781" style="stroke: #000000; stroke-width: 0.8"/>
      </g>
     </g>
     <g id="text_2">
      <!-- 2 -->
      <g transform="translate(121.427296 292.633438) scale(0.1 -0.1)">
       <defs>
        <path id="DejaVuSans-15" d="M 1228 531 
L 3431 531 
L 3431 0 
L 469 0 
L 469 531 
Q 828 903 1448 1529 
Q 2069 2156 2228 2338 
Q 2531 2678 2651 2914 
Q 2772 3150 2772 3378 
Q 2772 3750 2511 3984 
Q 2250 4219 1831 4219 
Q 1534 4219 1204 4116 
Q 875 4013 500 3803 
L 500 4441 
Q 881 4594 1212 4672 
Q 1544 4750 1819 4750 
Q 2544 4750 2975 4387 
Q 3406 4025 3406 3419 
Q 3406 3131 3298 2873 
Q 3191 2616 2906 2266 
Q 2828 2175 2409 1742 
Q 1991 1309 1228 531 
z
" transform="scale(0.015625)"/>
       </defs>
       <use xlink:href="#DejaVuSans-15"/>
      </g>
     </g>
    </g>
    <g id="xtick_3">
     <g id="line2d_3">
      <g>
       <use xlink:href="#m03c8c4c519" x="161.24501" y="278.035781" style="stroke: #000000; stroke-width: 0.8"/>
      </g>
     </g>
     <g id="text_3">
      <!-- 4 -->
      <g transform="translate(158.06376 292.633438) scale(0.1 -0.1)">
       <defs>
        <path id="DejaVuSans-17" d="M 2419 4116 
L 825 1625 
L 2419 1625 
L 2419 4116 
z
M 2253 4666 
L 3047 4666 
L 3047 1625 
L 3713 1625 
L 3713 1100 
L 3047 1100 
L 3047 0 
L 2419 0 
L 2419 1100 
L 313 1100 
L 313 1709 
L 2253 4666 
z
" transform="scale(0.015625)"/>
       </defs>
       <use xlink:href="#DejaVuSans-17"/>
      </g>
     </g>
    </g>
    <g id="xtick_4">
     <g id="line2d_4">
      <g>
       <use xlink:href="#m03c8c4c519" x="197.881474" y="278.035781" style="stroke: #000000; stroke-width: 0.8"/>
      </g>
     </g>
     <g id="text_4">
      <!-- 6 -->
      <g transform="translate(194.700224 292.633438) scale(0.1 -0.1)">
       <defs>
        <path id="DejaVuSans-19" d="M 2113 2584 
Q 1688 2584 1439 2293 
Q 1191 2003 1191 1497 
Q 1191 994 1439 701 
Q 1688 409 2113 409 
Q 2538 409 2786 701 
Q 3034 994 3034 1497 
Q 3034 2003 2786 2293 
Q 2538 2584 2113 2584 
z
M 3366 4563 
L 3366 3988 
Q 3128 4100 2886 4159 
Q 2644 4219 2406 4219 
Q 1781 4219 1451 3797 
Q 1122 3375 1075 2522 
Q 1259 2794 1537 2939 
Q 1816 3084 2150 3084 
Q 2853 3084 3261 2657 
Q 3669 2231 3669 1497 
Q 3669 778 3244 343 
Q 2819 -91 2113 -91 
Q 1303 -91 875 529 
Q 447 1150 447 2328 
Q 447 3434 972 4092 
Q 1497 4750 2381 4750 
Q 2619 4750 2861 4703 
Q 3103 4656 3366 4563 
z
" transform="scale(0.015625)"/>
       </defs>
       <use xlink:href="#DejaVuSans-19"/>
      </g>
     </g>
    </g>
    <g id="xtick_5">
     <g id="line2d_5">
      <g>
       <use xlink:href="#m03c8c4c519" x="234.517938" y="278.035781" style="stroke: #000000; stroke-width: 0.8"/>
      </g>
     </g>
     <g id="text_5">
      <!-- 8 -->
      <g transform="translate(231.336688 292.633438) scale(0.1 -0.1)">
       <defs>
        <path id="DejaVuSans-1b" d="M 2034 2216 
Q 1584 2216 1326 1975 
Q 1069 1734 1069 1313 
Q 1069 891 1326 650 
Q 1584 409 2034 409 
Q 2484 409 2743 651 
Q 3003 894 3003 1313 
Q 3003 1734 2745 1975 
Q 2488 2216 2034 2216 
z
M 1403 2484 
Q 997 2584 770 2862 
Q 544 3141 544 3541 
Q 544 4100 942 4425 
Q 1341 4750 2034 4750 
Q 2731 4750 3128 4425 
Q 3525 4100 3525 3541 
Q 3525 3141 3298 2862 
Q 3072 2584 2669 2484 
Q 3125 2378 3379 2068 
Q 3634 1759 3634 1313 
Q 3634 634 3220 271 
Q 2806 -91 2034 -91 
Q 1263 -91 848 271 
Q 434 634 434 1313 
Q 434 1759 690 2068 
Q 947 2378 1403 2484 
z
M 1172 3481 
Q 1172 3119 1398 2916 
Q 1625 2713 2034 2713 
Q 2441 2713 2670 2916 
Q 2900 3119 2900 3481 
Q 2900 3844 2670 4047 
Q 2441 4250 2034 4250 
Q 1625 4250 1398 4047 
Q 1172 3844 1172 3481 
z
" transform="scale(0.015625)"/>
       </defs>
       <use xlink:href="#DejaVuSans-1b"/>
      </g>
     </g>
    </g>
    <g id="xtick_6">
     <g id="line2d_6">
      <g>
       <use xlink:href="#m03c8c4c519" x="271.154402" y="278.035781" style="stroke: #000000; stroke-width: 0.8"/>
      </g>
     </g>
     <g id="text_6">
      <!-- 10 -->
      <g transform="translate(264.791902 292.633438) scale(0.1 -0.1)">
       <defs>
        <path id="DejaVuSans-14" d="M 794 531 
L 1825 531 
L 1825 4091 
L 703 3866 
L 703 4441 
L 1819 4666 
L 2450 4666 
L 2450 531 
L 3481 531 
L 3481 0 
L 794 0 
L 794 531 
z
" transform="scale(0.015625)"/>
       </defs>
       <use xlink:href="#DejaVuSans-14"/>
       <use xlink:href="#DejaVuSans-13" transform="translate(63.625 0)"/>
      </g>
     </g>
    </g>
    <g id="xtick_7">
     <g id="line2d_7">
      <g>
       <use xlink:href="#m03c8c4c519" x="307.790866" y="278.035781" style="stroke: #000000; stroke-width: 0.8"/>
      </g>
     </g>
     <g id="text_7">
      <!-- 12 -->
      <g transform="translate(301.428366 292.633438) scale(0.1 -0.1)">
       <use xlink:href="#DejaVuSans-14"/>
       <use xlink:href="#DejaVuSans-15" transform="translate(63.625 0)"/>
      </g>
     </g>
    </g>
    <g id="xtick_8">
     <g id="line2d_8">
      <g>
       <use xlink:href="#m03c8c4c519" x="344.42733" y="278.035781" style="stroke: #000000; stroke-width: 0.8"/>
      </g>
     </g>
     <g id="text_8">
      <!-- 14 -->
      <g transform="translate(338.06483 292.633438) scale(0.1 -0.1)">
       <use xlink:href="#DejaVuSans-14"/>
       <use xlink:href="#DejaVuSans-17" transform="translate(63.625 0)"/>
      </g>
     </g>
    </g>
    <g id="xtick_9">
     <g id="line2d_9">
      <g>
       <use xlink:href="#m03c8c4c519" x="381.063794" y="278.035781" style="stroke: #000000; stroke-width: 0.8"/>
      </g>
     </g>
     <g id="text_9">
      <!-- 16 -->
      <g transform="translate(374.701294 292.633438) scale(0.1 -0.1)">
       <use xlink:href="#DejaVuSans-14"/>
       <use xlink:href="#DejaVuSans-19" transform="translate(63.625 0)"/>
      </g>
     </g>
    </g>
    <g id="xtick_10">
     <g id="line2d_10">
      <g>
       <use xlink:href="#m03c8c4c519" x="417.700258" y="278.035781" style="stroke: #000000; stroke-width: 0.8"/>
      </g>
     </g>
     <g id="text_10">
      <!-- 18 -->
      <g transform="translate(411.337758 292.633438) scale(0.1 -0.1)">
       <use xlink:href="#DejaVuSans-14"/>
       <use xlink:href="#DejaVuSans-1b" transform="translate(63.625 0)"/>
      </g>
     </g>
    </g>
    <g id="xtick_11">
     <g id="line2d_11">
      <g>
       <use xlink:href="#m03c8c4c519" x="454.336722" y="278.035781" style="stroke: #000000; stroke-width: 0.8"/>
      </g>
     </g>
     <g id="text_11">
      <!-- 20 -->
      <g transform="translate(447.974222 292.633438) scale(0.1 -0.1)">
       <use xlink:href="#DejaVuSans-15"/>
       <use xlink:href="#DejaVuSans-13" transform="translate(63.625 0)"/>
      </g>
     </g>
    </g>
    <g id="xtick_12">
     <g id="line2d_12">
      <g>
       <use xlink:href="#m03c8c4c519" x="490.973185" y="278.035781" style="stroke: #000000; stroke-width: 0.8"/>
      </g>
     </g>
     <g id="text_12">
      <!-- 22 -->
      <g transform="translate(484.610685 292.633438) scale(0.1 -0.1)">
       <use xlink:href="#DejaVuSans-15"/>
       <use xlink:href="#DejaVuSans-15" transform="translate(63.625 0)"/>
      </g>
     </g>
    </g>
    <g id="text_13">
     <!-- hour of day (UTC) -->
     <g transform="translate(254.58175 306.634219) scale(0.1 -0.1)">
      <defs>
       <path id="DejaVuSans-4b" d="M 3513 2113 
L 3513 0 
L 2938 0 
L 2938 2094 
Q 2938 2591 2744 2837 
Q 2550 3084 2163 3084 
Q 1697 3084 1428 2787 
Q 1159 2491 1159 1978 
L 1159 0 
L 581 0 
L 581 4863 
L 1159 4863 
L 1159 2956 
Q 1366 3272 1645 3428 
Q 1925 3584 2291 3584 
Q 2894 3584 3203 3211 
Q 3513 2838 3513 2113 
z
" transform="scale(0.015625)"/>
       <path id="DejaVuSans-52" d="M 1959 3097 
Q 1497 3097 1228 2736 
Q 959 2375 959 1747 
Q 959 1119 1226 758 
Q 1494 397 1959 397 
Q 2419 397 2687 759 
Q 2956 1122 2956 1747 
Q 2956 2369 2687 2733 
Q 2419 3097 1959 3097 
z
M 1959 3584 
Q 2709 3584 3137 3096 
Q 3566 2609 3566 1747 
Q 3566 888 3137 398 
Q 2709 -91 1959 -91 
Q 1206 -91 779 398 
Q 353 888 353 1747 
Q 353 2609 779 3096 
Q 1206 3584 1959 3584 
z
" transform="scale(0.015625)"/>
       <path id="DejaVuSans-58" d="M 544 1381 
L 544 3500 
L 1119 3500 
L 1119 1403 
Q 1119 906 1312 657 
Q 1506 409 1894 409 
Q 2359 409 2629 706 
Q 2900 1003 2900 1516 
L 2900 3500 
L 3475 3500 
L 3475 0 
L 2900 0 
L 2900 538 
Q 2691 219 2414 64 
Q 2138 -91 1772 -91 
Q 1169 -91 856 284 
Q 544 659 544 1381 
z
M 1991 3584 
L 1991 3584 
z
" transform="scale(0.015625)"/>
       <path id="DejaVuSans-55" d="M 2631 2963 
Q 2534 3019 2420 3045 
Q 2306 3072 2169 3072 
Q 1681 3072 1420 2755 
Q 1159 2438 1159 1844 
L 1159 0 
L 581 0 
L 581 3500 
L 1159 3500 
L 1159 2956 
Q 1341 3275 1631 3429 
Q 1922 3584 2338 3584 
Q 2397 3584 2469 3576 
Q 2541 3569 2628 3553 
L 2631 2963 
z
" transform="scale(0.015625)"/>
       <path id="DejaVuSans-3" transform="scale(0.015625)"/>
       <path id="DejaVuSans-49" d="M 2375 4863 
L 2375 4384 
L 1825 4384 
Q 1516 4384 1395 4259 
Q 1275 4134 1275 3809 
L 1275 3500 
L 2222 3500 
L 2222 3053 
L 1275 3053 
L 1275 0 
L 697 0 
L 697 3053 
L 147 3053 
L 147 3500 
L 697 3500 
L 697 3744 
Q 697 4328 969 4595 
Q 1241 4863 1831 4863 
L 2375 4863 
z
" transform="scale(0.015625)"/>
       <path id="DejaVuSans-47" d="M 2906 2969 
L 2906 4863 
L 3481 4863 
L 3481 0 
L 2906 0 
L 2906 525 
Q 2725 213 2448 61 
Q 2172 -91 1784 -91 
Q 1150 -91 751 415 
Q 353 922 353 1747 
Q 353 2572 751 3078 
Q 1150 3584 1784 3584 
Q 2172 3584 2448 3432 
Q 2725 3281 2906 2969 
z
M 947 1747 
Q 947 1113 1208 752 
Q 1469 391 1925 391 
Q 2381 391 2643 752 
Q 2906 1113 2906 1747 
Q 2906 2381 2643 2742 
Q 2381 3103 1925 3103 
Q 1469 3103 1208 2742 
Q 947 2381 947 1747 
z
" transform="scale(0.015625)"/>
       <path id="DejaVuSans-44" d="M 2194 1759 
Q 1497 1759 1228 1600 
Q 959 1441 959 1056 
Q 959 750 1161 570 
Q 1363 391 1709 391 
Q 2188 391 2477 730 
Q 2766 1069 2766 1631 
L 2766 1759 
L 2194 1759 
z
M 3341 1997 
L 3341 0 
L 2766 0 
L 2766 531 
Q 2569 213 2275 61 
Q 1981 -91 1556 -91 
Q 1019 -91 701 211 
Q 384 513 384 1019 
Q 384 1609 779 1909 
Q 1175 2209 1959 2209 
L 2766 2209 
L 2766 2266 
Q 2766 2663 2505 2880 
Q 2244 3097 1772 3097 
Q 1472 3097 1187 3025 
Q 903 2953 641 2809 
L 641 3341 
Q 956 3463 1253 3523 
Q 1550 3584 1831 3584 
Q 2591 3584 2966 3190 
Q 3341 2797 3341 1997 
z
" transform="scale(0.015625)"/>
       <path id="DejaVuSans-5c" d="M 2059 -325 
Q 1816 -950 1584 -1140 
Q 1353 -1331 966 -1331 
L 506 -1331 
L 506 -850 
L 844 -850 
Q 1081 -850 1212 -737 
Q 1344 -625 1503 -206 
L 1606 56 
L 191 3500 
L 800 3500 
L 1894 763 
L 2988 3500 
L 3597 3500 
L 2059 -325 
z
" transform="scale(0.015625)"/>
       <path id="DejaVuSans-b" d="M 1984 4856 
Q 1566 4138 1362 3434 
Q 1159 2731 1159 2009 
Q 1159 1288 1364 580 
Q 1569 -128 1984 -844 
L 1484 -844 
Q 1016 -109 783 600 
Q 550 1309 550 2009 
Q 550 2706 781 3412 
Q 1013 4119 1484 4856 
L 1984 4856 
z
" transform="scale(0.015625)"/>
       <path id="DejaVuSans-38" d="M 556 4666 
L 1191 4666 
L 1191 1831 
Q 1191 1081 1462 751 
Q 1734 422 2344 422 
Q 2950 422 3222 751 
Q 3494 1081 3494 1831 
L 3494 4666 
L 4128 4666 
L 4128 1753 
Q 4128 841 3676 375 
Q 3225 -91 2344 -91 
Q 1459 -91 1007 375 
Q 556 841 556 1753 
L 556 4666 
z
" transform="scale(0.015625)"/>
       <path id="DejaVuSans-37" d="M -19 4666 
L 3928 4666 
L 3928 4134 
L 2272 4134 
L 2272 0 
L 1638 0 
L 1638 4134 
L -19 4134 
L -19 4666 
z
" transform="scale(0.015625)"/>
       <path id="DejaVuSans-26" d="M 4122 4306 
L 4122 3641 
Q 3803 3938 3442 4084 
Q 3081 4231 2675 4231 
Q 1875 4231 1450 3742 
Q 1025 3253 1025 2328 
Q 1025 1406 1450 917 
Q 1875 428 2675 428 
Q 3081 428 3442 575 
Q 3803 722 4122 1019 
L 4122 359 
Q 3791 134 3420 21 
Q 3050 -91 2638 -91 
Q 1578 -91 968 557 
Q 359 1206 359 2328 
Q 359 3453 968 4101 
Q 1578 4750 2638 4750 
Q 3056 4750 3426 4639 
Q 3797 4528 4122 4306 
z
" transform="scale(0.015625)"/>
       <path id="DejaVuSans-c" d="M 513 4856 
L 1013 4856 
Q 1481 4119 1714 3412 
Q 1947 2706 1947 2009 
Q 1947 1309 1714 600 
Q 1481 -109 1013 -844 
L 513 -844 
Q 928 -128 1133 580 
Q 1338 1288 1338 2009 
Q 1338 2731 1133 3434 
Q 928 4138 513 4856 
z
" transform="scale(0.015625)"/>
      </defs>
      <use xlink:href="#DejaVuSans-4b"/>
      <use xlink:href="#DejaVuSans-52" transform="translate(63.375 0)"/>
      <use xlink:href="#DejaVuSans-58" transform="translate(124.5625 0)"/>
      <use xlink:href="#DejaVuSans-55" transform="translate(187.9375 0)"/>
      <use xlink:href="#DejaVuSans-3" transform="translate(229.046875 0)"/>
      <use xlink:href="#DejaVuSans-52" transform="translate(260.828125 0)"/>
      <use xlink:href="#DejaVuSans-49" transform="translate(322.015625 0)"/>
      <use xlink:href="#DejaVuSans-3" transform="translate(357.21875 0)"/>
      <use xlink:href="#DejaVuSans-47" transform="translate(389 0)"/>
      <use xlink:href="#DejaVuSans-44" transform="translate(452.484375 0)"/>
      <use xlink:href="#DejaVuSans-5c" transform="translate(513.765625 0)"/>
      <use xlink:href="#DejaVuSans-3" transform="translate(572.953125 0)"/>
      <use xlink:href="#DejaVuSans-b" transform="translate(604.734375 0)"/>
      <use xlink:href="#DejaVuSans-38" transform="translate(643.75 0)"/>
      <use xlink:href="#DejaVuSans-37" transform="translate(716.9375 0)"/>
      <use xlink:href="#DejaVuSans-26" transform="translate(772.15625 0)"/>
      <use xlink:href="#DejaVuSans-c" transform="translate(841.984375 0)"/>
     </g>
    </g>
   </g>
   <g id="matplotlib.axis_2">
    <g id="ytick_1">
     <g id="line2d_13">
      <defs>
       <path id="m814b26b881" d="M 0 0 
L -3.5 0 
" style="stroke: #000000; stroke-width: 0.8"/>
      </defs>
      <g>
       <use xlink:href="#m814b26b881" x="58.846094" y="266.412251" style="stroke: #000000; stroke-width: 0.8"/>
      </g>
     </g>
     <g id="text_14">
      <!-- −1.00 -->
      <g transform="translate(21.200781 270.21108) scale(0.1 -0.1)">
       <defs>
        <path id="DejaVuSans-c9c" d="M 678 2272 
L 4684 2272 
L 4684 1741 
L 678 1741 
L 678 2272 
z
" transform="scale(0.015625)"/>
        <path id="DejaVuSans-11" d="M 684 794 
L 1344 794 
L 1344 0 
L 684 0 
L 684 794 
z
" transform="scale(0.015625)"/>
       </defs>
       <use xlink:href="#DejaVuSans-c9c"/>
       <use xlink:href="#DejaVuSans-14" transform="translate(83.796875 0)"/>
       <use xlink:href="#DejaVuSans-11" transform="translate(147.421875 0)"/>
       <use xlink:href="#DejaVuSans-13" transform="translate(179.203125 0)"/>
       <use xlink:href="#DejaVuSans-13" transform="translate(242.828125 0)"/>
      </g>
     </g>
    </g>
    <g id="ytick_2">
     <g id="line2d_14">
      <g>
       <use xlink:href="#m814b26b881" x="58.846094" y="236.608329" style="stroke: #000000; stroke-width: 0.8"/>
      </g>
     </g>
     <g id="text_15">
      <!-- −0.75 -->
      <g transform="translate(21.200781 240.407157) scale(0.1 -0.1)">
       <defs>
        <path id="DejaVuSans-1a" d="M 525 4666 
L 3525 4666 
L 3525 4397 
L 1831 0 
L 1172 0 
L 2766 4134 
L 525 4134 
L 525 4666 
z
" transform="scale(0.015625)"/>
        <path id="DejaVuSans-18" d="M 691 4666 
L 3169 4666 
L 3169 4134 
L 1269 4134 
L 1269 2991 
Q 1406 3038 1543 3061 
Q 1681 3084 1819 3084 
Q 2600 3084 3056 2656 
Q 3513 2228 3513 1497 
Q 3513 744 3044 326 
Q 2575 -91 1722 -91 
Q 1428 -91 1123 -41 
Q 819 9 494 109 
L 494 744 
Q 775 591 1075 516 
Q 1375 441 1709 441 
Q 2250 441 2565 725 
Q 2881 1009 2881 1497 
Q 2881 1984 2565 2268 
Q 2250 2553 1709 2553 
Q 1456 2553 1204 2497 
Q 953 2441 691 2322 
L 691 4666 
z
" transform="scale(0.015625)"/>
       </defs>
       <use xlink:href="#DejaVuSans-c9c"/>
       <use xlink:href="#DejaVuSans-13" transform="translate(83.796875 0)"/>
       <use xlink:href="#DejaVuSans-11" transform="translate(147.421875 0)"/>
       <use xlink:href="#DejaVuSans-1a" transform="translate(179.203125 0)"/>
       <use xlink:href="#DejaVuSans-18" transform="translate(242.828125 0)"/>
      </g>
     </g>
    </g>
    <g id="ytick_3">
     <g id="line2d_15">
      <g>
       <use xlink:href="#m814b26b881" x="58.846094" y="206.804406" style="stroke: #000000; stroke-width: 0.8"/>
      </g>
     </g>
     <g id="text_16">
      <!-- −0.50 -->
      <g transform="translate(21.200781 210.603234) scale(0.1 -0.1)">
       <use xlink:href="#DejaVuSans-c9c"/>
       <use xlink:href="#DejaVuSans-13" transform="translate(83.796875 0)"/>
       <use xlink:href="#DejaVuSans-11" transform="translate(147.421875 0)"/>
       <use xlink:href="#DejaVuSans-18" transform="translate(179.203125 0)"/>
       <use xlink:href="#DejaVuSans-13" transform="translate(242.828125 0)"/>
      </g>
     </g>
    </g>
    <g id="ytick_4">
     <g id="line2d_16">
      <g>
       <use xlink:href="#m814b26b881" x="58.846094" y="177.000484" style="stroke: #000000; stroke-width: 0.8"/>
      </g>
     </g>
     <g id="text_17">
      <!-- −0.25 -->
      <g transform="translate(21.200781 180.799312) scale(0.1 -0.1)">
       <use xlink:href="#DejaVuSans-c9c"/>
       <use xlink:href="#DejaVuSans-13" transform="translate(83.796875 0)"/>
       <use xlink:href="#DejaVuSans-11" transform="translate(147.421875 0)"/>
       <use xlink:href="#DejaVuSans-15" transform="translate(179.203125 0)"/>
       <use xlink:href="#DejaVuSans-18" transform="translate(242.828125 0)"/>
      </g>
     </g>
    </g>
    <g id="ytick_5">
     <g id="line2d_17">
      <g>
       <use xlink:href="#m814b26b881" x="58.846094" y="147.196561" style="stroke: #000000; stroke-width: 0.8"/>
      </g>
     </g>
     <g id="text_18">
      <!-- 0.00 -->
      <g transform="translate(29.580469 150.995389) scale(0.1 -0.1)">
       <use xlink:href="#DejaVuSans-13"/>
       <use xlink:href="#DejaVuSans-11" transform="translate(63.625 0)"/>
       <use xlink:href="#DejaVuSans-13" transform="translate(95.40625 0)"/>
       <use xlink:href="#DejaVuSans-13" transform="translate(159.03125 0)"/>
      </g>
     </g>
    </g>
    <g id="ytick_6">
     <g id="line2d_18">
      <g>
       <use xlink:href="#m814b26b881" x="58.846094" y="117.392638" style="stroke: #000000; stroke-width: 0.8"/>
      </g>
     </g>
     <g id="text_19">
      <!-- 0.25 -->
      <g transform="translate(29.580469 121.191466) scale(0.1 -0.1)">
       <use xlink:href="#DejaVuSans-13"/>
       <use xlink:href="#DejaVuSans-11" transform="translate(63.625 0)"/>
       <use xlink:href="#DejaVuSans-15" transform="translate(95.40625 0)"/>
       <use xlink:href="#DejaVuSans-18" transform="translate(159.03125 0)"/>
      </g>
     </g>
    </g>
    <g id="ytick_7">
     <g id="line2d_19">
      <g>
       <use xlink:href="#m814b26b881" x="58.846094" y="87.588716" style="stroke: #000000; stroke-width: 0.8"/>
      </g>
     </g>
     <g id="text_20">
      <!-- 0.50 -->
      <g transform="translate(29.580469 91.387544) scale(0.1 -0.1)">
       <use xlink:href="#DejaVuSans-13"/>
       <use xlink:href="#DejaVuSans-11" transform="translate(63.625 0)"/>
       <use xlink:href="#DejaVuSans-18" transform="translate(95.40625 0)"/>
       <use xlink:href="#DejaVuSans-13" transform="translate(159.03125 0)"/>
      </g>
     </g>
    </g>
    <g id="ytick_8">
     <g id="line2d_20">
      <g>
       <use xlink:href="#m814b26b881" x="58.846094" y="57.784793" style="stroke: #000000; stroke-width: 0.8"/>
      </g>
     </g>
     <g id="text_21">
      <!-- 0.75 -->
      <g transform="translate(29.580469 61.583621) scale(0.1 -0.1)">
       <use xlink:href="#DejaVuSans-13"/>
       <use xlink:href="#DejaVuSans-11" transform="translate(63.625 0)"/>
       <use xlink:href="#DejaVuSans-1a" transform="translate(95.40625 0)"/>
       <use xlink:href="#DejaVuSans-18" transform="translate(159.03125 0)"/>
      </g>
     </g>
    </g>
    <g id="ytick_9">
     <g id="line2d_21">
      <g>
       <use xlink:href="#m814b26b881" x="58.846094" y="27.98087" style="stroke: #000000; stroke-width: 0.8"/>
      </g>
     </g>
     <g id="text_22">
      <!-- 1.00 -->
      <g transform="translate(29.580469 31.779698) scale(0.1 -0.1)">
       <use xlink:href="#DejaVuSans-14"/>
       <use xlink:href="#DejaVuSans-11" transform="translate(63.625 0)"/>
       <use xlink:href="#DejaVuSans-13" transform="translate(95.40625 0)"/>
       <use xlink:href="#DejaVuSans-13" transform="translate(159.03125 0)"/>
      </g>
     </g>
    </g>
    <g id="text_23">
     <!-- net grid power — discharge ↑ / charge ↓ (MW) -->
     <g transform="translate(14.798437 267.724609) rotate(-90) scale(0.1 -0.1)">
      <defs>
       <path id="DejaVuSans-51" d="M 3513 2113 
L 3513 0 
L 2938 0 
L 2938 2094 
Q 2938 2591 2744 2837 
Q 2550 3084 2163 3084 
Q 1697 3084 1428 2787 
Q 1159 2491 1159 1978 
L 1159 0 
L 581 0 
L 581 3500 
L 1159 3500 
L 1159 2956 
Q 1366 3272 1645 3428 
Q 1925 3584 2291 3584 
Q 2894 3584 3203 3211 
Q 3513 2838 3513 2113 
z
" transform="scale(0.015625)"/>
       <path id="DejaVuSans-48" d="M 3597 1894 
L 3597 1613 
L 953 1613 
Q 991 1019 1311 708 
Q 1631 397 2203 397 
Q 2534 397 2845 478 
Q 3156 559 3463 722 
L 3463 178 
Q 3153 47 2828 -22 
Q 2503 -91 2169 -91 
Q 1331 -91 842 396 
Q 353 884 353 1716 
Q 353 2575 817 3079 
Q 1281 3584 2069 3584 
Q 2775 3584 3186 3129 
Q 3597 2675 3597 1894 
z
M 3022 2063 
Q 3016 2534 2758 2815 
Q 2500 3097 2075 3097 
Q 1594 3097 1305 2825 
Q 1016 2553 972 2059 
L 3022 2063 
z
" transform="scale(0.015625)"/>
       <path id="DejaVuSans-57" d="M 1172 4494 
L 1172 3500 
L 2356 3500 
L 2356 3053 
L 1172 3053 
L 1172 1153 
Q 1172 725 1289 603 
Q 1406 481 1766 481 
L 2356 481 
L 2356 0 
L 1766 0 
Q 1100 0 847 248 
Q 594 497 594 1153 
L 594 3053 
L 172 3053 
L 172 3500 
L 594 3500 
L 594 4494 
L 1172 4494 
z
" transform="scale(0.015625)"/>
       <path id="DejaVuSans-4a" d="M 2906 1791 
Q 2906 2416 2648 2759 
Q 2391 3103 1925 3103 
Q 1463 3103 1205 2759 
Q 947 2416 947 1791 
Q 947 1169 1205 825 
Q 1463 481 1925 481 
Q 2391 481 2648 825 
Q 2906 1169 2906 1791 
z
M 3481 434 
Q 3481 -459 3084 -895 
Q 2688 -1331 1869 -1331 
Q 1566 -1331 1297 -1286 
Q 1028 -1241 775 -1147 
L 775 -588 
Q 1028 -725 1275 -790 
Q 1522 -856 1778 -856 
Q 2344 -856 2625 -561 
Q 2906 -266 2906 331 
L 2906 616 
Q 2728 306 2450 153 
Q 2172 0 1784 0 
Q 1141 0 747 490 
Q 353 981 353 1791 
Q 353 2603 747 3093 
Q 1141 3584 1784 3584 
Q 2172 3584 2450 3431 
Q 2728 3278 2906 2969 
L 2906 3500 
L 3481 3500 
L 3481 434 
z
" transform="scale(0.015625)"/>
       <path id="DejaVuSans-4c" d="M 603 3500 
L 1178 3500 
L 1178 0 
L 603 0 
L 603 3500 
z
M 603 4863 
L 1178 4863 
L 1178 4134 
L 603 4134 
L 603 4863 
z
" transform="scale(0.015625)"/>
       <path id="DejaVuSans-53" d="M 1159 525 
L 1159 -1331 
L 581 -1331 
L 581 3500 
L 1159 3500 
L 1159 2969 
Q 1341 3281 1617 3432 
Q 1894 3584 2278 3584 
Q 2916 3584 3314 3078 
Q 3713 2572 3713 1747 
Q 3713 922 3314 415 
Q 2916 -91 2278 -91 
Q 1894 -91 1617 61 
Q 1341 213 1159 525 
z
M 3116 1747 
Q 3116 2381 2855 2742 
Q 2594 3103 2138 3103 
Q 1681 3103 1420 2742 
Q 1159 2381 1159 1747 
Q 1159 1113 1420 752 
Q 1681 391 2138 391 
Q 2594 391 2855 752 
Q 3116 1113 3116 1747 
z
" transform="scale(0.015625)"/>
       <path id="DejaVuSans-5a" d="M 269 3500 
L 844 3500 
L 1563 769 
L 2278 3500 
L 2956 3500 
L 3675 769 
L 4391 3500 
L 4966 3500 
L 4050 0 
L 3372 0 
L 2619 2869 
L 1863 0 
L 1184 0 
L 269 3500 
z
" transform="scale(0.015625)"/>
       <path id="DejaVuSans-af6" d="M 313 1978 
L 6088 1978 
L 6088 1528 
L 313 1528 
L 313 1978 
z
" transform="scale(0.015625)"/>
       <path id="DejaVuSans-56" d="M 2834 3397 
L 2834 2853 
Q 2591 2978 2328 3040 
Q 2066 3103 1784 3103 
Q 1356 3103 1142 2972 
Q 928 2841 928 2578 
Q 928 2378 1081 2264 
Q 1234 2150 1697 2047 
L 1894 2003 
Q 2506 1872 2764 1633 
Q 3022 1394 3022 966 
Q 3022 478 2636 193 
Q 2250 -91 1575 -91 
Q 1294 -91 989 -36 
Q 684 19 347 128 
L 347 722 
Q 666 556 975 473 
Q 1284 391 1588 391 
Q 1994 391 2212 530 
Q 2431 669 2431 922 
Q 2431 1156 2273 1281 
Q 2116 1406 1581 1522 
L 1381 1569 
Q 847 1681 609 1914 
Q 372 2147 372 2553 
Q 372 3047 722 3315 
Q 1072 3584 1716 3584 
Q 2034 3584 2315 3537 
Q 2597 3491 2834 3397 
z
" transform="scale(0.015625)"/>
       <path id="DejaVuSans-46" d="M 3122 3366 
L 3122 2828 
Q 2878 2963 2633 3030 
Q 2388 3097 2138 3097 
Q 1578 3097 1268 2742 
Q 959 2388 959 1747 
Q 959 1106 1268 751 
Q 1578 397 2138 397 
Q 2388 397 2633 464 
Q 2878 531 3122 666 
L 3122 134 
Q 2881 22 2623 -34 
Q 2366 -91 2075 -91 
Q 1284 -91 818 406 
Q 353 903 353 1747 
Q 353 2603 823 3093 
Q 1294 3584 2113 3584 
Q 2378 3584 2631 3529 
Q 2884 3475 3122 3366 
z
" transform="scale(0.015625)"/>
       <path id="DejaVuSans-c1b" d="M 2541 4688 
L 2822 4688 
L 4047 3456 
L 3672 3081 
L 2947 3813 
L 2947 0 
L 2416 0 
L 2416 3813 
L 1684 3081 
L 1309 3456 
L 2541 4688 
z
" transform="scale(0.015625)"/>
       <path id="DejaVuSans-12" d="M 1625 4666 
L 2156 4666 
L 531 -594 
L 0 -594 
L 1625 4666 
z
" transform="scale(0.015625)"/>
       <path id="DejaVuSans-c1d" d="M 2822 -22 
L 2541 -22 
L 1309 1209 
L 1684 1584 
L 2416 853 
L 2416 4666 
L 2947 4666 
L 2947 853 
L 3672 1584 
L 4047 1209 
L 2822 -22 
z
" transform="scale(0.015625)"/>
       <path id="DejaVuSans-30" d="M 628 4666 
L 1569 4666 
L 2759 1491 
L 3956 4666 
L 4897 4666 
L 4897 0 
L 4281 0 
L 4281 4097 
L 3078 897 
L 2444 897 
L 1241 4097 
L 1241 0 
L 628 0 
L 628 4666 
z
" transform="scale(0.015625)"/>
       <path id="DejaVuSans-3a" d="M 213 4666 
L 850 4666 
L 1831 722 
L 2809 4666 
L 3519 4666 
L 4500 722 
L 5478 4666 
L 6119 4666 
L 4947 0 
L 4153 0 
L 3169 4050 
L 2175 0 
L 1381 0 
L 213 4666 
z
" transform="scale(0.015625)"/>
      </defs>
      <use xlink:href="#DejaVuSans-51"/>
      <use xlink:href="#DejaVuSans-48" transform="translate(63.375 0)"/>
      <use xlink:href="#DejaVuSans-57" transform="translate(124.90625 0)"/>
      <use xlink:href="#DejaVuSans-3" transform="translate(164.109375 0)"/>
      <use xlink:href="#DejaVuSans-4a" transform="translate(195.890625 0)"/>
      <use xlink:href="#DejaVuSans-55" transform="translate(259.375 0)"/>
      <use xlink:href="#DejaVuSans-4c" transform="translate(300.484375 0)"/>
      <use xlink:href="#DejaVuSans-47" transform="translate(328.265625 0)"/>
      <use xlink:href="#DejaVuSans-3" transform="translate(391.75 0)"/>
      <use xlink:href="#DejaVuSans-53" transform="translate(423.53125 0)"/>
      <use xlink:href="#DejaVuSans-52" transform="translate(487.015625 0)"/>
      <use xlink:href="#DejaVuSans-5a" transform="translate(548.203125 0)"/>
      <use xlink:href="#DejaVuSans-48" transform="translate(629.984375 0)"/>
      <use xlink:href="#DejaVuSans-55" transform="translate(691.515625 0)"/>
      <use xlink:href="#DejaVuSans-3" transform="translate(732.625 0)"/>
      <use xlink:href="#DejaVuSans-af6" transform="translate(764.40625 0)"/>
      <use xlink:href="#DejaVuSans-3" transform="translate(864.40625 0)"/>
      <use xlink:href="#DejaVuSans-47" transform="translate(896.1875 0)"/>
      <use xlink:href="#DejaVuSans-4c" transform="translate(959.671875 0)"/>
      <use xlink:href="#DejaVuSans-56" transform="translate(987.453125 0)"/>
      <use xlink:href="#DejaVuSans-46" transform="translate(1039.546875 0)"/>
      <use xlink:href="#DejaVuSans-4b" transform="translate(1094.53125 0)"/>
      <use xlink:href="#DejaVuSans-44" transform="translate(1157.90625 0)"/>
      <use xlink:href="#DejaVuSans-55" transform="translate(1219.1875 0)"/>
      <use xlink:href="#DejaVuSans-4a" transform="translate(1258.546875 0)"/>
      <use xlink:href="#DejaVuSans-48" transform="translate(1322.03125 0)"/>
      <use xlink:href="#DejaVuSans-3" transform="translate(1383.5625 0)"/>
      <use xlink:href="#DejaVuSans-c1b" transform="translate(1415.34375 0)"/>
      <use xlink:href="#DejaVuSans-3" transform="translate(1499.140625 0)"/>
      <use xlink:href="#DejaVuSans-12" transform="translate(1530.921875 0)"/>
      <use xlink:href="#DejaVuSans-3" transform="translate(1564.609375 0)"/>
      <use xlink:href="#DejaVuSans-46" transform="translate(1596.390625 0)"/>
      <use xlink:href="#DejaVuSans-4b" transform="translate(1651.375 0)"/>
      <use xlink:href="#DejaVuSans-44" transform="translate(1714.75 0)"/>
      <use xlink:href="#DejaVuSans-55" transform="translate(1776.03125 0)"/>
      <use xlink:href="#DejaVuSans-4a" transform="translate(1815.390625 0)"/>
      <use xlink:href="#DejaVuSans-48" transform="translate(1878.875 0)"/>
      <use xlink:href="#DejaVuSans-3" transform="translate(1940.40625 0)"/>
      <use xlink:href="#DejaVuSans-c1d" transform="translate(1972.1875 0)"/>
      <use xlink:href="#DejaVuSans-3" transform="translate(2055.984375 0)"/>
      <use xlink:href="#DejaVuSans-b" transform="translate(2087.765625 0)"/>
      <use xlink:href="#DejaVuSans-30" transform="translate(2126.78125 0)"/>
      <use xlink:href="#DejaVuSans-3a" transform="translate(2213.0625 0)"/>
      <use xlink:href="#DejaVuSans-c" transform="translate(2311.9375 0)"/>
     </g>
    </g>
   </g>
   <g id="line2d_22">
    <path d="M 58.846094 147.196561 
L 538.417406 147.196561 
" clip-path="url(#p788279fc12)" style="fill: none; stroke: #888888; stroke-width: 0.8; stroke-linecap: square"/>
   </g>
   <g id="patch_27">
    <path d="M 58.846094 278.035781 
L 58.846094 22.318125 
" style="fill: none; stroke: #000000; stroke-width: 0.8; stroke-linejoin: miter; stroke-linecap: square"/>
   </g>
   <g id="patch_28">
    <path d="M 538.417406 278.035781 
L 538.417406 22.318125 
" style="fill: none; stroke: #000000; stroke-width: 0.8; stroke-linejoin: miter; stroke-linecap: square"/>
   </g>
   <g id="patch_29">
    <path d="M 58.846094 278.035781 
L 538.417406 278.035781 
" style="fill: none; stroke: #000000; stroke-width: 0.8; stroke-linejoin: miter; stroke-linecap: square"/>
   </g>
   <g id="patch_30">
    <path d="M 58.846094 22.318125 
L 538.417406 22.318125 
" style="fill: none; stroke: #000000; stroke-width: 0.8; stroke-linejoin: miter; stroke-linecap: square"/>
   </g>
   <g id="text_24">
    <!-- Optimal dispatch — 2024-02-14 (widest-spread day) -->
    <g transform="translate(141.06425 16.318125) scale(0.12 -0.12)">
     <defs>
      <path id="DejaVuSans-32" d="M 2522 4238 
Q 1834 4238 1429 3725 
Q 1025 3213 1025 2328 
Q 1025 1447 1429 934 
Q 1834 422 2522 422 
Q 3209 422 3611 934 
Q 4013 1447 4013 2328 
Q 4013 3213 3611 3725 
Q 3209 4238 2522 4238 
z
M 2522 4750 
Q 3503 4750 4090 4092 
Q 4678 3434 4678 2328 
Q 4678 1225 4090 567 
Q 3503 -91 2522 -91 
Q 1538 -91 948 565 
Q 359 1222 359 2328 
Q 359 3434 948 4092 
Q 1538 4750 2522 4750 
z
" transform="scale(0.015625)"/>
      <path id="DejaVuSans-50" d="M 3328 2828 
Q 3544 3216 3844 3400 
Q 4144 3584 4550 3584 
Q 5097 3584 5394 3201 
Q 5691 2819 5691 2113 
L 5691 0 
L 5113 0 
L 5113 2094 
Q 5113 2597 4934 2840 
Q 4756 3084 4391 3084 
Q 3944 3084 3684 2787 
Q 3425 2491 3425 1978 
L 3425 0 
L 2847 0 
L 2847 2094 
Q 2847 2600 2669 2842 
Q 2491 3084 2119 3084 
Q 1678 3084 1418 2786 
Q 1159 2488 1159 1978 
L 1159 0 
L 581 0 
L 581 3500 
L 1159 3500 
L 1159 2956 
Q 1356 3278 1631 3431 
Q 1906 3584 2284 3584 
Q 2666 3584 2933 3390 
Q 3200 3197 3328 2828 
z
" transform="scale(0.015625)"/>
      <path id="DejaVuSans-4f" d="M 603 4863 
L 1178 4863 
L 1178 0 
L 603 0 
L 603 4863 
z
" transform="scale(0.015625)"/>
      <path id="DejaVuSans-10" d="M 313 2009 
L 1997 2009 
L 1997 1497 
L 313 1497 
L 313 2009 
z
" transform="scale(0.015625)"/>
     </defs>
     <use xlink:href="#DejaVuSans-32"/>
     <use xlink:href="#DejaVuSans-53" transform="translate(78.71875 0)"/>
     <use xlink:href="#DejaVuSans-57" transform="translate(142.203125 0)"/>
     <use xlink:href="#DejaVuSans-4c" transform="translate(181.40625 0)"/>
     <use xlink:href="#DejaVuSans-50" transform="translate(209.1875 0)"/>
     <use xlink:href="#DejaVuSans-44" transform="translate(306.59375 0)"/>
     <use xlink:href="#DejaVuSans-4f" transform="translate(367.875 0)"/>
     <use xlink:href="#DejaVuSans-3" transform="translate(395.65625 0)"/>
     <use xlink:href="#DejaVuSans-47" transform="translate(427.4375 0)"/>
     <use xlink:href="#DejaVuSans-4c" transform="translate(490.921875 0)"/>
     <use xlink:href="#DejaVuSans-56" transform="translate(518.703125 0)"/>
     <use xlink:href="#DejaVuSans-53" transform="translate(570.796875 0)"/>
     <use xlink:href="#DejaVuSans-44" transform="translate(634.28125 0)"/>
     <use xlink:href="#DejaVuSans-57" transform="translate(695.5625 0)"/>
     <use xlink:href="#DejaVuSans-46" transform="translate(734.765625 0)"/>
     <use xlink:href="#DejaVuSans-4b" transform="translate(789.75 0)"/>
     <use xlink:href="#DejaVuSans-3" transform="translate(853.125 0)"/>
     <use xlink:href="#DejaVuSans-af6" transform="translate(884.90625 0)"/>
     <use xlink:href="#DejaVuSans-3" transform="translate(984.90625 0)"/>
     <use xlink:href="#DejaVuSans-15" transform="translate(1016.6875 0)"/>
     <use xlink:href="#DejaVuSans-13" transform="translate(1080.3125 0)"/>
     <use xlink:href="#DejaVuSans-15" transform="translate(1143.9375 0)"/>
     <use xlink:href="#DejaVuSans-17" transform="translate(1207.5625 0)"/>
     <use xlink:href="#DejaVuSans-10" transform="translate(1271.1875 0)"/>
     <use xlink:href="#DejaVuSans-13" transform="translate(1307.265625 0)"/>
     <use xlink:href="#DejaVuSans-15" transform="translate(1370.890625 0)"/>
     <use xlink:href="#DejaVuSans-10" transform="translate(1434.515625 0)"/>
     <use xlink:href="#DejaVuSans-14" transform="translate(1470.59375 0)"/>
     <use xlink:href="#DejaVuSans-17" transform="translate(1534.21875 0)"/>
     <use xlink:href="#DejaVuSans-3" transform="translate(1597.84375 0)"/>
     <use xlink:href="#DejaVuSans-b" transform="translate(1629.625 0)"/>
     <use xlink:href="#DejaVuSans-5a" transform="translate(1668.640625 0)"/>
     <use xlink:href="#DejaVuSans-4c" transform="translate(1750.421875 0)"/>
     <use xlink:href="#DejaVuSans-47" transform="translate(1778.203125 0)"/>
     <use xlink:href="#DejaVuSans-48" transform="translate(1841.6875 0)"/>
     <use xlink:href="#DejaVuSans-56" transform="translate(1903.21875 0)"/>
     <use xlink:href="#DejaVuSans-57" transform="translate(1955.3125 0)"/>
     <use xlink:href="#DejaVuSans-10" transform="translate(1994.515625 0)"/>
     <use xlink:href="#DejaVuSans-56" transform="translate(2030.59375 0)"/>
     <use xlink:href="#DejaVuSans-53" transform="translate(2082.6875 0)"/>
     <use xlink:href="#DejaVuSans-55" transform="translate(2146.171875 0)"/>
     <use xlink:href="#DejaVuSans-48" transform="translate(2185.078125 0)"/>
     <use xlink:href="#DejaVuSans-44" transform="translate(2246.609375 0)"/>
     <use xlink:href="#DejaVuSans-47" transform="translate(2307.890625 0)"/>
     <use xlink:href="#DejaVuSans-3" transform="translate(2371.375 0)"/>
     <use xlink:href="#DejaVuSans-47" transform="translate(2403.15625 0)"/>
     <use xlink:href="#DejaVuSans-44" transform="translate(2466.640625 0)"/>
     <use xlink:href="#DejaVuSans-5c" transform="translate(2527.921875 0)"/>
     <use xlink:href="#DejaVuSans-c" transform="translate(2587.109375 0)"/>
    </g>
   </g>
  </g>
  <g id="axes_2">
   <g id="matplotlib.axis_3">
    <g id="ytick_10">
     <g id="line2d_23">
      <defs>
       <path id="m1e1866eae3" d="M 0 0 
L 3.5 0 
" style="stroke: #000000; stroke-width: 0.8"/>
      </defs>
      <g>
       <use xlink:href="#m1e1866eae3" x="538.417406" y="278.035781" style="stroke: #000000; stroke-width: 0.8"/>
      </g>
     </g>
     <g id="text_25">
      <!-- 0.0 -->
      <g transform="translate(545.417406 281.834609) scale(0.1 -0.1)">
       <use xlink:href="#DejaVuSans-13"/>
       <use xlink:href="#DejaVuSans-11" transform="translate(63.625 0)"/>
       <use xlink:href="#DejaVuSans-13" transform="translate(95.40625 0)"/>
      </g>
     </g>
    </g>
    <g id="ytick_11">
     <g id="line2d_24">
      <g>
       <use xlink:href="#m1e1866eae3" x="538.417406" y="229.327656" style="stroke: #000000; stroke-width: 0.8"/>
      </g>
     </g>
     <g id="text_26">
      <!-- 0.2 -->
      <g transform="translate(545.417406 233.126484) scale(0.1 -0.1)">
       <use xlink:href="#DejaVuSans-13"/>
       <use xlink:href="#DejaVuSans-11" transform="translate(63.625 0)"/>
       <use xlink:href="#DejaVuSans-15" transform="translate(95.40625 0)"/>
      </g>
     </g>
    </g>
    <g id="ytick_12">
     <g id="line2d_25">
      <g>
       <use xlink:href="#m1e1866eae3" x="538.417406" y="180.619531" style="stroke: #000000; stroke-width: 0.8"/>
      </g>
     </g>
     <g id="text_27">
      <!-- 0.4 -->
      <g transform="translate(545.417406 184.418359) scale(0.1 -0.1)">
       <use xlink:href="#DejaVuSans-13"/>
       <use xlink:href="#DejaVuSans-11" transform="translate(63.625 0)"/>
       <use xlink:href="#DejaVuSans-17" transform="translate(95.40625 0)"/>
      </g>
     </g>
    </g>
    <g id="ytick_13">
     <g id="line2d_26">
      <g>
       <use xlink:href="#m1e1866eae3" x="538.417406" y="131.911406" style="stroke: #000000; stroke-width: 0.8"/>
      </g>
     </g>
     <g id="text_28">
      <!-- 0.6 -->
      <g transform="translate(545.417406 135.710234) scale(0.1 -0.1)">
       <use xlink:href="#DejaVuSans-13"/>
       <use xlink:href="#DejaVuSans-11" transform="translate(63.625 0)"/>
       <use xlink:href="#DejaVuSans-19" transform="translate(95.40625 0)"/>
      </g>
     </g>
    </g>
    <g id="ytick_14">
     <g id="line2d_27">
      <g>
       <use xlink:href="#m1e1866eae3" x="538.417406" y="83.203281" style="stroke: #000000; stroke-width: 0.8"/>
      </g>
     </g>
     <g id="text_29">
      <!-- 0.8 -->
      <g transform="translate(545.417406 87.002109) scale(0.1 -0.1)">
       <use xlink:href="#DejaVuSans-13"/>
       <use xlink:href="#DejaVuSans-11" transform="translate(63.625 0)"/>
       <use xlink:href="#DejaVuSans-1b" transform="translate(95.40625 0)"/>
      </g>
     </g>
    </g>
    <g id="ytick_15">
     <g id="line2d_28">
      <g>
       <use xlink:href="#m1e1866eae3" x="538.417406" y="34.495156" style="stroke: #000000; stroke-width: 0.8"/>
      </g>
     </g>
     <g id="text_30">
      <!-- 1.0 -->
      <g transform="translate(545.417406 38.293984) scale(0.1 -0.1)">
       <use xlink:href="#DejaVuSans-14"/>
       <use xlink:href="#DejaVuSans-11" transform="translate(63.625 0)"/>
       <use xlink:href="#DejaVuSans-13" transform="translate(95.40625 0)"/>
      </g>
     </g>
    </g>
    <g id="text_31">
     <!-- SoC (MWh) -->
     <g style="fill: #264653" transform="translate(572.918969 177.819141) rotate(-90) scale(0.1 -0.1)">
      <defs>
       <path id="DejaVuSans-36" d="M 3425 4513 
L 3425 3897 
Q 3066 4069 2747 4153 
Q 2428 4238 2131 4238 
Q 1616 4238 1336 4038 
Q 1056 3838 1056 3469 
Q 1056 3159 1242 3001 
Q 1428 2844 1947 2747 
L 2328 2669 
Q 3034 2534 3370 2195 
Q 3706 1856 3706 1288 
Q 3706 609 3251 259 
Q 2797 -91 1919 -91 
Q 1588 -91 1214 -16 
Q 841 59 441 206 
L 441 856 
Q 825 641 1194 531 
Q 1563 422 1919 422 
Q 2459 422 2753 634 
Q 3047 847 3047 1241 
Q 3047 1584 2836 1778 
Q 2625 1972 2144 2069 
L 1759 2144 
Q 1053 2284 737 2584 
Q 422 2884 422 3419 
Q 422 4038 858 4394 
Q 1294 4750 2059 4750 
Q 2388 4750 2728 4690 
Q 3069 4631 3425 4513 
z
" transform="scale(0.015625)"/>
      </defs>
      <use xlink:href="#DejaVuSans-36"/>
      <use xlink:href="#DejaVuSans-52" transform="translate(63.484375 0)"/>
      <use xlink:href="#DejaVuSans-26" transform="translate(124.671875 0)"/>
      <use xlink:href="#DejaVuSans-3" transform="translate(194.5 0)"/>
      <use xlink:href="#DejaVuSans-b" transform="translate(226.28125 0)"/>
      <use xlink:href="#DejaVuSans-30" transform="translate(265.296875 0)"/>
      <use xlink:href="#DejaVuSans-3a" transform="translate(351.578125 0)"/>
      <use xlink:href="#DejaVuSans-4b" transform="translate(450.453125 0)"/>
      <use xlink:href="#DejaVuSans-c" transform="translate(513.828125 0)"/>
     </g>
    </g>
   </g>
   <g id="line2d_29">
    <path d="M 87.972083 278.035781 
L 106.290315 278.035781 
L 124.608546 46.672188 
L 142.926778 46.672188 
L 161.24501 46.672188 
L 179.563242 34.495156 
L 197.881474 34.495156 
L 216.199706 34.495156 
L 234.517938 34.495156 
L 252.83617 278.035781 
L 271.154402 278.035781 
L 289.472634 46.672188 
L 307.790866 278.035781 
L 326.109098 46.672188 
L 344.42733 34.495156 
L 362.745562 34.495156 
L 381.063794 34.495156 
L 399.382026 34.495156 
L 417.700258 34.495156 
L 436.01849 34.495156 
L 454.336722 34.495156 
L 472.654954 278.035781 
L 490.973185 278.035781 
L 509.291417 278.035781 
" clip-path="url(#p788279fc12)" style="fill: none; stroke: #264653; stroke-width: 1.6; stroke-linecap: square"/>
    <defs>
     <path id="m506eb44910" d="M 0 1.5 
C 0.397805 1.5 0.77937 1.341951 1.06066 1.06066 
C 1.341951 0.77937 1.5 0.397805 1.5 0 
C 1.5 -0.397805 1.341951 -0.77937 1.06066 -1.06066 
C 0.77937 -1.341951 0.397805 -1.5 0 -1.5 
C -0.397805 -1.5 -0.77937 -1.341951 -1.06066 -1.06066 
C -1.341951 -0.77937 -1.5 -0.397805 -1.5 0 
C -1.5 0.397805 -1.341951 0.77937 -1.06066 1.06066 
C -0.77937 1.341951 -0.397805 1.5 0 1.5 
z
" style="stroke: #264653"/>
    </defs>
    <g clip-path="url(#p788279fc12)">
     <use xlink:href="#m506eb44910" x="87.972083" y="278.035781" style="fill: #264653; stroke: #264653"/>
     <use xlink:href="#m506eb44910" x="106.290315" y="278.035781" style="fill: #264653; stroke: #264653"/>
     <use xlink:href="#m506eb44910" x="124.608546" y="46.672188" style="fill: #264653; stroke: #264653"/>
     <use xlink:href="#m506eb44910" x="142.926778" y="46.672188" style="fill: #264653; stroke: #264653"/>
     <use xlink:href="#m506eb44910" x="161.24501" y="46.672188" style="fill: #264653; stroke: #264653"/>
     <use xlink:href="#m506eb44910" x="179.563242" y="34.495156" style="fill: #264653; stroke: #264653"/>
     <use xlink:href="#m506eb44910" x="197.881474" y="34.495156" style="fill: #264653; stroke: #264653"/>
     <use xlink:href="#m506eb44910" x="216.199706" y="34.495156" style="fill: #264653; stroke: #264653"/>
     <use xlink:href="#m506eb44910" x="234.517938" y="34.495156" style="fill: #264653; stroke: #264653"/>
     <use xlink:href="#m506eb44910" x="252.83617" y="278.035781" style="fill: #264653; stroke: #264653"/>
     <use xlink:href="#m506eb44910" x="271.154402" y="278.035781" style="fill: #264653; stroke: #264653"/>
     <use xlink:href="#m506eb44910" x="289.472634" y="46.672188" style="fill: #264653; stroke: #264653"/>
     <use xlink:href="#m506eb44910" x="307.790866" y="278.035781" style="fill: #264653; stroke: #264653"/>
     <use xlink:href="#m506eb44910" x="326.109098" y="46.672188" style="fill: #264653; stroke: #264653"/>
     <use xlink:href="#m506eb44910" x="344.42733" y="34.495156" style="fill: #264653; stroke: #264653"/>
     <use xlink:href="#m506eb44910" x="362.745562" y="34.495156" style="fill: #264653; stroke: #264653"/>
     <use xlink:href="#m506eb44910" x="381.063794" y="34.495156" style="fill: #264653; stroke: #264653"/>
     <use xlink:href="#m506eb44910" x="399.382026" y="34.495156" style="fill: #264653; stroke: #264653"/>
     <use xlink:href="#m506eb44910" x="417.700258" y="34.495156" style="fill: #264653; stroke: #264653"/>
     <use xlink:href="#m506eb44910" x="436.01849" y="34.495156" style="fill: #264653; stroke: #264653"/>
     <use xlink:href="#m506eb44910" x="454.336722" y="34.495156" style="fill: #264653; stroke: #264653"/>
     <use xlink:href="#m506eb44910" x="472.654954" y="278.035781" style="fill: #264653; stroke: #264653"/>
     <use xlink:href="#m506eb44910" x="490.973185" y="278.035781" style="fill: #264653; stroke: #264653"/>
     <use xlink:href="#m506eb44910" x="509.291417" y="278.035781" style="fill: #264653; stroke: #264653"/>
    </g>
   </g>
   <g id="patch_31">
    <path d="M 58.846094 278.035781 
L 58.846094 22.318125 
" style="fill: none; stroke: #000000; stroke-width: 0.8; stroke-linejoin: miter; stroke-linecap: square"/>
   </g>
   <g id="patch_32">
    <path d="M 538.417406 278.035781 
L 538.417406 22.318125 
" style="fill: none; stroke: #000000; stroke-width: 0.8; stroke-linejoin: miter; stroke-linecap: square"/>
   </g>
   <g id="patch_33">
    <path d="M 58.846094 278.035781 
L 538.417406 278.035781 
" style="fill: none; stroke: #000000; stroke-width: 0.8; stroke-linejoin: miter; stroke-linecap: square"/>
   </g>
   <g id="patch_34">
    <path d="M 58.846094 22.318125 
L 538.417406 22.318125 
" style="fill: none; stroke: #000000; stroke-width: 0.8; stroke-linejoin: miter; stroke-linecap: square"/>
   </g>
  </g>
  <g id="axes_3">
   <g id="matplotlib.axis_4">
    <g id="ytick_16">
     <g id="line2d_30">
      <g>
       <use xlink:href="#m1e1866eae3" x="595.965964" y="262.342255" style="stroke: #000000; stroke-width: 0.8"/>
      </g>
     </g>
     <g id="text_32">
      <!-- 0 -->
      <g transform="translate(602.965964 266.141083) scale(0.1 -0.1)">
       <use xlink:href="#DejaVuSans-13"/>
      </g>
     </g>
    </g>
    <g id="ytick_17">
     <g id="line2d_31">
      <g>
       <use xlink:href="#m1e1866eae3" x="595.965964" y="213.740955" style="stroke: #000000; stroke-width: 0.8"/>
      </g>
     </g>
     <g id="text_33">
      <!-- 20 -->
      <g transform="translate(602.965964 217.539783) scale(0.1 -0.1)">
       <use xlink:href="#DejaVuSans-15"/>
       <use xlink:href="#DejaVuSans-13" transform="translate(63.625 0)"/>
      </g>
     </g>
    </g>
    <g id="ytick_18">
     <g id="line2d_32">
      <g>
       <use xlink:href="#m1e1866eae3" x="595.965964" y="165.139656" style="stroke: #000000; stroke-width: 0.8"/>
      </g>
     </g>
     <g id="text_34">
      <!-- 40 -->
      <g transform="translate(602.965964 168.938484) scale(0.1 -0.1)">
       <use xlink:href="#DejaVuSans-17"/>
       <use xlink:href="#DejaVuSans-13" transform="translate(63.625 0)"/>
      </g>
     </g>
    </g>
    <g id="ytick_19">
     <g id="line2d_33">
      <g>
       <use xlink:href="#m1e1866eae3" x="595.965964" y="116.538356" style="stroke: #000000; stroke-width: 0.8"/>
      </g>
     </g>
     <g id="text_35">
      <!-- 60 -->
      <g transform="translate(602.965964 120.337184) scale(0.1 -0.1)">
       <use xlink:href="#DejaVuSans-19"/>
       <use xlink:href="#DejaVuSans-13" transform="translate(63.625 0)"/>
      </g>
     </g>
    </g>
    <g id="ytick_20">
     <g id="line2d_34">
      <g>
       <use xlink:href="#m1e1866eae3" x="595.965964" y="67.937056" style="stroke: #000000; stroke-width: 0.8"/>
      </g>
     </g>
     <g id="text_36">
      <!-- 80 -->
      <g transform="translate(602.965964 71.735884) scale(0.1 -0.1)">
       <use xlink:href="#DejaVuSans-1b"/>
       <use xlink:href="#DejaVuSans-13" transform="translate(63.625 0)"/>
      </g>
     </g>
    </g>
    <g id="text_37">
     <!-- day-ahead price (€/MWh) -->
     <g style="fill: #b8860b" transform="translate(627.289401 213.455078) rotate(-90) scale(0.1 -0.1)">
      <defs>
       <path id="DejaVuSans-b83" d="M 3647 4306 
L 3647 3641 
Q 3363 3969 3098 4109 
Q 2834 4250 2516 4250 
Q 2025 4250 1709 3937 
Q 1394 3625 1294 3041 
L 3097 3041 
L 2925 2656 
L 1244 2656 
Q 1238 2581 1236 2509 
Q 1234 2438 1234 2328 
Q 1234 2228 1236 2156 
Q 1238 2084 1244 2009 
L 2638 2009 
L 2463 1625 
L 1294 1625 
Q 1394 1041 1709 725 
Q 2025 409 2516 409 
Q 2834 409 3098 550 
Q 3363 691 3647 1019 
L 3647 359 
Q 3369 134 3080 21 
Q 2791 -91 2491 -91 
Q 1750 -91 1267 362 
Q 784 816 659 1625 
L 0 1625 
L 172 2009 
L 606 2009 
Q 606 2081 604 2154 
Q 603 2228 603 2328 
Q 603 2438 604 2511 
Q 606 2584 606 2656 
L 0 2656 
L 172 3041 
L 659 3041 
Q 784 3844 1268 4297 
Q 1753 4750 2491 4750 
Q 2797 4750 3086 4639 
Q 3375 4528 3647 4306 
z
" transform="scale(0.015625)"/>
      </defs>
      <use xlink:href="#DejaVuSans-47"/>
      <use xlink:href="#DejaVuSans-44" transform="translate(63.484375 0)"/>
      <use xlink:href="#DejaVuSans-5c" transform="translate(124.765625 0)"/>
      <use xlink:href="#DejaVuSans-10" transform="translate(182.203125 0)"/>
      <use xlink:href="#DejaVuSans-44" transform="translate(218.28125 0)"/>
      <use xlink:href="#DejaVuSans-4b" transform="translate(279.5625 0)"/>
      <use xlink:href="#DejaVuSans-48" transform="translate(342.9375 0)"/>
      <use xlink:href="#DejaVuSans-44" transform="translate(404.46875 0)"/>
      <use xlink:href="#DejaVuSans-47" transform="translate(465.75 0)"/>
      <use xlink:href="#DejaVuSans-3" transform="translate(529.234375 0)"/>
      <use xlink:href="#DejaVuSans-53" transform="translate(561.015625 0)"/>
      <use xlink:href="#DejaVuSans-55" transform="translate(624.5 0)"/>
      <use xlink:href="#DejaVuSans-4c" transform="translate(665.609375 0)"/>
      <use xlink:href="#DejaVuSans-46" transform="translate(693.390625 0)"/>
      <use xlink:href="#DejaVuSans-48" transform="translate(748.375 0)"/>
      <use xlink:href="#DejaVuSans-3" transform="translate(809.90625 0)"/>
      <use xlink:href="#DejaVuSans-b" transform="translate(841.6875 0)"/>
      <use xlink:href="#DejaVuSans-b83" transform="translate(880.703125 0)"/>
      <use xlink:href="#DejaVuSans-12" transform="translate(944.328125 0)"/>
      <use xlink:href="#DejaVuSans-30" transform="translate(978.015625 0)"/>
      <use xlink:href="#DejaVuSans-3a" transform="translate(1064.296875 0)"/>
      <use xlink:href="#DejaVuSans-4b" transform="translate(1163.171875 0)"/>
      <use xlink:href="#DejaVuSans-c" transform="translate(1226.546875 0)"/>
     </g>
    </g>
   </g>
   <g id="line2d_35">
    <path d="M 87.972083 177.48384 
L 106.290315 184.453434 
L 124.608546 195.217 
L 142.926778 184.006725 
L 161.24501 183.898328 
L 179.563242 187.262875 
L 197.881474 169.974423 
L 216.199706 162.101132 
L 234.517938 155.628686 
L 252.83617 133.667704 
L 271.154402 134.515347 
L 289.472634 230.425789 
L 307.790866 223.411516 
L 326.109098 266.412251 
L 344.42733 253.939331 
L 362.745562 151.989298 
L 381.063794 126.971198 
L 399.382026 104.044483 
L 417.700258 87.060443 
L 436.01849 52.824058 
L 454.336722 41.895411 
L 472.654954 33.941655 
L 490.973185 88.916355 
L 509.291417 159.033366 
" clip-path="url(#p788279fc12)" style="fill: none; stroke: #e9c46a; stroke-width: 2; stroke-linecap: square"/>
   </g>
   <g id="patch_35">
    <path d="M 58.846094 278.035781 
L 58.846094 22.318125 
" style="fill: none; stroke: #000000; stroke-width: 0.8; stroke-linejoin: miter; stroke-linecap: square"/>
   </g>
   <g id="patch_36">
    <path d="M 595.965964 278.035781 
L 595.965964 22.318125 
" style="fill: none; stroke: #000000; stroke-width: 0.8; stroke-linejoin: miter; stroke-linecap: square"/>
   </g>
   <g id="patch_37">
    <path d="M 58.846094 278.035781 
L 538.417406 278.035781 
" style="fill: none; stroke: #000000; stroke-width: 0.8; stroke-linejoin: miter; stroke-linecap: square"/>
   </g>
   <g id="patch_38">
    <path d="M 58.846094 22.318125 
L 538.417406 22.318125 
" style="fill: none; stroke: #000000; stroke-width: 0.8; stroke-linejoin: miter; stroke-linecap: square"/>
   </g>
  </g>
 </g>
 <defs>
  <clipPath id="p788279fc12">
   <rect x="58.846094" y="22.318125" width="479.571312" height="255.717656"/>
  </clipPath>
 </defs>
</svg>
