<?xml version="1.0" encoding="utf-8" standalone="no"?>
<!DOCTYPE svg PUBLIC "-//W3C//DTD SVG 1.1//EN"
  "http://www.w3.org/Graphics/SVG/1.1/DTD/svg11.dtd">
<svg xmlns:xlink="http://www.w3.org/1999/xlink" width="716.509703pt" height="537.902344pt" viewBox="0 0 716.509703 537.902344" xmlns="http://www.w3.org/2000/svg" version="1.1">
 <metadata>
  <rdf:RDF xmlns:dc="http://purl.org/dc/elements/1.1/" xmlns:cc="http://creativecommons.org/ns#" xmlns:rdf="http://www.w3.org/1999/02/22-rdf-syntax-ns#">
   <cc:Work>
    <dc:type rdf:resource="http://purl.org/dc/dcmitype/StillImage"/>
    <dc:date>2026-07-15T13:25:47.141201</dc:date>
    <dc:format>image/svg+xml</dc:format>
    <dc:creator>
     <cc:Agent>
      <dc:title>Matplotlib v3.11.0, https://matplotlib.org/</dc:title>
     </cc:Agent>
    </dc:creator>
   </cc:Work>
  </rdf:RDF>
 </metadata>
 <defs>
  <style type="text/css">*{stroke-linejoin: round; stroke-linecap: butt}</style>
 </defs>
 <g id="figure_1">
  <g id="patch_1">
   <path d="M 0 537.902344 
L 716.509703 537.902344 
L 716.509703 0 
L 0 0 
z
" style="fill: #ffffff"/>
  </g>
  <g id="axes_1">
   <g id="patch_2">
    <path d="M 67.383766 247.068574 
L 669.221422 247.068574 
L 669.221422 67.946602 
L 67.383766 67.946602 
z
" style="fill: #ffffff"/>
   </g>
   <g id="patch_3">
    <path d="M 94.740023 155.419919 
L 113.130784 155.419919 
L 113.130784 155.419919 
L 94.740023 155.419919 
z
" clip-path="url(#p249684db89)" style="fill: #2a9d8f; opacity: 0.85"/>
   </g>
   <g id="patch_4">
    <path d="M 117.728474 155.419919 
L 136.119235 155.419919 
L 136.119235 159.815011 
L 117.728474 159.815011 
z
" clip-path="url(#p249684db89)" style="fill: #e76f51; opacity: 0.85"/>
   </g>
   <g id="patch_5">
    <path d="M 140.716925 155.419919 
L 159.107686 155.419919 
L 159.107686 238.926666 
L 140.716925 238.926666 
z
" clip-path="url(#p249684db89)" style="fill: #e76f51; opacity: 0.85"/>
   </g>
   <g id="patch_6">
    <path d="M 163.705377 155.419919 
L 182.096138 155.419919 
L 182.096138 80.05508 
L 163.705377 80.05508 
z
" clip-path="url(#p249684db89)" style="fill: #2a9d8f; opacity: 0.85"/>
   </g>
   <g id="patch_7">
    <path d="M 186.693828 155.419919 
L 205.084589 155.419919 
L 205.084589 155.419919 
L 186.693828 155.419919 
z
" clip-path="url(#p249684db89)" style="fill: #2a9d8f; opacity: 0.85"/>
   </g>
   <g id="patch_8">
    <path d="M 209.682279 155.419919 
L 228.073041 155.419919 
L 228.073041 238.926666 
L 209.682279 238.926666 
z
" clip-path="url(#p249684db89)" style="fill: #e76f51; opacity: 0.85"/>
   </g>
   <g id="patch_9">
    <path d="M 232.670731 155.419919 
L 251.061492 155.419919 
L 251.061492 155.419919 
L 232.670731 155.419919 
z
" clip-path="url(#p249684db89)" style="fill: #2a9d8f; opacity: 0.85"/>
   </g>
   <g id="patch_10">
    <path d="M 255.659182 155.419919 
L 274.049943 155.419919 
L 274.049943 155.419919 
L 255.659182 155.419919 
z
" clip-path="url(#p249684db89)" style="fill: #2a9d8f; opacity: 0.85"/>
   </g>
   <g id="patch_11">
    <path d="M 278.647633 155.419919 
L 297.038395 155.419919 
L 297.038395 155.419919 
L 278.647633 155.419919 
z
" clip-path="url(#p249684db89)" style="fill: #2a9d8f; opacity: 0.85"/>
   </g>
   <g id="patch_12">
    <path d="M 301.636085 155.419919 
L 320.026846 155.419919 
L 320.026846 155.419919 
L 301.636085 155.419919 
z
" clip-path="url(#p249684db89)" style="fill: #2a9d8f; opacity: 0.85"/>
   </g>
   <g id="patch_13">
    <path d="M 324.624536 155.419919 
L 343.015297 155.419919 
L 343.015297 155.419919 
L 324.624536 155.419919 
z
" clip-path="url(#p249684db89)" style="fill: #2a9d8f; opacity: 0.85"/>
   </g>
   <g id="patch_14">
    <path d="M 347.612988 155.419919 
L 366.003749 155.419919 
L 366.003749 155.419919 
L 347.612988 155.419919 
z
" clip-path="url(#p249684db89)" style="fill: #2a9d8f; opacity: 0.85"/>
   </g>
   <g id="patch_15">
    <path d="M 370.601439 155.419919 
L 388.9922 155.419919 
L 388.9922 155.419919 
L 370.601439 155.419919 
z
" clip-path="url(#p249684db89)" style="fill: #2a9d8f; opacity: 0.85"/>
   </g>
   <g id="patch_16">
    <path d="M 393.58989 155.419919 
L 411.980651 155.419919 
L 411.980651 155.419919 
L 393.58989 155.419919 
z
" clip-path="url(#p249684db89)" style="fill: #2a9d8f; opacity: 0.85"/>
   </g>
   <g id="patch_17">
    <path d="M 416.578342 155.419919 
L 434.969103 155.419919 
L 434.969103 155.419919 
L 416.578342 155.419919 
z
" clip-path="url(#p249684db89)" style="fill: #2a9d8f; opacity: 0.85"/>
   </g>
   <g id="patch_18">
    <path d="M 439.566793 155.419919 
L 457.957554 155.419919 
L 457.957554 155.419919 
L 439.566793 155.419919 
z
" clip-path="url(#p249684db89)" style="fill: #2a9d8f; opacity: 0.85"/>
   </g>
   <g id="patch_19">
    <path d="M 462.555244 155.419919 
L 480.946005 155.419919 
L 480.946005 155.419919 
L 462.555244 155.419919 
z
" clip-path="url(#p249684db89)" style="fill: #2a9d8f; opacity: 0.85"/>
   </g>
   <g id="patch_20">
    <path d="M 485.543696 155.419919 
L 503.934457 155.419919 
L 503.934457 155.419919 
L 485.543696 155.419919 
z
" clip-path="url(#p249684db89)" style="fill: #2a9d8f; opacity: 0.85"/>
   </g>
   <g id="patch_21">
    <path d="M 508.532147 155.419919 
L 526.922908 155.419919 
L 526.922908 155.419919 
L 508.532147 155.419919 
z
" clip-path="url(#p249684db89)" style="fill: #2a9d8f; opacity: 0.85"/>
   </g>
   <g id="patch_22">
    <path d="M 531.520598 155.419919 
L 549.911359 155.419919 
L 549.911359 155.419919 
L 531.520598 155.419919 
z
" clip-path="url(#p249684db89)" style="fill: #2a9d8f; opacity: 0.85"/>
   </g>
   <g id="patch_23">
    <path d="M 554.50905 155.419919 
L 572.899811 155.419919 
L 572.899811 76.088509 
L 554.50905 76.088509 
z
" clip-path="url(#p249684db89)" style="fill: #2a9d8f; opacity: 0.85"/>
   </g>
   <g id="patch_24">
    <path d="M 577.497501 155.419919 
L 595.888262 155.419919 
L 595.888262 155.419919 
L 577.497501 155.419919 
z
" clip-path="url(#p249684db89)" style="fill: #2a9d8f; opacity: 0.85"/>
   </g>
   <g id="patch_25">
    <path d="M 600.485952 155.419919 
L 618.876713 155.419919 
L 618.876713 155.419919 
L 600.485952 155.419919 
z
" clip-path="url(#p249684db89)" style="fill: #2a9d8f; opacity: 0.85"/>
   </g>
   <g id="patch_26">
    <path d="M 623.474404 155.419919 
L 641.865165 155.419919 
L 641.865165 155.419919 
L 623.474404 155.419919 
z
" clip-path="url(#p249684db89)" style="fill: #2a9d8f; opacity: 0.85"/>
   </g>
   <g id="patch_27">
    <path d="M 322.325691 247.068574 
L 529.221753 247.068574 
L 529.221753 67.946602 
L 322.325691 67.946602 
z
" clip-path="url(#p249684db89)" style="fill: #d03b3b; opacity: 0.15; stroke: #d03b3b; stroke-linejoin: miter"/>
   </g>
   <g id="matplotlib.axis_1">
    <g id="xtick_1">
     <g id="line2d_1">
      <defs>
       <path id="mc2c05bdd22" d="M 0 0 
L 0 3.5 
" style="stroke: #000000; stroke-width: 0.8"/>
      </defs>
      <g>
       <use xlink:href="#mc2c05bdd22" x="103.935403" y="247.068574" style="stroke: #000000; stroke-width: 0.8"/>
      </g>
     </g>
    </g>
    <g id="xtick_2">
     <g id="line2d_2">
      <g>
       <use xlink:href="#mc2c05bdd22" x="149.912306" y="247.068574" style="stroke: #000000; stroke-width: 0.8"/>
      </g>
     </g>
    </g>
    <g id="xtick_3">
     <g id="line2d_3">
      <g>
       <use xlink:href="#mc2c05bdd22" x="195.889209" y="247.068574" style="stroke: #000000; stroke-width: 0.8"/>
      </g>
     </g>
    </g>
    <g id="xtick_4">
     <g id="line2d_4">
      <g>
       <use xlink:href="#mc2c05bdd22" x="241.866111" y="247.068574" style="stroke: #000000; stroke-width: 0.8"/>
      </g>
     </g>
    </g>
    <g id="xtick_5">
     <g id="line2d_5">
      <g>
       <use xlink:href="#mc2c05bdd22" x="287.843014" y="247.068574" style="stroke: #000000; stroke-width: 0.8"/>
      </g>
     </g>
    </g>
    <g id="xtick_6">
     <g id="line2d_6">
      <g>
       <use xlink:href="#mc2c05bdd22" x="333.819917" y="247.068574" style="stroke: #000000; stroke-width: 0.8"/>
      </g>
     </g>
    </g>
    <g id="xtick_7">
     <g id="line2d_7">
      <g>
       <use xlink:href="#mc2c05bdd22" x="379.796819" y="247.068574" style="stroke: #000000; stroke-width: 0.8"/>
      </g>
     </g>
    </g>
    <g id="xtick_8">
     <g id="line2d_8">
      <g>
       <use xlink:href="#mc2c05bdd22" x="425.773722" y="247.068574" style="stroke: #000000; stroke-width: 0.8"/>
      </g>
     </g>
    </g>
    <g id="xtick_9">
     <g id="line2d_9">
      <g>
       <use xlink:href="#mc2c05bdd22" x="471.750625" y="247.068574" style="stroke: #000000; stroke-width: 0.8"/>
      </g>
     </g>
    </g>
    <g id="xtick_10">
     <g id="line2d_10">
      <g>
       <use xlink:href="#mc2c05bdd22" x="517.727528" y="247.068574" style="stroke: #000000; stroke-width: 0.8"/>
      </g>
     </g>
    </g>
    <g id="xtick_11">
     <g id="line2d_11">
      <g>
       <use xlink:href="#mc2c05bdd22" x="563.70443" y="247.068574" style="stroke: #000000; stroke-width: 0.8"/>
      </g>
     </g>
    </g>
    <g id="xtick_12">
     <g id="line2d_12">
      <g>
       <use xlink:href="#mc2c05bdd22" x="609.681333" y="247.068574" style="stroke: #000000; stroke-width: 0.8"/>
      </g>
     </g>
    </g>
   </g>
   <g id="matplotlib.axis_2">
    <g id="ytick_1">
     <g id="line2d_13">
      <defs>
       <path id="m4fac48f217" d="M 0 0 
L -3.5 0 
" style="stroke: #000000; stroke-width: 0.8"/>
      </defs>
      <g>
       <use xlink:href="#m4fac48f217" x="67.383766" y="238.926666" style="stroke: #000000; stroke-width: 0.8"/>
      </g>
     </g>
     <g id="text_1">
      <!-- −1.0 -->
      <g transform="translate(36.100953 242.725494) scale(0.1 -0.1)">
       <defs>
        <path id="DejaVuSans-c9c" d="M 678 2272 
L 4684 2272 
L 4684 1741 
L 678 1741 
L 678 2272 
z
" transform="scale(0.015625)"/>
        <path id="DejaVuSans-14" d="M 794 531 
L 1825 531 
L 1825 4091 
L 703 3866 
L 703 4441 
L 1819 4666 
L 2450 4666 
L 2450 531 
L 3481 531 
L 3481 0 
L 794 0 
L 794 531 
z
" transform="scale(0.015625)"/>
        <path id="DejaVuSans-11" d="M 684 794 
L 1344 794 
L 1344 0 
L 684 0 
L 684 794 
z
" transform="scale(0.015625)"/>
        <path id="DejaVuSans-13" d="M 2034 4250 
Q 1547 4250 1301 3770 
Q 1056 3291 1056 2328 
Q 1056 1369 1301 889 
Q 1547 409 2034 409 
Q 2525 409 2770 889 
Q 3016 1369 3016 2328 
Q 3016 3291 2770 3770 
Q 2525 4250 2034 4250 
z
M 2034 4750 
Q 2819 4750 3233 4129 
Q 3647 3509 3647 2328 
Q 3647 1150 3233 529 
Q 2819 -91 2034 -91 
Q 1250 -91 836 529 
Q 422 1150 422 2328 
Q 422 3509 836 4129 
Q 1250 4750 2034 4750 
z
" transform="scale(0.015625)"/>
       </defs>
       <use xlink:href="#DejaVuSans-c9c"/>
       <use xlink:href="#DejaVuSans-14" transform="translate(83.796875 0)"/>
       <use xlink:href="#DejaVuSans-11" transform="translate(147.421875 0)"/>
       <use xlink:href="#DejaVuSans-13" transform="translate(179.203125 0)"/>
      </g>
     </g>
    </g>
    <g id="ytick_2">
     <g id="line2d_14">
      <g>
       <use xlink:href="#m4fac48f217" x="67.383766" y="197.173293" style="stroke: #000000; stroke-width: 0.8"/>
      </g>
     </g>
     <g id="text_2">
      <!-- −0.5 -->
      <g transform="translate(36.100953 200.972121) scale(0.1 -0.1)">
       <defs>
        <path id="DejaVuSans-18" d="M 691 4666 
L 3169 4666 
L 3169 4134 
L 1269 4134 
L 1269 2991 
Q 1406 3038 1543 3061 
Q 1681 3084 1819 3084 
Q 2600 3084 3056 2656 
Q 3513 2228 3513 1497 
Q 3513 744 3044 326 
Q 2575 -91 1722 -91 
Q 1428 -91 1123 -41 
Q 819 9 494 109 
L 494 744 
Q 775 591 1075 516 
Q 1375 441 1709 441 
Q 2250 441 2565 725 
Q 2881 1009 2881 1497 
Q 2881 1984 2565 2268 
Q 2250 2553 1709 2553 
Q 1456 2553 1204 2497 
Q 953 2441 691 2322 
L 691 4666 
z
" transform="scale(0.015625)"/>
       </defs>
       <use xlink:href="#DejaVuSans-c9c"/>
       <use xlink:href="#DejaVuSans-13" transform="translate(83.796875 0)"/>
       <use xlink:href="#DejaVuSans-11" transform="translate(147.421875 0)"/>
       <use xlink:href="#DejaVuSans-18" transform="translate(179.203125 0)"/>
      </g>
     </g>
    </g>
    <g id="ytick_3">
     <g id="line2d_15">
      <g>
       <use xlink:href="#m4fac48f217" x="67.383766" y="155.419919" style="stroke: #000000; stroke-width: 0.8"/>
      </g>
     </g>
     <g id="text_3">
      <!-- 0.0 -->
      <g transform="translate(44.480641 159.218747) scale(0.1 -0.1)">
       <use xlink:href="#DejaVuSans-13"/>
       <use xlink:href="#DejaVuSans-11" transform="translate(63.625 0)"/>
       <use xlink:href="#DejaVuSans-13" transform="translate(95.40625 0)"/>
      </g>
     </g>
    </g>
    <g id="ytick_4">
     <g id="line2d_16">
      <g>
       <use xlink:href="#m4fac48f217" x="67.383766" y="113.666546" style="stroke: #000000; stroke-width: 0.8"/>
      </g>
     </g>
     <g id="text_4">
      <!-- 0.5 -->
      <g transform="translate(44.480641 117.465374) scale(0.1 -0.1)">
       <use xlink:href="#DejaVuSans-13"/>
       <use xlink:href="#DejaVuSans-11" transform="translate(63.625 0)"/>
       <use xlink:href="#DejaVuSans-18" transform="translate(95.40625 0)"/>
      </g>
     </g>
    </g>
    <g id="ytick_5">
     <g id="line2d_17">
      <g>
       <use xlink:href="#m4fac48f217" x="67.383766" y="71.913172" style="stroke: #000000; stroke-width: 0.8"/>
      </g>
     </g>
     <g id="text_5">
      <!-- 1.0 -->
      <g transform="translate(44.480641 75.712) scale(0.1 -0.1)">
       <use xlink:href="#DejaVuSans-14"/>
       <use xlink:href="#DejaVuSans-11" transform="translate(63.625 0)"/>
       <use xlink:href="#DejaVuSans-13" transform="translate(95.40625 0)"/>
      </g>
     </g>
    </g>
   </g>
   <g id="line2d_18">
    <path d="M 67.383766 155.419919 
L 669.221422 155.419919 
" clip-path="url(#p249684db89)" style="fill: none; stroke: #888888; stroke-width: 0.8; stroke-linecap: square"/>
   </g>
   <g id="patch_28">
    <path d="M 67.383766 247.068574 
L 67.383766 67.946602 
" style="fill: none; stroke: #000000; stroke-width: 0.8; stroke-linejoin: miter; stroke-linecap: square"/>
   </g>
   <g id="patch_29">
    <path d="M 669.221422 247.068574 
L 669.221422 67.946602 
" style="fill: none; stroke: #000000; stroke-width: 0.8; stroke-linejoin: miter; stroke-linecap: square"/>
   </g>
   <g id="patch_30">
    <path d="M 67.383766 247.068574 
L 669.221422 247.068574 
" style="fill: none; stroke: #000000; stroke-width: 0.8; stroke-linejoin: miter; stroke-linecap: square"/>
   </g>
   <g id="patch_31">
    <path d="M 67.383766 67.946602 
L 669.221422 67.946602 
" style="fill: none; stroke: #000000; stroke-width: 0.8; stroke-linejoin: miter; stroke-linecap: square"/>
   </g>
   <g id="text_6">
    <!-- corrupt -->
    <g style="fill: #b00020" transform="translate(411.265597 83.691799) scale(0.08 -0.08)">
     <defs>
      <path id="DejaVuSans-46" d="M 3122 3366 
L 3122 2828 
Q 2878 2963 2633 3030 
Q 2388 3097 2138 3097 
Q 1578 3097 1268 2742 
Q 959 2388 959 1747 
Q 959 1106 1268 751 
Q 1578 397 2138 397 
Q 2388 397 2633 464 
Q 2878 531 3122 666 
L 3122 134 
Q 2881 22 2623 -34 
Q 2366 -91 2075 -91 
Q 1284 -91 818 406 
Q 353 903 353 1747 
Q 353 2603 823 3093 
Q 1294 3584 2113 3584 
Q 2378 3584 2631 3529 
Q 2884 3475 3122 3366 
z
" transform="scale(0.015625)"/>
      <path id="DejaVuSans-52" d="M 1959 3097 
Q 1497 3097 1228 2736 
Q 959 2375 959 1747 
Q 959 1119 1226 758 
Q 1494 397 1959 397 
Q 2419 397 2687 759 
Q 2956 1122 2956 1747 
Q 2956 2369 2687 2733 
Q 2419 3097 1959 3097 
z
M 1959 3584 
Q 2709 3584 3137 3096 
Q 3566 2609 3566 1747 
Q 3566 888 3137 398 
Q 2709 -91 1959 -91 
Q 1206 -91 779 398 
Q 353 888 353 1747 
Q 353 2609 779 3096 
Q 1206 3584 1959 3584 
z
" transform="scale(0.015625)"/>
      <path id="DejaVuSans-55" d="M 2631 2963 
Q 2534 3019 2420 3045 
Q 2306 3072 2169 3072 
Q 1681 3072 1420 2755 
Q 1159 2438 1159 1844 
L 1159 0 
L 581 0 
L 581 3500 
L 1159 3500 
L 1159 2956 
Q 1341 3275 1631 3429 
Q 1922 3584 2338 3584 
Q 2397 3584 2469 3576 
Q 2541 3569 2628 3553 
L 2631 2963 
z
" transform="scale(0.015625)"/>
      <path id="DejaVuSans-58" d="M 544 1381 
L 544 3500 
L 1119 3500 
L 1119 1403 
Q 1119 906 1312 657 
Q 1506 409 1894 409 
Q 2359 409 2629 706 
Q 2900 1003 2900 1516 
L 2900 3500 
L 3475 3500 
L 3475 0 
L 2900 0 
L 2900 538 
Q 2691 219 2414 64 
Q 2138 -91 1772 -91 
Q 1169 -91 856 284 
Q 544 659 544 1381 
z
M 1991 3584 
L 1991 3584 
z
" transform="scale(0.015625)"/>
      <path id="DejaVuSans-53" d="M 1159 525 
L 1159 -1331 
L 581 -1331 
L 581 3500 
L 1159 3500 
L 1159 2969 
Q 1341 3281 1617 3432 
Q 1894 3584 2278 3584 
Q 2916 3584 3314 3078 
Q 3713 2572 3713 1747 
Q 3713 922 3314 415 
Q 2916 -91 2278 -91 
Q 1894 -91 1617 61 
Q 1341 213 1159 525 
z
M 3116 1747 
Q 3116 2381 2855 2742 
Q 2594 3103 2138 3103 
Q 1681 3103 1420 2742 
Q 1159 2381 1159 1747 
Q 1159 1113 1420 752 
Q 1681 391 2138 391 
Q 2594 391 2855 752 
Q 3116 1113 3116 1747 
z
" transform="scale(0.015625)"/>
      <path id="DejaVuSans-57" d="M 1172 4494 
L 1172 3500 
L 2356 3500 
L 2356 3053 
L 1172 3053 
L 1172 1153 
Q 1172 725 1289 603 
Q 1406 481 1766 481 
L 2356 481 
L 2356 0 
L 1766 0 
Q 1100 0 847 248 
Q 594 497 594 1153 
L 594 3053 
L 172 3053 
L 172 3500 
L 594 3500 
L 594 4494 
L 1172 4494 
z
" transform="scale(0.015625)"/>
     </defs>
     <use xlink:href="#DejaVuSans-46"/>
     <use xlink:href="#DejaVuSans-52" transform="translate(54.984375 0)"/>
     <use xlink:href="#DejaVuSans-55" transform="translate(116.171875 0)"/>
     <use xlink:href="#DejaVuSans-55" transform="translate(155.53125 0)"/>
     <use xlink:href="#DejaVuSans-58" transform="translate(196.640625 0)"/>
     <use xlink:href="#DejaVuSans-53" transform="translate(260.015625 0)"/>
     <use xlink:href="#DejaVuSans-57" transform="translate(323.5 0)"/>
    </g>
   </g>
   <g id="text_7">
    <!-- ① Feed delivered — REJECTED (stuck_feed): dispatch here would run on corrupt prices -->
    <g transform="translate(67.383766 61.946602) scale(0.1 -0.1)">
     <defs>
      <path id="DejaVuSans-dcd" d="M 5263 2331 
Q 5263 1334 4561 635 
Q 3859 -63 2866 -63 
Q 1878 -63 1176 635 
Q 475 1334 475 2331 
Q 475 2950 797 3528 
Q 1119 4106 1695 4415 
Q 2272 4725 2866 4725 
Q 3469 4725 4045 4415 
Q 4622 4106 4942 3531 
Q 5263 2956 5263 2331 
z
M 734 2331 
Q 734 1444 1357 819 
Q 1981 194 2869 194 
Q 3756 194 4379 819 
Q 5003 1444 5003 2331 
Q 5003 2891 4718 3402 
Q 4434 3913 3921 4189 
Q 3409 4466 2869 4466 
Q 2328 4466 1815 4189 
Q 1303 3913 1018 3402 
Q 734 2891 734 2331 
z
M 1922 1288 
L 2600 1288 
L 2600 3281 
L 1863 3147 
L 1863 3622 
L 2666 3769 
L 3169 3769 
L 3169 1288 
L 3850 1288 
L 3850 844 
L 1922 844 
L 1922 1288 
z
" transform="scale(0.015625)"/>
      <path id="DejaVuSans-3" transform="scale(0.015625)"/>
      <path id="DejaVuSans-29" d="M 628 4666 
L 3309 4666 
L 3309 4134 
L 1259 4134 
L 1259 2759 
L 3109 2759 
L 3109 2228 
L 1259 2228 
L 1259 0 
L 628 0 
L 628 4666 
z
" transform="scale(0.015625)"/>
      <path id="DejaVuSans-48" d="M 3597 1894 
L 3597 1613 
L 953 1613 
Q 991 1019 1311 708 
Q 1631 397 2203 397 
Q 2534 397 2845 478 
Q 3156 559 3463 722 
L 3463 178 
Q 3153 47 2828 -22 
Q 2503 -91 2169 -91 
Q 1331 -91 842 396 
Q 353 884 353 1716 
Q 353 2575 817 3079 
Q 1281 3584 2069 3584 
Q 2775 3584 3186 3129 
Q 3597 2675 3597 1894 
z
M 3022 2063 
Q 3016 2534 2758 2815 
Q 2500 3097 2075 3097 
Q 1594 3097 1305 2825 
Q 1016 2553 972 2059 
L 3022 2063 
z
" transform="scale(0.015625)"/>
      <path id="DejaVuSans-47" d="M 2906 2969 
L 2906 4863 
L 3481 4863 
L 3481 0 
L 2906 0 
L 2906 525 
Q 2725 213 2448 61 
Q 2172 -91 1784 -91 
Q 1150 -91 751 415 
Q 353 922 353 1747 
Q 353 2572 751 3078 
Q 1150 3584 1784 3584 
Q 2172 3584 2448 3432 
Q 2725 3281 2906 2969 
z
M 947 1747 
Q 947 1113 1208 752 
Q 1469 391 1925 391 
Q 2381 391 2643 752 
Q 2906 1113 2906 1747 
Q 2906 2381 2643 2742 
Q 2381 3103 1925 3103 
Q 1469 3103 1208 2742 
Q 947 2381 947 1747 
z
" transform="scale(0.015625)"/>
      <path id="DejaVuSans-4f" d="M 603 4863 
L 1178 4863 
L 1178 0 
L 603 0 
L 603 4863 
z
" transform="scale(0.015625)"/>
      <path id="DejaVuSans-4c" d="M 603 3500 
L 1178 3500 
L 1178 0 
L 603 0 
L 603 3500 
z
M 603 4863 
L 1178 4863 
L 1178 4134 
L 603 4134 
L 603 4863 
z
" transform="scale(0.015625)"/>
      <path id="DejaVuSans-59" d="M 191 3500 
L 800 3500 
L 1894 563 
L 2988 3500 
L 3597 3500 
L 2284 0 
L 1503 0 
L 191 3500 
z
" transform="scale(0.015625)"/>
      <path id="DejaVuSans-af6" d="M 313 1978 
L 6088 1978 
L 6088 1528 
L 313 1528 
L 313 1978 
z
" transform="scale(0.015625)"/>
      <path id="DejaVuSans-35" d="M 2841 2188 
Q 3044 2119 3236 1894 
Q 3428 1669 3622 1275 
L 4263 0 
L 3584 0 
L 2988 1197 
Q 2756 1666 2539 1819 
Q 2322 1972 1947 1972 
L 1259 1972 
L 1259 0 
L 628 0 
L 628 4666 
L 2053 4666 
Q 2853 4666 3247 4331 
Q 3641 3997 3641 3322 
Q 3641 2881 3436 2590 
Q 3231 2300 2841 2188 
z
M 1259 4147 
L 1259 2491 
L 2053 2491 
Q 2509 2491 2742 2702 
Q 2975 2913 2975 3322 
Q 2975 3731 2742 3939 
Q 2509 4147 2053 4147 
L 1259 4147 
z
" transform="scale(0.015625)"/>
      <path id="DejaVuSans-28" d="M 628 4666 
L 3578 4666 
L 3578 4134 
L 1259 4134 
L 1259 2753 
L 3481 2753 
L 3481 2222 
L 1259 2222 
L 1259 531 
L 3634 531 
L 3634 0 
L 628 0 
L 628 4666 
z
" transform="scale(0.015625)"/>
      <path id="DejaVuSans-2d" d="M 628 4666 
L 1259 4666 
L 1259 325 
Q 1259 -519 939 -900 
Q 619 -1281 -91 -1281 
L -331 -1281 
L -331 -750 
L -134 -750 
Q 284 -750 456 -515 
Q 628 -281 628 325 
L 628 4666 
z
" transform="scale(0.015625)"/>
      <path id="DejaVuSans-26" d="M 4122 4306 
L 4122 3641 
Q 3803 3938 3442 4084 
Q 3081 4231 2675 4231 
Q 1875 4231 1450 3742 
Q 1025 3253 1025 2328 
Q 1025 1406 1450 917 
Q 1875 428 2675 428 
Q 3081 428 3442 575 
Q 3803 722 4122 1019 
L 4122 359 
Q 3791 134 3420 21 
Q 3050 -91 2638 -91 
Q 1578 -91 968 557 
Q 359 1206 359 2328 
Q 359 3453 968 4101 
Q 1578 4750 2638 4750 
Q 3056 4750 3426 4639 
Q 3797 4528 4122 4306 
z
" transform="scale(0.015625)"/>
      <path id="DejaVuSans-37" d="M -19 4666 
L 3928 4666 
L 3928 4134 
L 2272 4134 
L 2272 0 
L 1638 0 
L 1638 4134 
L -19 4134 
L -19 4666 
z
" transform="scale(0.015625)"/>
      <path id="DejaVuSans-27" d="M 1259 4147 
L 1259 519 
L 2022 519 
Q 2988 519 3436 956 
Q 3884 1394 3884 2338 
Q 3884 3275 3436 3711 
Q 2988 4147 2022 4147 
L 1259 4147 
z
M 628 4666 
L 1925 4666 
Q 3281 4666 3915 4102 
Q 4550 3538 4550 2338 
Q 4550 1131 3912 565 
Q 3275 0 1925 0 
L 628 0 
L 628 4666 
z
" transform="scale(0.015625)"/>
      <path id="DejaVuSans-b" d="M 1984 4856 
Q 1566 4138 1362 3434 
Q 1159 2731 1159 2009 
Q 1159 1288 1364 580 
Q 1569 -128 1984 -844 
L 1484 -844 
Q 1016 -109 783 600 
Q 550 1309 550 2009 
Q 550 2706 781 3412 
Q 1013 4119 1484 4856 
L 1984 4856 
z
" transform="scale(0.015625)"/>
      <path id="DejaVuSans-56" d="M 2834 3397 
L 2834 2853 
Q 2591 2978 2328 3040 
Q 2066 3103 1784 3103 
Q 1356 3103 1142 2972 
Q 928 2841 928 2578 
Q 928 2378 1081 2264 
Q 1234 2150 1697 2047 
L 1894 2003 
Q 2506 1872 2764 1633 
Q 3022 1394 3022 966 
Q 3022 478 2636 193 
Q 2250 -91 1575 -91 
Q 1294 -91 989 -36 
Q 684 19 347 128 
L 347 722 
Q 666 556 975 473 
Q 1284 391 1588 391 
Q 1994 391 2212 530 
Q 2431 669 2431 922 
Q 2431 1156 2273 1281 
Q 2116 1406 1581 1522 
L 1381 1569 
Q 847 1681 609 1914 
Q 372 2147 372 2553 
Q 372 3047 722 3315 
Q 1072 3584 1716 3584 
Q 2034 3584 2315 3537 
Q 2597 3491 2834 3397 
z
" transform="scale(0.015625)"/>
      <path id="DejaVuSans-4e" d="M 581 4863 
L 1159 4863 
L 1159 1991 
L 2875 3500 
L 3609 3500 
L 1753 1863 
L 3688 0 
L 2938 0 
L 1159 1709 
L 1159 0 
L 581 0 
L 581 4863 
z
" transform="scale(0.015625)"/>
      <path id="DejaVuSans-42" d="M 3263 -1063 
L 3263 -1509 
L -63 -1509 
L -63 -1063 
L 3263 -1063 
z
" transform="scale(0.015625)"/>
      <path id="DejaVuSans-49" d="M 2375 4863 
L 2375 4384 
L 1825 4384 
Q 1516 4384 1395 4259 
Q 1275 4134 1275 3809 
L 1275 3500 
L 2222 3500 
L 2222 3053 
L 1275 3053 
L 1275 0 
L 697 0 
L 697 3053 
L 147 3053 
L 147 3500 
L 697 3500 
L 697 3744 
Q 697 4328 969 4595 
Q 1241 4863 1831 4863 
L 2375 4863 
z
" transform="scale(0.015625)"/>
      <path id="DejaVuSans-c" d="M 513 4856 
L 1013 4856 
Q 1481 4119 1714 3412 
Q 1947 2706 1947 2009 
Q 1947 1309 1714 600 
Q 1481 -109 1013 -844 
L 513 -844 
Q 928 -128 1133 580 
Q 1338 1288 1338 2009 
Q 1338 2731 1133 3434 
Q 928 4138 513 4856 
z
" transform="scale(0.015625)"/>
      <path id="DejaVuSans-1d" d="M 750 794 
L 1409 794 
L 1409 0 
L 750 0 
L 750 794 
z
M 750 3309 
L 1409 3309 
L 1409 2516 
L 750 2516 
L 750 3309 
z
" transform="scale(0.015625)"/>
      <path id="DejaVuSans-44" d="M 2194 1759 
Q 1497 1759 1228 1600 
Q 959 1441 959 1056 
Q 959 750 1161 570 
Q 1363 391 1709 391 
Q 2188 391 2477 730 
Q 2766 1069 2766 1631 
L 2766 1759 
L 2194 1759 
z
M 3341 1997 
L 3341 0 
L 2766 0 
L 2766 531 
Q 2569 213 2275 61 
Q 1981 -91 1556 -91 
Q 1019 -91 701 211 
Q 384 513 384 1019 
Q 384 1609 779 1909 
Q 1175 2209 1959 2209 
L 2766 2209 
L 2766 2266 
Q 2766 2663 2505 2880 
Q 2244 3097 1772 3097 
Q 1472 3097 1187 3025 
Q 903 2953 641 2809 
L 641 3341 
Q 956 3463 1253 3523 
Q 1550 3584 1831 3584 
Q 2591 3584 2966 3190 
Q 3341 2797 3341 1997 
z
" transform="scale(0.015625)"/>
      <path id="DejaVuSans-4b" d="M 3513 2113 
L 3513 0 
L 2938 0 
L 2938 2094 
Q 2938 2591 2744 2837 
Q 2550 3084 2163 3084 
Q 1697 3084 1428 2787 
Q 1159 2491 1159 1978 
L 1159 0 
L 581 0 
L 581 4863 
L 1159 4863 
L 1159 2956 
Q 1366 3272 1645 3428 
Q 1925 3584 2291 3584 
Q 2894 3584 3203 3211 
Q 3513 2838 3513 2113 
z
" transform="scale(0.015625)"/>
      <path id="DejaVuSans-5a" d="M 269 3500 
L 844 3500 
L 1563 769 
L 2278 3500 
L 2956 3500 
L 3675 769 
L 4391 3500 
L 4966 3500 
L 4050 0 
L 3372 0 
L 2619 2869 
L 1863 0 
L 1184 0 
L 269 3500 
z
" transform="scale(0.015625)"/>
      <path id="DejaVuSans-51" d="M 3513 2113 
L 3513 0 
L 2938 0 
L 2938 2094 
Q 2938 2591 2744 2837 
Q 2550 3084 2163 3084 
Q 1697 3084 1428 2787 
Q 1159 2491 1159 1978 
L 1159 0 
L 581 0 
L 581 3500 
L 1159 3500 
L 1159 2956 
Q 1366 3272 1645 3428 
Q 1925 3584 2291 3584 
Q 2894 3584 3203 3211 
Q 3513 2838 3513 2113 
z
" transform="scale(0.015625)"/>
     </defs>
     <use xlink:href="#DejaVuSans-dcd"/>
     <use xlink:href="#DejaVuSans-3" transform="translate(89.65625 0)"/>
     <use xlink:href="#DejaVuSans-29" transform="translate(121.4375 0)"/>
     <use xlink:href="#DejaVuSans-48" transform="translate(173.484375 0)"/>
     <use xlink:href="#DejaVuSans-48" transform="translate(235.015625 0)"/>
     <use xlink:href="#DejaVuSans-47" transform="translate(296.546875 0)"/>
     <use xlink:href="#DejaVuSans-3" transform="translate(360.03125 0)"/>
     <use xlink:href="#DejaVuSans-47" transform="translate(391.8125 0)"/>
     <use xlink:href="#DejaVuSans-48" transform="translate(455.296875 0)"/>
     <use xlink:href="#DejaVuSans-4f" transform="translate(516.828125 0)"/>
     <use xlink:href="#DejaVuSans-4c" transform="translate(544.609375 0)"/>
     <use xlink:href="#DejaVuSans-59" transform="translate(572.390625 0)"/>
     <use xlink:href="#DejaVuSans-48" transform="translate(631.578125 0)"/>
     <use xlink:href="#DejaVuSans-55" transform="translate(693.109375 0)"/>
     <use xlink:href="#DejaVuSans-48" transform="translate(732.015625 0)"/>
     <use xlink:href="#DejaVuSans-47" transform="translate(793.546875 0)"/>
     <use xlink:href="#DejaVuSans-3" transform="translate(857.03125 0)"/>
     <use xlink:href="#DejaVuSans-af6" transform="translate(888.8125 0)"/>
     <use xlink:href="#DejaVuSans-3" transform="translate(988.8125 0)"/>
     <use xlink:href="#DejaVuSans-35" transform="translate(1020.59375 0)"/>
     <use xlink:href="#DejaVuSans-28" transform="translate(1090.078125 0)"/>
     <use xlink:href="#DejaVuSans-2d" transform="translate(1153.265625 0)"/>
     <use xlink:href="#DejaVuSans-28" transform="translate(1182.765625 0)"/>
     <use xlink:href="#DejaVuSans-26" transform="translate(1245.953125 0)"/>
     <use xlink:href="#DejaVuSans-37" transform="translate(1315.78125 0)"/>
     <use xlink:href="#DejaVuSans-28" transform="translate(1376.859375 0)"/>
     <use xlink:href="#DejaVuSans-27" transform="translate(1440.046875 0)"/>
     <use xlink:href="#DejaVuSans-3" transform="translate(1517.046875 0)"/>
     <use xlink:href="#DejaVuSans-b" transform="translate(1548.828125 0)"/>
     <use xlink:href="#DejaVuSans-56" transform="translate(1587.84375 0)"/>
     <use xlink:href="#DejaVuSans-57" transform="translate(1639.9375 0)"/>
     <use xlink:href="#DejaVuSans-58" transform="translate(1679.140625 0)"/>
     <use xlink:href="#DejaVuSans-46" transform="translate(1742.515625 0)"/>
     <use xlink:href="#DejaVuSans-4e" transform="translate(1797.5 0)"/>
     <use xlink:href="#DejaVuSans-42" transform="translate(1855.40625 0)"/>
     <use xlink:href="#DejaVuSans-49" transform="translate(1905.40625 0)"/>
     <use xlink:href="#DejaVuSans-48" transform="translate(1940.609375 0)"/>
     <use xlink:href="#DejaVuSans-48" transform="translate(2002.140625 0)"/>
     <use xlink:href="#DejaVuSans-47" transform="translate(2063.671875 0)"/>
     <use xlink:href="#DejaVuSans-c" transform="translate(2127.15625 0)"/>
     <use xlink:href="#DejaVuSans-1d" transform="translate(2166.171875 0)"/>
     <use xlink:href="#DejaVuSans-3" transform="translate(2199.859375 0)"/>
     <use xlink:href="#DejaVuSans-47" transform="translate(2231.640625 0)"/>
     <use xlink:href="#DejaVuSans-4c" transform="translate(2295.125 0)"/>
     <use xlink:href="#DejaVuSans-56" transform="translate(2322.90625 0)"/>
     <use xlink:href="#DejaVuSans-53" transform="translate(2375 0)"/>
     <use xlink:href="#DejaVuSans-44" transform="translate(2438.484375 0)"/>
     <use xlink:href="#DejaVuSans-57" transform="translate(2499.765625 0)"/>
     <use xlink:href="#DejaVuSans-46" transform="translate(2538.96875 0)"/>
     <use xlink:href="#DejaVuSans-4b" transform="translate(2593.953125 0)"/>
     <use xlink:href="#DejaVuSans-3" transform="translate(2657.328125 0)"/>
     <use xlink:href="#DejaVuSans-4b" transform="translate(2689.109375 0)"/>
     <use xlink:href="#DejaVuSans-48" transform="translate(2752.484375 0)"/>
     <use xlink:href="#DejaVuSans-55" transform="translate(2814.015625 0)"/>
     <use xlink:href="#DejaVuSans-48" transform="translate(2852.921875 0)"/>
     <use xlink:href="#DejaVuSans-3" transform="translate(2914.453125 0)"/>
     <use xlink:href="#DejaVuSans-5a" transform="translate(2946.234375 0)"/>
     <use xlink:href="#DejaVuSans-52" transform="translate(3028.015625 0)"/>
     <use xlink:href="#DejaVuSans-58" transform="translate(3089.203125 0)"/>
     <use xlink:href="#DejaVuSans-4f" transform="translate(3152.578125 0)"/>
     <use xlink:href="#DejaVuSans-47" transform="translate(3180.359375 0)"/>
     <use xlink:href="#DejaVuSans-3" transform="translate(3243.84375 0)"/>
     <use xlink:href="#DejaVuSans-55" transform="translate(3275.625 0)"/>
     <use xlink:href="#DejaVuSans-58" transform="translate(3316.734375 0)"/>
     <use xlink:href="#DejaVuSans-51" transform="translate(3380.109375 0)"/>
     <use xlink:href="#DejaVuSans-3" transform="translate(3443.484375 0)"/>
     <use xlink:href="#DejaVuSans-52" transform="translate(3475.265625 0)"/>
     <use xlink:href="#DejaVuSans-51" transform="translate(3536.453125 0)"/>
     <use xlink:href="#DejaVuSans-3" transform="translate(3599.828125 0)"/>
     <use xlink:href="#DejaVuSans-46" transform="translate(3631.609375 0)"/>
     <use xlink:href="#DejaVuSans-52" transform="translate(3686.59375 0)"/>
     <use xlink:href="#DejaVuSans-55" transform="translate(3747.78125 0)"/>
     <use xlink:href="#DejaVuSans-55" transform="translate(3787.140625 0)"/>
     <use xlink:href="#DejaVuSans-58" transform="translate(3828.25 0)"/>
     <use xlink:href="#DejaVuSans-53" transform="translate(3891.625 0)"/>
     <use xlink:href="#DejaVuSans-57" transform="translate(3955.109375 0)"/>
     <use xlink:href="#DejaVuSans-3" transform="translate(3994.3125 0)"/>
     <use xlink:href="#DejaVuSans-53" transform="translate(4026.09375 0)"/>
     <use xlink:href="#DejaVuSans-55" transform="translate(4089.578125 0)"/>
     <use xlink:href="#DejaVuSans-4c" transform="translate(4130.6875 0)"/>
     <use xlink:href="#DejaVuSans-46" transform="translate(4158.46875 0)"/>
     <use xlink:href="#DejaVuSans-48" transform="translate(4213.453125 0)"/>
     <use xlink:href="#DejaVuSans-56" transform="translate(4274.984375 0)"/>
    </g>
   </g>
   <g id="text_8">
    <!--    (MW) -->
    <g style="fill: #333333" transform="translate(14.037891 80.943955) rotate(-90) scale(0.09 -0.09)">
     <defs>
      <path id="DejaVuSans-30" d="M 628 4666 
L 1569 4666 
L 2759 1491 
L 3956 4666 
L 4897 4666 
L 4897 0 
L 4281 0 
L 4281 4097 
L 3078 897 
L 2444 897 
L 1241 4097 
L 1241 0 
L 628 0 
L 628 4666 
z
" transform="scale(0.015625)"/>
      <path id="DejaVuSans-3a" d="M 213 4666 
L 850 4666 
L 1831 722 
L 2809 4666 
L 3519 4666 
L 4500 722 
L 5478 4666 
L 6119 4666 
L 4947 0 
L 4153 0 
L 3169 4050 
L 2175 0 
L 1381 0 
L 213 4666 
z
" transform="scale(0.015625)"/>
     </defs>
     <use xlink:href="#DejaVuSans-3"/>
     <use xlink:href="#DejaVuSans-3" transform="translate(31.78125 0)"/>
     <use xlink:href="#DejaVuSans-3" transform="translate(63.5625 0)"/>
     <use xlink:href="#DejaVuSans-b" transform="translate(95.34375 0)"/>
     <use xlink:href="#DejaVuSans-30" transform="translate(134.359375 0)"/>
     <use xlink:href="#DejaVuSans-3a" transform="translate(220.640625 0)"/>
     <use xlink:href="#DejaVuSans-c" transform="translate(319.515625 0)"/>
    </g>
   </g>
   <g id="text_9">
    <!-- ■ charge -->
    <g style="fill: #e76f51" transform="translate(14.038594 123.269268) rotate(-90) scale(0.09 -0.09)">
     <defs>
      <path id="DejaVuSans-e77" d="M 581 -788 
L 581 4113 
L 5466 4113 
L 5466 -788 
L 581 -788 
z
" transform="scale(0.015625)"/>
      <path id="DejaVuSans-4a" d="M 2906 1791 
Q 2906 2416 2648 2759 
Q 2391 3103 1925 3103 
Q 1463 3103 1205 2759 
Q 947 2416 947 1791 
Q 947 1169 1205 825 
Q 1463 481 1925 481 
Q 2391 481 2648 825 
Q 2906 1169 2906 1791 
z
M 3481 434 
Q 3481 -459 3084 -895 
Q 2688 -1331 1869 -1331 
Q 1566 -1331 1297 -1286 
Q 1028 -1241 775 -1147 
L 775 -588 
Q 1028 -725 1275 -790 
Q 1522 -856 1778 -856 
Q 2344 -856 2625 -561 
Q 2906 -266 2906 331 
L 2906 616 
Q 2728 306 2450 153 
Q 2172 0 1784 0 
Q 1141 0 747 490 
Q 353 981 353 1791 
Q 353 2603 747 3093 
Q 1141 3584 1784 3584 
Q 2172 3584 2450 3431 
Q 2728 3278 2906 2969 
L 2906 3500 
L 3481 3500 
L 3481 434 
z
" transform="scale(0.015625)"/>
     </defs>
     <use xlink:href="#DejaVuSans-e77"/>
     <use xlink:href="#DejaVuSans-3" transform="translate(94.484375 0)"/>
     <use xlink:href="#DejaVuSans-46" transform="translate(126.265625 0)"/>
     <use xlink:href="#DejaVuSans-4b" transform="translate(181.25 0)"/>
     <use xlink:href="#DejaVuSans-44" transform="translate(244.625 0)"/>
     <use xlink:href="#DejaVuSans-55" transform="translate(305.90625 0)"/>
     <use xlink:href="#DejaVuSans-4a" transform="translate(345.265625 0)"/>
     <use xlink:href="#DejaVuSans-48" transform="translate(408.75 0)"/>
    </g>
   </g>
   <g id="text_10">
    <!--     -->
    <g style="fill: #333333" transform="translate(14.037891 132.269971) rotate(-90) scale(0.09 -0.09)">
     <use xlink:href="#DejaVuSans-3"/>
     <use xlink:href="#DejaVuSans-3" transform="translate(31.78125 0)"/>
     <use xlink:href="#DejaVuSans-3" transform="translate(63.5625 0)"/>
    </g>
   </g>
   <g id="text_11">
    <!-- ■ discharge -->
    <g style="fill: #2a9d8f" transform="translate(14.038594 187.497627) rotate(-90) scale(0.09 -0.09)">
     <use xlink:href="#DejaVuSans-e77"/>
     <use xlink:href="#DejaVuSans-3" transform="translate(94.484375 0)"/>
     <use xlink:href="#DejaVuSans-47" transform="translate(126.265625 0)"/>
     <use xlink:href="#DejaVuSans-4c" transform="translate(189.75 0)"/>
     <use xlink:href="#DejaVuSans-56" transform="translate(217.53125 0)"/>
     <use xlink:href="#DejaVuSans-46" transform="translate(269.625 0)"/>
     <use xlink:href="#DejaVuSans-4b" transform="translate(324.609375 0)"/>
     <use xlink:href="#DejaVuSans-44" transform="translate(387.984375 0)"/>
     <use xlink:href="#DejaVuSans-55" transform="translate(449.265625 0)"/>
     <use xlink:href="#DejaVuSans-4a" transform="translate(488.625 0)"/>
     <use xlink:href="#DejaVuSans-48" transform="translate(552.109375 0)"/>
    </g>
   </g>
   <g id="text_12">
    <!-- net grid power    -->
    <g style="fill: #333333" transform="translate(14.038594 262.014814) rotate(-90) scale(0.09 -0.09)">
     <use xlink:href="#DejaVuSans-51"/>
     <use xlink:href="#DejaVuSans-48" transform="translate(63.375 0)"/>
     <use xlink:href="#DejaVuSans-57" transform="translate(124.90625 0)"/>
     <use xlink:href="#DejaVuSans-3" transform="translate(164.109375 0)"/>
     <use xlink:href="#DejaVuSans-4a" transform="translate(195.890625 0)"/>
     <use xlink:href="#DejaVuSans-55" transform="translate(259.375 0)"/>
     <use xlink:href="#DejaVuSans-4c" transform="translate(300.484375 0)"/>
     <use xlink:href="#DejaVuSans-47" transform="translate(328.265625 0)"/>
     <use xlink:href="#DejaVuSans-3" transform="translate(391.75 0)"/>
     <use xlink:href="#DejaVuSans-53" transform="translate(423.53125 0)"/>
     <use xlink:href="#DejaVuSans-52" transform="translate(487.015625 0)"/>
     <use xlink:href="#DejaVuSans-5a" transform="translate(548.203125 0)"/>
     <use xlink:href="#DejaVuSans-48" transform="translate(629.984375 0)"/>
     <use xlink:href="#DejaVuSans-55" transform="translate(691.515625 0)"/>
     <use xlink:href="#DejaVuSans-3" transform="translate(732.625 0)"/>
     <use xlink:href="#DejaVuSans-3" transform="translate(764.40625 0)"/>
     <use xlink:href="#DejaVuSans-3" transform="translate(796.1875 0)"/>
    </g>
   </g>
  </g>
  <g id="axes_2">
   <g id="patch_32">
    <path d="M 67.383766 467.277656 
L 669.221422 467.277656 
L 669.221422 288.155684 
L 67.383766 288.155684 
z
" style="fill: #ffffff"/>
   </g>
   <g id="patch_33">
    <path d="M 94.740023 375.629001 
L 113.130784 375.629001 
L 113.130784 375.629001 
L 94.740023 375.629001 
z
" clip-path="url(#p9dd1f177fb)" style="fill: #2a9d8f; opacity: 0.85"/>
   </g>
   <g id="patch_34">
    <path d="M 117.728474 375.629001 
L 136.119235 375.629001 
L 136.119235 375.629001 
L 117.728474 375.629001 
z
" clip-path="url(#p9dd1f177fb)" style="fill: #2a9d8f; opacity: 0.85"/>
   </g>
   <g id="patch_35">
    <path d="M 140.716925 375.629001 
L 159.107686 375.629001 
L 159.107686 459.135748 
L 140.716925 459.135748 
z
" clip-path="url(#p9dd1f177fb)" style="fill: #e76f51; opacity: 0.85"/>
   </g>
   <g id="patch_36">
    <path d="M 163.705377 375.629001 
L 182.096138 375.629001 
L 182.096138 304.230732 
L 163.705377 304.230732 
z
" clip-path="url(#p9dd1f177fb)" style="fill: #2a9d8f; opacity: 0.85"/>
   </g>
   <g id="patch_37">
    <path d="M 186.693828 375.629001 
L 205.084589 375.629001 
L 205.084589 375.629001 
L 186.693828 375.629001 
z
" clip-path="url(#p9dd1f177fb)" style="fill: #2a9d8f; opacity: 0.85"/>
   </g>
   <g id="patch_38">
    <path d="M 209.682279 375.629001 
L 228.073041 375.629001 
L 228.073041 459.135748 
L 209.682279 459.135748 
z
" clip-path="url(#p9dd1f177fb)" style="fill: #e76f51; opacity: 0.85"/>
   </g>
   <g id="patch_39">
    <path d="M 232.670731 375.629001 
L 251.061492 375.629001 
L 251.061492 375.629001 
L 232.670731 375.629001 
z
" clip-path="url(#p9dd1f177fb)" style="fill: #2a9d8f; opacity: 0.85"/>
   </g>
   <g id="patch_40">
    <path d="M 255.659182 375.629001 
L 274.049943 375.629001 
L 274.049943 375.629001 
L 255.659182 375.629001 
z
" clip-path="url(#p9dd1f177fb)" style="fill: #2a9d8f; opacity: 0.85"/>
   </g>
   <g id="patch_41">
    <path d="M 278.647633 375.629001 
L 297.038395 375.629001 
L 297.038395 375.629001 
L 278.647633 375.629001 
z
" clip-path="url(#p9dd1f177fb)" style="fill: #2a9d8f; opacity: 0.85"/>
   </g>
   <g id="patch_42">
    <path d="M 301.636085 375.629001 
L 320.026846 375.629001 
L 320.026846 375.629001 
L 301.636085 375.629001 
z
" clip-path="url(#p9dd1f177fb)" style="fill: #2a9d8f; opacity: 0.85"/>
   </g>
   <g id="patch_43">
    <path d="M 324.624536 375.629001 
L 343.015297 375.629001 
L 343.015297 296.297591 
L 324.624536 296.297591 
z
" clip-path="url(#p9dd1f177fb)" style="fill: #2a9d8f; opacity: 0.85"/>
   </g>
   <g id="patch_44">
    <path d="M 347.612988 375.629001 
L 366.003749 375.629001 
L 366.003749 375.629001 
L 347.612988 375.629001 
z
" clip-path="url(#p9dd1f177fb)" style="fill: #2a9d8f; opacity: 0.85"/>
   </g>
   <g id="patch_45">
    <path d="M 370.601439 375.629001 
L 388.9922 375.629001 
L 388.9922 380.024093 
L 370.601439 380.024093 
z
" clip-path="url(#p9dd1f177fb)" style="fill: #e76f51; opacity: 0.85"/>
   </g>
   <g id="patch_46">
    <path d="M 393.58989 375.629001 
L 411.980651 375.629001 
L 411.980651 459.135748 
L 393.58989 459.135748 
z
" clip-path="url(#p9dd1f177fb)" style="fill: #e76f51; opacity: 0.85"/>
   </g>
   <g id="patch_47">
    <path d="M 416.578342 375.629001 
L 434.969103 375.629001 
L 434.969103 375.629001 
L 416.578342 375.629001 
z
" clip-path="url(#p9dd1f177fb)" style="fill: #2a9d8f; opacity: 0.85"/>
   </g>
   <g id="patch_48">
    <path d="M 439.566793 375.629001 
L 457.957554 375.629001 
L 457.957554 375.629001 
L 439.566793 375.629001 
z
" clip-path="url(#p9dd1f177fb)" style="fill: #2a9d8f; opacity: 0.85"/>
   </g>
   <g id="patch_49">
    <path d="M 462.555244 375.629001 
L 480.946005 375.629001 
L 480.946005 375.629001 
L 462.555244 375.629001 
z
" clip-path="url(#p9dd1f177fb)" style="fill: #2a9d8f; opacity: 0.85"/>
   </g>
   <g id="patch_50">
    <path d="M 485.543696 375.629001 
L 503.934457 375.629001 
L 503.934457 375.629001 
L 485.543696 375.629001 
z
" clip-path="url(#p9dd1f177fb)" style="fill: #2a9d8f; opacity: 0.85"/>
   </g>
   <g id="patch_51">
    <path d="M 508.532147 375.629001 
L 526.922908 375.629001 
L 526.922908 375.629001 
L 508.532147 375.629001 
z
" clip-path="url(#p9dd1f177fb)" style="fill: #2a9d8f; opacity: 0.85"/>
   </g>
   <g id="patch_52">
    <path d="M 531.520598 375.629001 
L 549.911359 375.629001 
L 549.911359 375.629001 
L 531.520598 375.629001 
z
" clip-path="url(#p9dd1f177fb)" style="fill: #2a9d8f; opacity: 0.85"/>
   </g>
   <g id="patch_53">
    <path d="M 554.50905 375.629001 
L 572.899811 375.629001 
L 572.899811 296.297591 
L 554.50905 296.297591 
z
" clip-path="url(#p9dd1f177fb)" style="fill: #2a9d8f; opacity: 0.85"/>
   </g>
   <g id="patch_54">
    <path d="M 577.497501 375.629001 
L 595.888262 375.629001 
L 595.888262 375.629001 
L 577.497501 375.629001 
z
" clip-path="url(#p9dd1f177fb)" style="fill: #2a9d8f; opacity: 0.85"/>
   </g>
   <g id="patch_55">
    <path d="M 600.485952 375.629001 
L 618.876713 375.629001 
L 618.876713 375.629001 
L 600.485952 375.629001 
z
" clip-path="url(#p9dd1f177fb)" style="fill: #2a9d8f; opacity: 0.85"/>
   </g>
   <g id="patch_56">
    <path d="M 623.474404 375.629001 
L 641.865165 375.629001 
L 641.865165 375.629001 
L 623.474404 375.629001 
z
" clip-path="url(#p9dd1f177fb)" style="fill: #2a9d8f; opacity: 0.85"/>
   </g>
   <g id="matplotlib.axis_3">
    <g id="xtick_13">
     <g id="line2d_19">
      <g>
       <use xlink:href="#mc2c05bdd22" x="103.935403" y="467.277656" style="stroke: #000000; stroke-width: 0.8"/>
      </g>
     </g>
     <g id="text_13">
      <!-- 0 -->
      <g transform="translate(100.754153 481.875312) scale(0.1 -0.1)">
       <use xlink:href="#DejaVuSans-13"/>
      </g>
     </g>
    </g>
    <g id="xtick_14">
     <g id="line2d_20">
      <g>
       <use xlink:href="#mc2c05bdd22" x="149.912306" y="467.277656" style="stroke: #000000; stroke-width: 0.8"/>
      </g>
     </g>
     <g id="text_14">
      <!-- 2 -->
      <g transform="translate(146.731056 481.875312) scale(0.1 -0.1)">
       <defs>
        <path id="DejaVuSans-15" d="M 1228 531 
L 3431 531 
L 3431 0 
L 469 0 
L 469 531 
Q 828 903 1448 1529 
Q 2069 2156 2228 2338 
Q 2531 2678 2651 2914 
Q 2772 3150 2772 3378 
Q 2772 3750 2511 3984 
Q 2250 4219 1831 4219 
Q 1534 4219 1204 4116 
Q 875 4013 500 3803 
L 500 4441 
Q 881 4594 1212 4672 
Q 1544 4750 1819 4750 
Q 2544 4750 2975 4387 
Q 3406 4025 3406 3419 
Q 3406 3131 3298 2873 
Q 3191 2616 2906 2266 
Q 2828 2175 2409 1742 
Q 1991 1309 1228 531 
z
" transform="scale(0.015625)"/>
       </defs>
       <use xlink:href="#DejaVuSans-15"/>
      </g>
     </g>
    </g>
    <g id="xtick_15">
     <g id="line2d_21">
      <g>
       <use xlink:href="#mc2c05bdd22" x="195.889209" y="467.277656" style="stroke: #000000; stroke-width: 0.8"/>
      </g>
     </g>
     <g id="text_15">
      <!-- 4 -->
      <g transform="translate(192.707959 481.875312) scale(0.1 -0.1)">
       <defs>
        <path id="DejaVuSans-17" d="M 2419 4116 
L 825 1625 
L 2419 1625 
L 2419 4116 
z
M 2253 4666 
L 3047 4666 
L 3047 1625 
L 3713 1625 
L 3713 1100 
L 3047 1100 
L 3047 0 
L 2419 0 
L 2419 1100 
L 313 1100 
L 313 1709 
L 2253 4666 
z
" transform="scale(0.015625)"/>
       </defs>
       <use xlink:href="#DejaVuSans-17"/>
      </g>
     </g>
    </g>
    <g id="xtick_16">
     <g id="line2d_22">
      <g>
       <use xlink:href="#mc2c05bdd22" x="241.866111" y="467.277656" style="stroke: #000000; stroke-width: 0.8"/>
      </g>
     </g>
     <g id="text_16">
      <!-- 6 -->
      <g transform="translate(238.684861 481.875312) scale(0.1 -0.1)">
       <defs>
        <path id="DejaVuSans-19" d="M 2113 2584 
Q 1688 2584 1439 2293 
Q 1191 2003 1191 1497 
Q 1191 994 1439 701 
Q 1688 409 2113 409 
Q 2538 409 2786 701 
Q 3034 994 3034 1497 
Q 3034 2003 2786 2293 
Q 2538 2584 2113 2584 
z
M 3366 4563 
L 3366 3988 
Q 3128 4100 2886 4159 
Q 2644 4219 2406 4219 
Q 1781 4219 1451 3797 
Q 1122 3375 1075 2522 
Q 1259 2794 1537 2939 
Q 1816 3084 2150 3084 
Q 2853 3084 3261 2657 
Q 3669 2231 3669 1497 
Q 3669 778 3244 343 
Q 2819 -91 2113 -91 
Q 1303 -91 875 529 
Q 447 1150 447 2328 
Q 447 3434 972 4092 
Q 1497 4750 2381 4750 
Q 2619 4750 2861 4703 
Q 3103 4656 3366 4563 
z
" transform="scale(0.015625)"/>
       </defs>
       <use xlink:href="#DejaVuSans-19"/>
      </g>
     </g>
    </g>
    <g id="xtick_17">
     <g id="line2d_23">
      <g>
       <use xlink:href="#mc2c05bdd22" x="287.843014" y="467.277656" style="stroke: #000000; stroke-width: 0.8"/>
      </g>
     </g>
     <g id="text_17">
      <!-- 8 -->
      <g transform="translate(284.661764 481.875312) scale(0.1 -0.1)">
       <defs>
        <path id="DejaVuSans-1b" d="M 2034 2216 
Q 1584 2216 1326 1975 
Q 1069 1734 1069 1313 
Q 1069 891 1326 650 
Q 1584 409 2034 409 
Q 2484 409 2743 651 
Q 3003 894 3003 1313 
Q 3003 1734 2745 1975 
Q 2488 2216 2034 2216 
z
M 1403 2484 
Q 997 2584 770 2862 
Q 544 3141 544 3541 
Q 544 4100 942 4425 
Q 1341 4750 2034 4750 
Q 2731 4750 3128 4425 
Q 3525 4100 3525 3541 
Q 3525 3141 3298 2862 
Q 3072 2584 2669 2484 
Q 3125 2378 3379 2068 
Q 3634 1759 3634 1313 
Q 3634 634 3220 271 
Q 2806 -91 2034 -91 
Q 1263 -91 848 271 
Q 434 634 434 1313 
Q 434 1759 690 2068 
Q 947 2378 1403 2484 
z
M 1172 3481 
Q 1172 3119 1398 2916 
Q 1625 2713 2034 2713 
Q 2441 2713 2670 2916 
Q 2900 3119 2900 3481 
Q 2900 3844 2670 4047 
Q 2441 4250 2034 4250 
Q 1625 4250 1398 4047 
Q 1172 3844 1172 3481 
z
" transform="scale(0.015625)"/>
       </defs>
       <use xlink:href="#DejaVuSans-1b"/>
      </g>
     </g>
    </g>
    <g id="xtick_18">
     <g id="line2d_24">
      <g>
       <use xlink:href="#mc2c05bdd22" x="333.819917" y="467.277656" style="stroke: #000000; stroke-width: 0.8"/>
      </g>
     </g>
     <g id="text_18">
      <!-- 10 -->
      <g transform="translate(327.457417 481.875312) scale(0.1 -0.1)">
       <use xlink:href="#DejaVuSans-14"/>
       <use xlink:href="#DejaVuSans-13" transform="translate(63.625 0)"/>
      </g>
     </g>
    </g>
    <g id="xtick_19">
     <g id="line2d_25">
      <g>
       <use xlink:href="#mc2c05bdd22" x="379.796819" y="467.277656" style="stroke: #000000; stroke-width: 0.8"/>
      </g>
     </g>
     <g id="text_19">
      <!-- 12 -->
      <g transform="translate(373.434319 481.875312) scale(0.1 -0.1)">
       <use xlink:href="#DejaVuSans-14"/>
       <use xlink:href="#DejaVuSans-15" transform="translate(63.625 0)"/>
      </g>
     </g>
    </g>
    <g id="xtick_20">
     <g id="line2d_26">
      <g>
       <use xlink:href="#mc2c05bdd22" x="425.773722" y="467.277656" style="stroke: #000000; stroke-width: 0.8"/>
      </g>
     </g>
     <g id="text_20">
      <!-- 14 -->
      <g transform="translate(419.411222 481.875312) scale(0.1 -0.1)">
       <use xlink:href="#DejaVuSans-14"/>
       <use xlink:href="#DejaVuSans-17" transform="translate(63.625 0)"/>
      </g>
     </g>
    </g>
    <g id="xtick_21">
     <g id="line2d_27">
      <g>
       <use xlink:href="#mc2c05bdd22" x="471.750625" y="467.277656" style="stroke: #000000; stroke-width: 0.8"/>
      </g>
     </g>
     <g id="text_21">
      <!-- 16 -->
      <g transform="translate(465.388125 481.875312) scale(0.1 -0.1)">
       <use xlink:href="#DejaVuSans-14"/>
       <use xlink:href="#DejaVuSans-19" transform="translate(63.625 0)"/>
      </g>
     </g>
    </g>
    <g id="xtick_22">
     <g id="line2d_28">
      <g>
       <use xlink:href="#mc2c05bdd22" x="517.727528" y="467.277656" style="stroke: #000000; stroke-width: 0.8"/>
      </g>
     </g>
     <g id="text_22">
      <!-- 18 -->
      <g transform="translate(511.365028 481.875312) scale(0.1 -0.1)">
       <use xlink:href="#DejaVuSans-14"/>
       <use xlink:href="#DejaVuSans-1b" transform="translate(63.625 0)"/>
      </g>
     </g>
    </g>
    <g id="xtick_23">
     <g id="line2d_29">
      <g>
       <use xlink:href="#mc2c05bdd22" x="563.70443" y="467.277656" style="stroke: #000000; stroke-width: 0.8"/>
      </g>
     </g>
     <g id="text_23">
      <!-- 20 -->
      <g transform="translate(557.34193 481.875312) scale(0.1 -0.1)">
       <use xlink:href="#DejaVuSans-15"/>
       <use xlink:href="#DejaVuSans-13" transform="translate(63.625 0)"/>
      </g>
     </g>
    </g>
    <g id="xtick_24">
     <g id="line2d_30">
      <g>
       <use xlink:href="#mc2c05bdd22" x="609.681333" y="467.277656" style="stroke: #000000; stroke-width: 0.8"/>
      </g>
     </g>
     <g id="text_24">
      <!-- 22 -->
      <g transform="translate(603.318833 481.875312) scale(0.1 -0.1)">
       <use xlink:href="#DejaVuSans-15"/>
       <use xlink:href="#DejaVuSans-15" transform="translate(63.625 0)"/>
      </g>
     </g>
    </g>
    <g id="text_25">
     <!-- hour of day (UTC) -->
     <g transform="translate(324.252594 495.876094) scale(0.1 -0.1)">
      <defs>
       <path id="DejaVuSans-5c" d="M 2059 -325 
Q 1816 -950 1584 -1140 
Q 1353 -1331 966 -1331 
L 506 -1331 
L 506 -850 
L 844 -850 
Q 1081 -850 1212 -737 
Q 1344 -625 1503 -206 
L 1606 56 
L 191 3500 
L 800 3500 
L 1894 763 
L 2988 3500 
L 3597 3500 
L 2059 -325 
z
" transform="scale(0.015625)"/>
       <path id="DejaVuSans-38" d="M 556 4666 
L 1191 4666 
L 1191 1831 
Q 1191 1081 1462 751 
Q 1734 422 2344 422 
Q 2950 422 3222 751 
Q 3494 1081 3494 1831 
L 3494 4666 
L 4128 4666 
L 4128 1753 
Q 4128 841 3676 375 
Q 3225 -91 2344 -91 
Q 1459 -91 1007 375 
Q 556 841 556 1753 
L 556 4666 
z
" transform="scale(0.015625)"/>
      </defs>
      <use xlink:href="#DejaVuSans-4b"/>
      <use xlink:href="#DejaVuSans-52" transform="translate(63.375 0)"/>
      <use xlink:href="#DejaVuSans-58" transform="translate(124.5625 0)"/>
      <use xlink:href="#DejaVuSans-55" transform="translate(187.9375 0)"/>
      <use xlink:href="#DejaVuSans-3" transform="translate(229.046875 0)"/>
      <use xlink:href="#DejaVuSans-52" transform="translate(260.828125 0)"/>
      <use xlink:href="#DejaVuSans-49" transform="translate(322.015625 0)"/>
      <use xlink:href="#DejaVuSans-3" transform="translate(357.21875 0)"/>
      <use xlink:href="#DejaVuSans-47" transform="translate(389 0)"/>
      <use xlink:href="#DejaVuSans-44" transform="translate(452.484375 0)"/>
      <use xlink:href="#DejaVuSans-5c" transform="translate(513.765625 0)"/>
      <use xlink:href="#DejaVuSans-3" transform="translate(572.953125 0)"/>
      <use xlink:href="#DejaVuSans-b" transform="translate(604.734375 0)"/>
      <use xlink:href="#DejaVuSans-38" transform="translate(643.75 0)"/>
      <use xlink:href="#DejaVuSans-37" transform="translate(716.9375 0)"/>
      <use xlink:href="#DejaVuSans-26" transform="translate(772.15625 0)"/>
      <use xlink:href="#DejaVuSans-c" transform="translate(841.984375 0)"/>
     </g>
    </g>
   </g>
   <g id="matplotlib.axis_4">
    <g id="ytick_6">
     <g id="line2d_31">
      <g>
       <use xlink:href="#m4fac48f217" x="67.383766" y="459.135748" style="stroke: #000000; stroke-width: 0.8"/>
      </g>
     </g>
     <g id="text_26">
      <!-- −1.0 -->
      <g transform="translate(36.100953 462.934577) scale(0.1 -0.1)">
       <use xlink:href="#DejaVuSans-c9c"/>
       <use xlink:href="#DejaVuSans-14" transform="translate(83.796875 0)"/>
       <use xlink:href="#DejaVuSans-11" transform="translate(147.421875 0)"/>
       <use xlink:href="#DejaVuSans-13" transform="translate(179.203125 0)"/>
      </g>
     </g>
    </g>
    <g id="ytick_7">
     <g id="line2d_32">
      <g>
       <use xlink:href="#m4fac48f217" x="67.383766" y="417.382375" style="stroke: #000000; stroke-width: 0.8"/>
      </g>
     </g>
     <g id="text_27">
      <!-- −0.5 -->
      <g transform="translate(36.100953 421.181203) scale(0.1 -0.1)">
       <use xlink:href="#DejaVuSans-c9c"/>
       <use xlink:href="#DejaVuSans-13" transform="translate(83.796875 0)"/>
       <use xlink:href="#DejaVuSans-11" transform="translate(147.421875 0)"/>
       <use xlink:href="#DejaVuSans-18" transform="translate(179.203125 0)"/>
      </g>
     </g>
    </g>
    <g id="ytick_8">
     <g id="line2d_33">
      <g>
       <use xlink:href="#m4fac48f217" x="67.383766" y="375.629001" style="stroke: #000000; stroke-width: 0.8"/>
      </g>
     </g>
     <g id="text_28">
      <!-- 0.0 -->
      <g transform="translate(44.480641 379.427829) scale(0.1 -0.1)">
       <use xlink:href="#DejaVuSans-13"/>
       <use xlink:href="#DejaVuSans-11" transform="translate(63.625 0)"/>
       <use xlink:href="#DejaVuSans-13" transform="translate(95.40625 0)"/>
      </g>
     </g>
    </g>
    <g id="ytick_9">
     <g id="line2d_34">
      <g>
       <use xlink:href="#m4fac48f217" x="67.383766" y="333.875628" style="stroke: #000000; stroke-width: 0.8"/>
      </g>
     </g>
     <g id="text_29">
      <!-- 0.5 -->
      <g transform="translate(44.480641 337.674456) scale(0.1 -0.1)">
       <use xlink:href="#DejaVuSans-13"/>
       <use xlink:href="#DejaVuSans-11" transform="translate(63.625 0)"/>
       <use xlink:href="#DejaVuSans-18" transform="translate(95.40625 0)"/>
      </g>
     </g>
    </g>
    <g id="ytick_10">
     <g id="line2d_35">
      <g>
       <use xlink:href="#m4fac48f217" x="67.383766" y="292.122254" style="stroke: #000000; stroke-width: 0.8"/>
      </g>
     </g>
     <g id="text_30">
      <!-- 1.0 -->
      <g transform="translate(44.480641 295.921082) scale(0.1 -0.1)">
       <use xlink:href="#DejaVuSans-14"/>
       <use xlink:href="#DejaVuSans-11" transform="translate(63.625 0)"/>
       <use xlink:href="#DejaVuSans-13" transform="translate(95.40625 0)"/>
      </g>
     </g>
    </g>
   </g>
   <g id="line2d_36">
    <path d="M 67.383766 375.629001 
L 669.221422 375.629001 
" clip-path="url(#p9dd1f177fb)" style="fill: none; stroke: #888888; stroke-width: 0.8; stroke-linecap: square"/>
   </g>
   <g id="patch_57">
    <path d="M 67.383766 467.277656 
L 67.383766 288.155684 
" style="fill: none; stroke: #000000; stroke-width: 0.8; stroke-linejoin: miter; stroke-linecap: square"/>
   </g>
   <g id="patch_58">
    <path d="M 669.221422 467.277656 
L 669.221422 288.155684 
" style="fill: none; stroke: #000000; stroke-width: 0.8; stroke-linejoin: miter; stroke-linecap: square"/>
   </g>
   <g id="patch_59">
    <path d="M 67.383766 467.277656 
L 669.221422 467.277656 
" style="fill: none; stroke: #000000; stroke-width: 0.8; stroke-linejoin: miter; stroke-linecap: square"/>
   </g>
   <g id="patch_60">
    <path d="M 67.383766 288.155684 
L 669.221422 288.155684 
" style="fill: none; stroke: #000000; stroke-width: 0.8; stroke-linejoin: miter; stroke-linecap: square"/>
   </g>
   <g id="text_31">
    <!-- ② Guard fell back to last-known-good: dispatch runs on trustworthy prices -->
    <g transform="translate(67.383766 282.155684) scale(0.1 -0.1)">
     <defs>
      <path id="DejaVuSans-dce" d="M 5263 2331 
Q 5263 1334 4561 635 
Q 3859 -63 2866 -63 
Q 1878 -63 1176 635 
Q 475 1334 475 2331 
Q 475 2950 797 3528 
Q 1119 4106 1695 4415 
Q 2272 4725 2866 4725 
Q 3469 4725 4045 4415 
Q 4622 4106 4942 3531 
Q 5263 2956 5263 2331 
z
M 734 2331 
Q 734 1444 1357 819 
Q 1981 194 2869 194 
Q 3756 194 4379 819 
Q 5003 1444 5003 2331 
Q 5003 2891 4718 3402 
Q 4434 3913 3921 4189 
Q 3409 4466 2869 4466 
Q 2328 4466 1815 4189 
Q 1303 3913 1018 3402 
Q 734 2891 734 2331 
z
M 2581 1288 
L 3944 1288 
L 3944 844 
L 1831 844 
L 1831 1247 
Q 2088 1488 2497 1864 
Q 2906 2241 3009 2347 
Q 3203 2544 3276 2676 
Q 3350 2809 3350 2934 
Q 3350 3131 3201 3253 
Q 3053 3375 2809 3375 
Q 2625 3375 2419 3315 
Q 2213 3256 1853 3075 
L 1853 3609 
Q 2156 3722 2382 3770 
Q 2609 3819 2800 3819 
Q 3309 3819 3617 3583 
Q 3925 3347 3925 2956 
Q 3925 2775 3850 2611 
Q 3775 2447 3581 2228 
Q 3528 2172 3250 1911 
Q 2972 1650 2581 1288 
z
" transform="scale(0.015625)"/>
      <path id="DejaVuSans-2a" d="M 3809 666 
L 3809 1919 
L 2778 1919 
L 2778 2438 
L 4434 2438 
L 4434 434 
Q 4069 175 3628 42 
Q 3188 -91 2688 -91 
Q 1594 -91 976 548 
Q 359 1188 359 2328 
Q 359 3472 976 4111 
Q 1594 4750 2688 4750 
Q 3144 4750 3555 4637 
Q 3966 4525 4313 4306 
L 4313 3634 
Q 3963 3931 3569 4081 
Q 3175 4231 2741 4231 
Q 1884 4231 1454 3753 
Q 1025 3275 1025 2328 
Q 1025 1384 1454 906 
Q 1884 428 2741 428 
Q 3075 428 3337 486 
Q 3600 544 3809 666 
z
" transform="scale(0.015625)"/>
      <path id="DejaVuSans-45" d="M 3116 1747 
Q 3116 2381 2855 2742 
Q 2594 3103 2138 3103 
Q 1681 3103 1420 2742 
Q 1159 2381 1159 1747 
Q 1159 1113 1420 752 
Q 1681 391 2138 391 
Q 2594 391 2855 752 
Q 3116 1113 3116 1747 
z
M 1159 2969 
Q 1341 3281 1617 3432 
Q 1894 3584 2278 3584 
Q 2916 3584 3314 3078 
Q 3713 2572 3713 1747 
Q 3713 922 3314 415 
Q 2916 -91 2278 -91 
Q 1894 -91 1617 61 
Q 1341 213 1159 525 
L 1159 0 
L 581 0 
L 581 4863 
L 1159 4863 
L 1159 2969 
z
" transform="scale(0.015625)"/>
      <path id="DejaVuSans-10" d="M 313 2009 
L 1997 2009 
L 1997 1497 
L 313 1497 
L 313 2009 
z
" transform="scale(0.015625)"/>
     </defs>
     <use xlink:href="#DejaVuSans-dce"/>
     <use xlink:href="#DejaVuSans-3" transform="translate(89.65625 0)"/>
     <use xlink:href="#DejaVuSans-2a" transform="translate(121.4375 0)"/>
     <use xlink:href="#DejaVuSans-58" transform="translate(198.921875 0)"/>
     <use xlink:href="#DejaVuSans-44" transform="translate(262.296875 0)"/>
     <use xlink:href="#DejaVuSans-55" transform="translate(323.578125 0)"/>
     <use xlink:href="#DejaVuSans-47" transform="translate(362.9375 0)"/>
     <use xlink:href="#DejaVuSans-3" transform="translate(426.421875 0)"/>
     <use xlink:href="#DejaVuSans-49" transform="translate(458.203125 0)"/>
     <use xlink:href="#DejaVuSans-48" transform="translate(493.40625 0)"/>
     <use xlink:href="#DejaVuSans-4f" transform="translate(554.9375 0)"/>
     <use xlink:href="#DejaVuSans-4f" transform="translate(582.71875 0)"/>
     <use xlink:href="#DejaVuSans-3" transform="translate(610.5 0)"/>
     <use xlink:href="#DejaVuSans-45" transform="translate(642.28125 0)"/>
     <use xlink:href="#DejaVuSans-44" transform="translate(705.765625 0)"/>
     <use xlink:href="#DejaVuSans-46" transform="translate(767.046875 0)"/>
     <use xlink:href="#DejaVuSans-4e" transform="translate(822.03125 0)"/>
     <use xlink:href="#DejaVuSans-3" transform="translate(879.9375 0)"/>
     <use xlink:href="#DejaVuSans-57" transform="translate(911.71875 0)"/>
     <use xlink:href="#DejaVuSans-52" transform="translate(950.921875 0)"/>
     <use xlink:href="#DejaVuSans-3" transform="translate(1012.109375 0)"/>
     <use xlink:href="#DejaVuSans-4f" transform="translate(1043.890625 0)"/>
     <use xlink:href="#DejaVuSans-44" transform="translate(1071.671875 0)"/>
     <use xlink:href="#DejaVuSans-56" transform="translate(1132.953125 0)"/>
     <use xlink:href="#DejaVuSans-57" transform="translate(1185.046875 0)"/>
     <use xlink:href="#DejaVuSans-10" transform="translate(1224.25 0)"/>
     <use xlink:href="#DejaVuSans-4e" transform="translate(1260.328125 0)"/>
     <use xlink:href="#DejaVuSans-51" transform="translate(1318.234375 0)"/>
     <use xlink:href="#DejaVuSans-52" transform="translate(1381.609375 0)"/>
     <use xlink:href="#DejaVuSans-5a" transform="translate(1442.796875 0)"/>
     <use xlink:href="#DejaVuSans-51" transform="translate(1524.578125 0)"/>
     <use xlink:href="#DejaVuSans-10" transform="translate(1587.953125 0)"/>
     <use xlink:href="#DejaVuSans-4a" transform="translate(1624.03125 0)"/>
     <use xlink:href="#DejaVuSans-52" transform="translate(1687.515625 0)"/>
     <use xlink:href="#DejaVuSans-52" transform="translate(1748.703125 0)"/>
     <use xlink:href="#DejaVuSans-47" transform="translate(1809.890625 0)"/>
     <use xlink:href="#DejaVuSans-1d" transform="translate(1873.375 0)"/>
     <use xlink:href="#DejaVuSans-3" transform="translate(1907.0625 0)"/>
     <use xlink:href="#DejaVuSans-47" transform="translate(1938.84375 0)"/>
     <use xlink:href="#DejaVuSans-4c" transform="translate(2002.328125 0)"/>
     <use xlink:href="#DejaVuSans-56" transform="translate(2030.109375 0)"/>
     <use xlink:href="#DejaVuSans-53" transform="translate(2082.203125 0)"/>
     <use xlink:href="#DejaVuSans-44" transform="translate(2145.6875 0)"/>
     <use xlink:href="#DejaVuSans-57" transform="translate(2206.96875 0)"/>
     <use xlink:href="#DejaVuSans-46" transform="translate(2246.171875 0)"/>
     <use xlink:href="#DejaVuSans-4b" transform="translate(2301.15625 0)"/>
     <use xlink:href="#DejaVuSans-3" transform="translate(2364.53125 0)"/>
     <use xlink:href="#DejaVuSans-55" transform="translate(2396.3125 0)"/>
     <use xlink:href="#DejaVuSans-58" transform="translate(2437.421875 0)"/>
     <use xlink:href="#DejaVuSans-51" transform="translate(2500.796875 0)"/>
     <use xlink:href="#DejaVuSans-56" transform="translate(2564.171875 0)"/>
     <use xlink:href="#DejaVuSans-3" transform="translate(2616.265625 0)"/>
     <use xlink:href="#DejaVuSans-52" transform="translate(2648.046875 0)"/>
     <use xlink:href="#DejaVuSans-51" transform="translate(2709.234375 0)"/>
     <use xlink:href="#DejaVuSans-3" transform="translate(2772.609375 0)"/>
     <use xlink:href="#DejaVuSans-57" transform="translate(2804.390625 0)"/>
     <use xlink:href="#DejaVuSans-55" transform="translate(2843.59375 0)"/>
     <use xlink:href="#DejaVuSans-58" transform="translate(2884.703125 0)"/>
     <use xlink:href="#DejaVuSans-56" transform="translate(2948.078125 0)"/>
     <use xlink:href="#DejaVuSans-57" transform="translate(3000.171875 0)"/>
     <use xlink:href="#DejaVuSans-5a" transform="translate(3039.375 0)"/>
     <use xlink:href="#DejaVuSans-52" transform="translate(3121.15625 0)"/>
     <use xlink:href="#DejaVuSans-55" transform="translate(3182.34375 0)"/>
     <use xlink:href="#DejaVuSans-57" transform="translate(3223.453125 0)"/>
     <use xlink:href="#DejaVuSans-4b" transform="translate(3262.65625 0)"/>
     <use xlink:href="#DejaVuSans-5c" transform="translate(3326.03125 0)"/>
     <use xlink:href="#DejaVuSans-3" transform="translate(3385.21875 0)"/>
     <use xlink:href="#DejaVuSans-53" transform="translate(3417 0)"/>
     <use xlink:href="#DejaVuSans-55" transform="translate(3480.484375 0)"/>
     <use xlink:href="#DejaVuSans-4c" transform="translate(3521.59375 0)"/>
     <use xlink:href="#DejaVuSans-46" transform="translate(3549.375 0)"/>
     <use xlink:href="#DejaVuSans-48" transform="translate(3604.359375 0)"/>
     <use xlink:href="#DejaVuSans-56" transform="translate(3665.890625 0)"/>
    </g>
   </g>
   <g id="text_32">
    <!--    (MW) -->
    <g style="fill: #333333" transform="translate(14.037891 301.153037) rotate(-90) scale(0.09 -0.09)">
     <use xlink:href="#DejaVuSans-3"/>
     <use xlink:href="#DejaVuSans-3" transform="translate(31.78125 0)"/>
     <use xlink:href="#DejaVuSans-3" transform="translate(63.5625 0)"/>
     <use xlink:href="#DejaVuSans-b" transform="translate(95.34375 0)"/>
     <use xlink:href="#DejaVuSans-30" transform="translate(134.359375 0)"/>
     <use xlink:href="#DejaVuSans-3a" transform="translate(220.640625 0)"/>
     <use xlink:href="#DejaVuSans-c" transform="translate(319.515625 0)"/>
    </g>
   </g>
   <g id="text_33">
    <!-- ■ charge -->
    <g style="fill: #e76f51" transform="translate(14.038594 343.47835) rotate(-90) scale(0.09 -0.09)">
     <use xlink:href="#DejaVuSans-e77"/>
     <use xlink:href="#DejaVuSans-3" transform="translate(94.484375 0)"/>
     <use xlink:href="#DejaVuSans-46" transform="translate(126.265625 0)"/>
     <use xlink:href="#DejaVuSans-4b" transform="translate(181.25 0)"/>
     <use xlink:href="#DejaVuSans-44" transform="translate(244.625 0)"/>
     <use xlink:href="#DejaVuSans-55" transform="translate(305.90625 0)"/>
     <use xlink:href="#DejaVuSans-4a" transform="translate(345.265625 0)"/>
     <use xlink:href="#DejaVuSans-48" transform="translate(408.75 0)"/>
    </g>
   </g>
   <g id="text_34">
    <!--     -->
    <g style="fill: #333333" transform="translate(14.037891 352.479053) rotate(-90) scale(0.09 -0.09)">
     <use xlink:href="#DejaVuSans-3"/>
     <use xlink:href="#DejaVuSans-3" transform="translate(31.78125 0)"/>
     <use xlink:href="#DejaVuSans-3" transform="translate(63.5625 0)"/>
    </g>
   </g>
   <g id="text_35">
    <!-- ■ discharge -->
    <g style="fill: #2a9d8f" transform="translate(14.038594 407.706709) rotate(-90) scale(0.09 -0.09)">
     <use xlink:href="#DejaVuSans-e77"/>
     <use xlink:href="#DejaVuSans-3" transform="translate(94.484375 0)"/>
     <use xlink:href="#DejaVuSans-47" transform="translate(126.265625 0)"/>
     <use xlink:href="#DejaVuSans-4c" transform="translate(189.75 0)"/>
     <use xlink:href="#DejaVuSans-56" transform="translate(217.53125 0)"/>
     <use xlink:href="#DejaVuSans-46" transform="translate(269.625 0)"/>
     <use xlink:href="#DejaVuSans-4b" transform="translate(324.609375 0)"/>
     <use xlink:href="#DejaVuSans-44" transform="translate(387.984375 0)"/>
     <use xlink:href="#DejaVuSans-55" transform="translate(449.265625 0)"/>
     <use xlink:href="#DejaVuSans-4a" transform="translate(488.625 0)"/>
     <use xlink:href="#DejaVuSans-48" transform="translate(552.109375 0)"/>
    </g>
   </g>
   <g id="text_36">
    <!-- net grid power    -->
    <g style="fill: #333333" transform="translate(14.038594 482.223896) rotate(-90) scale(0.09 -0.09)">
     <use xlink:href="#DejaVuSans-51"/>
     <use xlink:href="#DejaVuSans-48" transform="translate(63.375 0)"/>
     <use xlink:href="#DejaVuSans-57" transform="translate(124.90625 0)"/>
     <use xlink:href="#DejaVuSans-3" transform="translate(164.109375 0)"/>
     <use xlink:href="#DejaVuSans-4a" transform="translate(195.890625 0)"/>
     <use xlink:href="#DejaVuSans-55" transform="translate(259.375 0)"/>
     <use xlink:href="#DejaVuSans-4c" transform="translate(300.484375 0)"/>
     <use xlink:href="#DejaVuSans-47" transform="translate(328.265625 0)"/>
     <use xlink:href="#DejaVuSans-3" transform="translate(391.75 0)"/>
     <use xlink:href="#DejaVuSans-53" transform="translate(423.53125 0)"/>
     <use xlink:href="#DejaVuSans-52" transform="translate(487.015625 0)"/>
     <use xlink:href="#DejaVuSans-5a" transform="translate(548.203125 0)"/>
     <use xlink:href="#DejaVuSans-48" transform="translate(629.984375 0)"/>
     <use xlink:href="#DejaVuSans-55" transform="translate(691.515625 0)"/>
     <use xlink:href="#DejaVuSans-3" transform="translate(732.625 0)"/>
     <use xlink:href="#DejaVuSans-3" transform="translate(764.40625 0)"/>
     <use xlink:href="#DejaVuSans-3" transform="translate(796.1875 0)"/>
    </g>
   </g>
  </g>
  <g id="axes_3">
   <g id="matplotlib.axis_5">
    <g id="ytick_11">
     <g id="line2d_37">
      <defs>
       <path id="mea32ee0029" d="M 0 0 
L 3.5 0 
" style="stroke: #000000; stroke-width: 0.8"/>
      </defs>
      <g>
       <use xlink:href="#mea32ee0029" x="669.221422" y="241.759413" style="stroke: #000000; stroke-width: 0.8"/>
      </g>
     </g>
     <g id="text_37">
      <!-- 20 -->
      <g transform="translate(676.221422 245.558241) scale(0.1 -0.1)">
       <use xlink:href="#DejaVuSans-15"/>
       <use xlink:href="#DejaVuSans-13" transform="translate(63.625 0)"/>
      </g>
     </g>
    </g>
    <g id="ytick_12">
     <g id="line2d_38">
      <g>
       <use xlink:href="#mea32ee0029" x="669.221422" y="198.633764" style="stroke: #000000; stroke-width: 0.8"/>
      </g>
     </g>
     <g id="text_38">
      <!-- 40 -->
      <g transform="translate(676.221422 202.432592) scale(0.1 -0.1)">
       <use xlink:href="#DejaVuSans-17"/>
       <use xlink:href="#DejaVuSans-13" transform="translate(63.625 0)"/>
      </g>
     </g>
    </g>
    <g id="ytick_13">
     <g id="line2d_39">
      <g>
       <use xlink:href="#mea32ee0029" x="669.221422" y="155.508116" style="stroke: #000000; stroke-width: 0.8"/>
      </g>
     </g>
     <g id="text_39">
      <!-- 60 -->
      <g transform="translate(676.221422 159.306944) scale(0.1 -0.1)">
       <use xlink:href="#DejaVuSans-19"/>
       <use xlink:href="#DejaVuSans-13" transform="translate(63.625 0)"/>
      </g>
     </g>
    </g>
    <g id="ytick_14">
     <g id="line2d_40">
      <g>
       <use xlink:href="#mea32ee0029" x="669.221422" y="112.382468" style="stroke: #000000; stroke-width: 0.8"/>
      </g>
     </g>
     <g id="text_40">
      <!-- 80 -->
      <g transform="translate(676.221422 116.181296) scale(0.1 -0.1)">
       <use xlink:href="#DejaVuSans-1b"/>
       <use xlink:href="#DejaVuSans-13" transform="translate(63.625 0)"/>
      </g>
     </g>
    </g>
    <g id="ytick_15">
     <g id="line2d_41">
      <g>
       <use xlink:href="#mea32ee0029" x="669.221422" y="69.256819" style="stroke: #000000; stroke-width: 0.8"/>
      </g>
     </g>
     <g id="text_41">
      <!-- 100 -->
      <g transform="translate(676.221422 73.055647) scale(0.1 -0.1)">
       <use xlink:href="#DejaVuSans-14"/>
       <use xlink:href="#DejaVuSans-13" transform="translate(63.625 0)"/>
       <use xlink:href="#DejaVuSans-13" transform="translate(127.25 0)"/>
      </g>
     </g>
    </g>
    <g id="text_42">
     <!-- price (€/MWh) -->
     <g style="fill: #999999" transform="translate(706.907359 192.734932) rotate(-90) scale(0.1 -0.1)">
      <defs>
       <path id="DejaVuSans-b83" d="M 3647 4306 
L 3647 3641 
Q 3363 3969 3098 4109 
Q 2834 4250 2516 4250 
Q 2025 4250 1709 3937 
Q 1394 3625 1294 3041 
L 3097 3041 
L 2925 2656 
L 1244 2656 
Q 1238 2581 1236 2509 
Q 1234 2438 1234 2328 
Q 1234 2228 1236 2156 
Q 1238 2084 1244 2009 
L 2638 2009 
L 2463 1625 
L 1294 1625 
Q 1394 1041 1709 725 
Q 2025 409 2516 409 
Q 2834 409 3098 550 
Q 3363 691 3647 1019 
L 3647 359 
Q 3369 134 3080 21 
Q 2791 -91 2491 -91 
Q 1750 -91 1267 362 
Q 784 816 659 1625 
L 0 1625 
L 172 2009 
L 606 2009 
Q 606 2081 604 2154 
Q 603 2228 603 2328 
Q 603 2438 604 2511 
Q 606 2584 606 2656 
L 0 2656 
L 172 3041 
L 659 3041 
Q 784 3844 1268 4297 
Q 1753 4750 2491 4750 
Q 2797 4750 3086 4639 
Q 3375 4528 3647 4306 
z
" transform="scale(0.015625)"/>
       <path id="DejaVuSans-12" d="M 1625 4666 
L 2156 4666 
L 531 -594 
L 0 -594 
L 1625 4666 
z
" transform="scale(0.015625)"/>
      </defs>
      <use xlink:href="#DejaVuSans-53"/>
      <use xlink:href="#DejaVuSans-55" transform="translate(63.484375 0)"/>
      <use xlink:href="#DejaVuSans-4c" transform="translate(104.59375 0)"/>
      <use xlink:href="#DejaVuSans-46" transform="translate(132.375 0)"/>
      <use xlink:href="#DejaVuSans-48" transform="translate(187.359375 0)"/>
      <use xlink:href="#DejaVuSans-3" transform="translate(248.890625 0)"/>
      <use xlink:href="#DejaVuSans-b" transform="translate(280.671875 0)"/>
      <use xlink:href="#DejaVuSans-b83" transform="translate(319.6875 0)"/>
      <use xlink:href="#DejaVuSans-12" transform="translate(383.3125 0)"/>
      <use xlink:href="#DejaVuSans-30" transform="translate(417 0)"/>
      <use xlink:href="#DejaVuSans-3a" transform="translate(503.28125 0)"/>
      <use xlink:href="#DejaVuSans-4b" transform="translate(602.15625 0)"/>
      <use xlink:href="#DejaVuSans-c" transform="translate(665.53125 0)"/>
     </g>
    </g>
   </g>
   <g id="line2d_42">
    <path d="M 103.935403 215.908619 
L 126.923855 219.275138 
L 149.912306 238.926666 
L 172.900757 204.502266 
L 195.889209 210.156397 
L 218.87766 218.519225 
L 241.866111 200.413099 
L 264.854563 191.724109 
L 287.843014 185.988686 
L 310.831465 164.155117 
L 333.819917 127.325505 
L 356.808368 127.325505 
L 379.796819 127.325505 
L 402.785271 127.325505 
L 425.773722 127.325505 
L 448.762173 127.325505 
L 471.750625 127.325505 
L 494.739076 127.325505 
L 517.727528 127.325505 
L 540.715979 79.077722 
L 563.70443 76.088509 
L 586.692882 96.421943 
L 609.681333 138.858159 
L 632.669784 194.242372 
" clip-path="url(#p249684db89)" style="fill: none; stroke: #999999; stroke-width: 2; stroke-linecap: square"/>
   </g>
   <g id="patch_61">
    <path d="M 67.383766 247.068574 
L 67.383766 67.946602 
" style="fill: none; stroke: #000000; stroke-width: 0.8; stroke-linejoin: miter; stroke-linecap: square"/>
   </g>
   <g id="patch_62">
    <path d="M 669.221422 247.068574 
L 669.221422 67.946602 
" style="fill: none; stroke: #000000; stroke-width: 0.8; stroke-linejoin: miter; stroke-linecap: square"/>
   </g>
   <g id="patch_63">
    <path d="M 67.383766 247.068574 
L 669.221422 247.068574 
" style="fill: none; stroke: #000000; stroke-width: 0.8; stroke-linejoin: miter; stroke-linecap: square"/>
   </g>
   <g id="patch_64">
    <path d="M 67.383766 67.946602 
L 669.221422 67.946602 
" style="fill: none; stroke: #000000; stroke-width: 0.8; stroke-linejoin: miter; stroke-linecap: square"/>
   </g>
  </g>
  <g id="axes_4">
   <g id="matplotlib.axis_6">
    <g id="ytick_16">
     <g id="line2d_43">
      <g>
       <use xlink:href="#mea32ee0029" x="669.221422" y="453.454449" style="stroke: #000000; stroke-width: 0.8"/>
      </g>
     </g>
     <g id="text_43">
      <!-- 30 -->
      <g transform="translate(676.221422 457.253277) scale(0.1 -0.1)">
       <defs>
        <path id="DejaVuSans-16" d="M 2597 2516 
Q 3050 2419 3304 2112 
Q 3559 1806 3559 1356 
Q 3559 666 3084 287 
Q 2609 -91 1734 -91 
Q 1441 -91 1130 -33 
Q 819 25 488 141 
L 488 750 
Q 750 597 1062 519 
Q 1375 441 1716 441 
Q 2309 441 2620 675 
Q 2931 909 2931 1356 
Q 2931 1769 2642 2001 
Q 2353 2234 1838 2234 
L 1294 2234 
L 1294 2753 
L 1863 2753 
Q 2328 2753 2575 2939 
Q 2822 3125 2822 3475 
Q 2822 3834 2567 4026 
Q 2313 4219 1838 4219 
Q 1578 4219 1281 4162 
Q 984 4106 628 3988 
L 628 4550 
Q 988 4650 1302 4700 
Q 1616 4750 1894 4750 
Q 2613 4750 3031 4423 
Q 3450 4097 3450 3541 
Q 3450 3153 3228 2886 
Q 3006 2619 2597 2516 
z
" transform="scale(0.015625)"/>
       </defs>
       <use xlink:href="#DejaVuSans-16"/>
       <use xlink:href="#DejaVuSans-13" transform="translate(63.625 0)"/>
      </g>
     </g>
    </g>
    <g id="ytick_17">
     <g id="line2d_44">
      <g>
       <use xlink:href="#mea32ee0029" x="669.221422" y="429.892353" style="stroke: #000000; stroke-width: 0.8"/>
      </g>
     </g>
     <g id="text_44">
      <!-- 40 -->
      <g transform="translate(676.221422 433.691181) scale(0.1 -0.1)">
       <use xlink:href="#DejaVuSans-17"/>
       <use xlink:href="#DejaVuSans-13" transform="translate(63.625 0)"/>
      </g>
     </g>
    </g>
    <g id="ytick_18">
     <g id="line2d_45">
      <g>
       <use xlink:href="#mea32ee0029" x="669.221422" y="406.330257" style="stroke: #000000; stroke-width: 0.8"/>
      </g>
     </g>
     <g id="text_45">
      <!-- 50 -->
      <g transform="translate(676.221422 410.129085) scale(0.1 -0.1)">
       <use xlink:href="#DejaVuSans-18"/>
       <use xlink:href="#DejaVuSans-13" transform="translate(63.625 0)"/>
      </g>
     </g>
    </g>
    <g id="ytick_19">
     <g id="line2d_46">
      <g>
       <use xlink:href="#mea32ee0029" x="669.221422" y="382.768161" style="stroke: #000000; stroke-width: 0.8"/>
      </g>
     </g>
     <g id="text_46">
      <!-- 60 -->
      <g transform="translate(676.221422 386.56699) scale(0.1 -0.1)">
       <use xlink:href="#DejaVuSans-19"/>
       <use xlink:href="#DejaVuSans-13" transform="translate(63.625 0)"/>
      </g>
     </g>
    </g>
    <g id="ytick_20">
     <g id="line2d_47">
      <g>
       <use xlink:href="#mea32ee0029" x="669.221422" y="359.206065" style="stroke: #000000; stroke-width: 0.8"/>
      </g>
     </g>
     <g id="text_47">
      <!-- 70 -->
      <g transform="translate(676.221422 363.004894) scale(0.1 -0.1)">
       <defs>
        <path id="DejaVuSans-1a" d="M 525 4666 
L 3525 4666 
L 3525 4397 
L 1831 0 
L 1172 0 
L 2766 4134 
L 525 4134 
L 525 4666 
z
" transform="scale(0.015625)"/>
       </defs>
       <use xlink:href="#DejaVuSans-1a"/>
       <use xlink:href="#DejaVuSans-13" transform="translate(63.625 0)"/>
      </g>
     </g>
    </g>
    <g id="ytick_21">
     <g id="line2d_48">
      <g>
       <use xlink:href="#mea32ee0029" x="669.221422" y="335.64397" style="stroke: #000000; stroke-width: 0.8"/>
      </g>
     </g>
     <g id="text_48">
      <!-- 80 -->
      <g transform="translate(676.221422 339.442798) scale(0.1 -0.1)">
       <use xlink:href="#DejaVuSans-1b"/>
       <use xlink:href="#DejaVuSans-13" transform="translate(63.625 0)"/>
      </g>
     </g>
    </g>
    <g id="ytick_22">
     <g id="line2d_49">
      <g>
       <use xlink:href="#mea32ee0029" x="669.221422" y="312.081874" style="stroke: #000000; stroke-width: 0.8"/>
      </g>
     </g>
     <g id="text_49">
      <!-- 90 -->
      <g transform="translate(676.221422 315.880702) scale(0.1 -0.1)">
       <defs>
        <path id="DejaVuSans-1c" d="M 703 97 
L 703 672 
Q 941 559 1184 500 
Q 1428 441 1663 441 
Q 2288 441 2617 861 
Q 2947 1281 2994 2138 
Q 2813 1869 2534 1725 
Q 2256 1581 1919 1581 
Q 1219 1581 811 2004 
Q 403 2428 403 3163 
Q 403 3881 828 4315 
Q 1253 4750 1959 4750 
Q 2769 4750 3195 4129 
Q 3622 3509 3622 2328 
Q 3622 1225 3098 567 
Q 2575 -91 1691 -91 
Q 1453 -91 1209 -44 
Q 966 3 703 97 
z
M 1959 2075 
Q 2384 2075 2632 2365 
Q 2881 2656 2881 3163 
Q 2881 3666 2632 3958 
Q 2384 4250 1959 4250 
Q 1534 4250 1286 3958 
Q 1038 3666 1038 3163 
Q 1038 2656 1286 2365 
Q 1534 2075 1959 2075 
z
" transform="scale(0.015625)"/>
       </defs>
       <use xlink:href="#DejaVuSans-1c"/>
       <use xlink:href="#DejaVuSans-13" transform="translate(63.625 0)"/>
      </g>
     </g>
    </g>
    <g id="ytick_23">
     <g id="line2d_50">
      <g>
       <use xlink:href="#mea32ee0029" x="669.221422" y="288.519778" style="stroke: #000000; stroke-width: 0.8"/>
      </g>
     </g>
     <g id="text_50">
      <!-- 100 -->
      <g transform="translate(676.221422 292.318606) scale(0.1 -0.1)">
       <use xlink:href="#DejaVuSans-14"/>
       <use xlink:href="#DejaVuSans-13" transform="translate(63.625 0)"/>
       <use xlink:href="#DejaVuSans-13" transform="translate(127.25 0)"/>
      </g>
     </g>
    </g>
    <g id="text_51">
     <!-- price (€/MWh) -->
     <g style="fill: #e9c46a" transform="translate(706.907359 412.944014) rotate(-90) scale(0.1 -0.1)">
      <use xlink:href="#DejaVuSans-53"/>
      <use xlink:href="#DejaVuSans-55" transform="translate(63.484375 0)"/>
      <use xlink:href="#DejaVuSans-4c" transform="translate(104.59375 0)"/>
      <use xlink:href="#DejaVuSans-46" transform="translate(132.375 0)"/>
      <use xlink:href="#DejaVuSans-48" transform="translate(187.359375 0)"/>
      <use xlink:href="#DejaVuSans-3" transform="translate(248.890625 0)"/>
      <use xlink:href="#DejaVuSans-b" transform="translate(280.671875 0)"/>
      <use xlink:href="#DejaVuSans-b83" transform="translate(319.6875 0)"/>
      <use xlink:href="#DejaVuSans-12" transform="translate(383.3125 0)"/>
      <use xlink:href="#DejaVuSans-30" transform="translate(417 0)"/>
      <use xlink:href="#DejaVuSans-3a" transform="translate(503.28125 0)"/>
      <use xlink:href="#DejaVuSans-4b" transform="translate(602.15625 0)"/>
      <use xlink:href="#DejaVuSans-c" transform="translate(665.53125 0)"/>
     </g>
    </g>
   </g>
   <g id="line2d_51">
    <path d="M 103.935403 432.041455 
L 126.923855 441.383176 
L 149.912306 459.135748 
L 172.900757 440.677079 
L 195.889209 445.002904 
L 218.87766 449.55819 
L 241.866111 429.59571 
L 264.854563 417.499361 
L 287.843014 404.025988 
L 310.831465 397.105426 
L 333.819917 387.5082 
L 356.808368 404.314261 
L 379.796819 405.977329 
L 402.785271 413.698245 
L 425.773722 401.15411 
L 448.762173 396.998926 
L 471.750625 383.636191 
L 494.739076 367.043308 
L 517.727528 333.823427 
L 540.715979 303.048178 
L 563.70443 296.297591 
L 586.692882 305.065832 
L 609.681333 354.898152 
L 632.669784 437.062826 
" clip-path="url(#p9dd1f177fb)" style="fill: none; stroke: #e9c46a; stroke-width: 2; stroke-linecap: square"/>
   </g>
   <g id="patch_65">
    <path d="M 67.383766 467.277656 
L 67.383766 288.155684 
" style="fill: none; stroke: #000000; stroke-width: 0.8; stroke-linejoin: miter; stroke-linecap: square"/>
   </g>
   <g id="patch_66">
    <path d="M 669.221422 467.277656 
L 669.221422 288.155684 
" style="fill: none; stroke: #000000; stroke-width: 0.8; stroke-linejoin: miter; stroke-linecap: square"/>
   </g>
   <g id="patch_67">
    <path d="M 67.383766 467.277656 
L 669.221422 467.277656 
" style="fill: none; stroke: #000000; stroke-width: 0.8; stroke-linejoin: miter; stroke-linecap: square"/>
   </g>
   <g id="patch_68">
    <path d="M 67.383766 288.155684 
L 669.221422 288.155684 
" style="fill: none; stroke: #000000; stroke-width: 0.8; stroke-linejoin: miter; stroke-linecap: square"/>
   </g>
  </g>
  <g id="text_52">
   <!-- Ingestion guard — corrupt feed caught before dispatch -->
   <g transform="translate(181.860094 17.077969) scale(0.13 -0.13)">
    <defs>
     <path id="DejaVuSans-2c" d="M 628 4666 
L 1259 4666 
L 1259 0 
L 628 0 
L 628 4666 
z
" transform="scale(0.015625)"/>
    </defs>
    <use xlink:href="#DejaVuSans-2c"/>
    <use xlink:href="#DejaVuSans-51" transform="translate(29.5 0)"/>
    <use xlink:href="#DejaVuSans-4a" transform="translate(92.875 0)"/>
    <use xlink:href="#DejaVuSans-48" transform="translate(156.359375 0)"/>
    <use xlink:href="#DejaVuSans-56" transform="translate(217.890625 0)"/>
    <use xlink:href="#DejaVuSans-57" transform="translate(269.984375 0)"/>
    <use xlink:href="#DejaVuSans-4c" transform="translate(309.1875 0)"/>
    <use xlink:href="#DejaVuSans-52" transform="translate(336.96875 0)"/>
    <use xlink:href="#DejaVuSans-51" transform="translate(398.15625 0)"/>
    <use xlink:href="#DejaVuSans-3" transform="translate(461.53125 0)"/>
    <use xlink:href="#DejaVuSans-4a" transform="translate(493.3125 0)"/>
    <use xlink:href="#DejaVuSans-58" transform="translate(556.796875 0)"/>
    <use xlink:href="#DejaVuSans-44" transform="translate(620.171875 0)"/>
    <use xlink:href="#DejaVuSans-55" transform="translate(681.453125 0)"/>
    <use xlink:href="#DejaVuSans-47" transform="translate(720.8125 0)"/>
    <use xlink:href="#DejaVuSans-3" transform="translate(784.296875 0)"/>
    <use xlink:href="#DejaVuSans-af6" transform="translate(816.078125 0)"/>
    <use xlink:href="#DejaVuSans-3" transform="translate(916.078125 0)"/>
    <use xlink:href="#DejaVuSans-46" transform="translate(947.859375 0)"/>
    <use xlink:href="#DejaVuSans-52" transform="translate(1002.84375 0)"/>
    <use xlink:href="#DejaVuSans-55" transform="translate(1064.03125 0)"/>
    <use xlink:href="#DejaVuSans-55" transform="translate(1103.390625 0)"/>
    <use xlink:href="#DejaVuSans-58" transform="translate(1144.5 0)"/>
    <use xlink:href="#DejaVuSans-53" transform="translate(1207.875 0)"/>
    <use xlink:href="#DejaVuSans-57" transform="translate(1271.359375 0)"/>
    <use xlink:href="#DejaVuSans-3" transform="translate(1310.5625 0)"/>
    <use xlink:href="#DejaVuSans-49" transform="translate(1342.34375 0)"/>
    <use xlink:href="#DejaVuSans-48" transform="translate(1377.546875 0)"/>
    <use xlink:href="#DejaVuSans-48" transform="translate(1439.078125 0)"/>
    <use xlink:href="#DejaVuSans-47" transform="translate(1500.609375 0)"/>
    <use xlink:href="#DejaVuSans-3" transform="translate(1564.09375 0)"/>
    <use xlink:href="#DejaVuSans-46" transform="translate(1595.875 0)"/>
    <use xlink:href="#DejaVuSans-44" transform="translate(1650.859375 0)"/>
    <use xlink:href="#DejaVuSans-58" transform="translate(1712.140625 0)"/>
    <use xlink:href="#DejaVuSans-4a" transform="translate(1775.515625 0)"/>
    <use xlink:href="#DejaVuSans-4b" transform="translate(1839 0)"/>
    <use xlink:href="#DejaVuSans-57" transform="translate(1902.375 0)"/>
    <use xlink:href="#DejaVuSans-3" transform="translate(1941.578125 0)"/>
    <use xlink:href="#DejaVuSans-45" transform="translate(1973.359375 0)"/>
    <use xlink:href="#DejaVuSans-48" transform="translate(2036.84375 0)"/>
    <use xlink:href="#DejaVuSans-49" transform="translate(2098.375 0)"/>
    <use xlink:href="#DejaVuSans-52" transform="translate(2133.578125 0)"/>
    <use xlink:href="#DejaVuSans-55" transform="translate(2194.765625 0)"/>
    <use xlink:href="#DejaVuSans-48" transform="translate(2233.671875 0)"/>
    <use xlink:href="#DejaVuSans-3" transform="translate(2295.203125 0)"/>
    <use xlink:href="#DejaVuSans-47" transform="translate(2326.984375 0)"/>
    <use xlink:href="#DejaVuSans-4c" transform="translate(2390.46875 0)"/>
    <use xlink:href="#DejaVuSans-56" transform="translate(2418.25 0)"/>
    <use xlink:href="#DejaVuSans-53" transform="translate(2470.34375 0)"/>
    <use xlink:href="#DejaVuSans-44" transform="translate(2533.828125 0)"/>
    <use xlink:href="#DejaVuSans-57" transform="translate(2595.109375 0)"/>
    <use xlink:href="#DejaVuSans-46" transform="translate(2634.3125 0)"/>
    <use xlink:href="#DejaVuSans-4b" transform="translate(2689.296875 0)"/>
   </g>
  </g>
  <g id="text_53">
   <!-- overall provenance: degraded (data:anomaly) -->
   <g style="fill: #b00020" transform="translate(245.504078 528.3) scale(0.1 -0.1)">
    <defs>
     <path id="DejaVuSans-50" d="M 3328 2828 
Q 3544 3216 3844 3400 
Q 4144 3584 4550 3584 
Q 5097 3584 5394 3201 
Q 5691 2819 5691 2113 
L 5691 0 
L 5113 0 
L 5113 2094 
Q 5113 2597 4934 2840 
Q 4756 3084 4391 3084 
Q 3944 3084 3684 2787 
Q 3425 2491 3425 1978 
L 3425 0 
L 2847 0 
L 2847 2094 
Q 2847 2600 2669 2842 
Q 2491 3084 2119 3084 
Q 1678 3084 1418 2786 
Q 1159 2488 1159 1978 
L 1159 0 
L 581 0 
L 581 3500 
L 1159 3500 
L 1159 2956 
Q 1356 3278 1631 3431 
Q 1906 3584 2284 3584 
Q 2666 3584 2933 3390 
Q 3200 3197 3328 2828 
z
" transform="scale(0.015625)"/>
    </defs>
    <use xlink:href="#DejaVuSans-52"/>
    <use xlink:href="#DejaVuSans-59" transform="translate(61.1875 0)"/>
    <use xlink:href="#DejaVuSans-48" transform="translate(120.375 0)"/>
    <use xlink:href="#DejaVuSans-55" transform="translate(181.90625 0)"/>
    <use xlink:href="#DejaVuSans-44" transform="translate(223.015625 0)"/>
    <use xlink:href="#DejaVuSans-4f" transform="translate(284.296875 0)"/>
    <use xlink:href="#DejaVuSans-4f" transform="translate(312.078125 0)"/>
    <use xlink:href="#DejaVuSans-3" transform="translate(339.859375 0)"/>
    <use xlink:href="#DejaVuSans-53" transform="translate(371.640625 0)"/>
    <use xlink:href="#DejaVuSans-55" transform="translate(435.125 0)"/>
    <use xlink:href="#DejaVuSans-52" transform="translate(474.03125 0)"/>
    <use xlink:href="#DejaVuSans-59" transform="translate(535.21875 0)"/>
    <use xlink:href="#DejaVuSans-48" transform="translate(594.40625 0)"/>
    <use xlink:href="#DejaVuSans-51" transform="translate(655.9375 0)"/>
    <use xlink:href="#DejaVuSans-44" transform="translate(719.3125 0)"/>
    <use xlink:href="#DejaVuSans-51" transform="translate(780.59375 0)"/>
    <use xlink:href="#DejaVuSans-46" transform="translate(843.96875 0)"/>
    <use xlink:href="#DejaVuSans-48" transform="translate(898.953125 0)"/>
    <use xlink:href="#DejaVuSans-1d" transform="translate(960.484375 0)"/>
    <use xlink:href="#DejaVuSans-3" transform="translate(994.171875 0)"/>
    <use xlink:href="#DejaVuSans-47" transform="translate(1025.953125 0)"/>
    <use xlink:href="#DejaVuSans-48" transform="translate(1089.4375 0)"/>
    <use xlink:href="#DejaVuSans-4a" transform="translate(1150.96875 0)"/>
    <use xlink:href="#DejaVuSans-55" transform="translate(1214.453125 0)"/>
    <use xlink:href="#DejaVuSans-44" transform="translate(1255.5625 0)"/>
    <use xlink:href="#DejaVuSans-47" transform="translate(1316.84375 0)"/>
    <use xlink:href="#DejaVuSans-48" transform="translate(1380.328125 0)"/>
    <use xlink:href="#DejaVuSans-47" transform="translate(1441.859375 0)"/>
    <use xlink:href="#DejaVuSans-3" transform="translate(1505.34375 0)"/>
    <use xlink:href="#DejaVuSans-b" transform="translate(1537.125 0)"/>
    <use xlink:href="#DejaVuSans-47" transform="translate(1576.140625 0)"/>
    <use xlink:href="#DejaVuSans-44" transform="translate(1639.625 0)"/>
    <use xlink:href="#DejaVuSans-57" transform="translate(1700.90625 0)"/>
    <use xlink:href="#DejaVuSans-44" transform="translate(1740.109375 0)"/>
    <use xlink:href="#DejaVuSans-1d" transform="translate(1801.390625 0)"/>
    <use xlink:href="#DejaVuSans-44" transform="translate(1835.078125 0)"/>
    <use xlink:href="#DejaVuSans-51" transform="translate(1896.359375 0)"/>
    <use xlink:href="#DejaVuSans-52" transform="translate(1959.734375 0)"/>
    <use xlink:href="#DejaVuSans-50" transform="translate(2020.921875 0)"/>
    <use xlink:href="#DejaVuSans-44" transform="translate(2118.328125 0)"/>
    <use xlink:href="#DejaVuSans-4f" transform="translate(2179.609375 0)"/>
    <use xlink:href="#DejaVuSans-5c" transform="translate(2207.390625 0)"/>
    <use xlink:href="#DejaVuSans-c" transform="translate(2266.578125 0)"/>
   </g>
  </g>
 </g>
 <defs>
  <clipPath id="p249684db89">
   <rect x="67.383766" y="67.946602" width="601.837656" height="179.121973"/>
  </clipPath>
  <clipPath id="p9dd1f177fb">
   <rect x="67.383766" y="288.155684" width="601.837656" height="179.121973"/>
  </clipPath>
 </defs>
</svg>
