<svg viewBox="0 0 640 420" xmlns="http://www.w3.org/2000/svg" font-family="-apple-system, Segoe UI, Helvetica, Arial, sans-serif">
  <rect x="4" y="4" width="632" height="412" rx="12" fill="#f6f8fa" stroke="#d0d7de"/>
  <text x="320" y="36" text-anchor="middle" font-size="19" font-weight="700" fill="#1f2328">Convex PWL cost = upper envelope of its segment lines</text>

  <!-- Epigraph shading (region on/above the curve) -->
  <polygon points="80,360 320,317 560,60 560,56 80,56" fill="#0969da" fill-opacity="0.07"/>
  <text x="150" y="100" font-size="12" fill="#0969da">epigraph:  D ≥ g(τ)</text>

  <!-- Axes -->
  <line x1="80" y1="360" x2="590" y2="360" stroke="#57606a" stroke-width="1.5"/>
  <line x1="80" y1="360" x2="80" y2="50" stroke="#57606a" stroke-width="1.5"/>
  <text x="335" y="402" text-anchor="middle" font-size="13" fill="#1f2328">throughput  τₜ</text>
  <text x="34" y="210" text-anchor="middle" font-size="13" fill="#1f2328" transform="rotate(-90 34 210)">degradation cost</text>

  <!-- Extended segment lines (dashed, lie below the curve away from their segment) -->
  <line x1="80" y1="360" x2="560" y2="274" stroke="#8c959f" stroke-width="1.3" stroke-dasharray="5 4"/>
  <line x1="280" y1="360" x2="560" y2="60" stroke="#8c959f" stroke-width="1.3" stroke-dasharray="5 4"/>
  <text x="566" y="276" font-size="12" fill="#8c959f">ℓ₁</text>
  <text x="452" y="188" font-size="12" fill="#8c959f">ℓ₂</text>

  <!-- The PWL curve g = max of the lines (solid, bold) -->
  <polyline points="80,360 320,317 560,60" fill="none" stroke="#1a7f37" stroke-width="3"/>
  <text x="360" y="150" font-size="14" font-weight="600" fill="#1a7f37">g(τ) = maxₖ ℓₖ</text>

  <!-- Breakpoints -->
  <circle cx="80" cy="360" r="4.5" fill="#1a7f37"/>
  <circle cx="320" cy="317" r="4.5" fill="#1a7f37"/>
  <circle cx="560" cy="60" r="4.5" fill="#1a7f37"/>

  <!-- Breakpoint ticks / labels -->
  <line x1="320" y1="356" x2="320" y2="364" stroke="#57606a"/>
  <line x1="560" y1="356" x2="560" y2="364" stroke="#57606a"/>
  <text x="80" y="378" text-anchor="middle" font-size="12" fill="#57606a">x₀=0</text>
  <text x="320" y="378" text-anchor="middle" font-size="12" fill="#57606a">x₁</text>
  <text x="560" y="378" text-anchor="middle" font-size="12" fill="#57606a">x₂ = τ_max</text>
</svg>
